<svg width="125" height="38" viewBox="0 0 125 38" fill="none" xmlns="http://www.w3.org/2000/svg">
<path d="M66.1957 18.1318C64.6704 18.1318 63.2917 17.7944 62.0597 17.1198C60.8424 16.4451 59.8817 15.5138 59.1777 14.3258C58.4884 13.1231 58.1437 11.7811 58.1437 10.2998C58.1437 8.81845 58.4884 7.48378 59.1777 6.29578C59.8817 5.09312 60.8497 4.15445 62.0817 3.47978C63.3137 2.80511 64.6924 2.46778 66.2177 2.46778C67.3617 2.46778 68.4177 2.65845 69.3857 3.03978C70.3537 3.42111 71.1751 3.97845 71.8497 4.71178L70.8157 5.74578C69.6131 4.52845 68.0951 3.91978 66.2617 3.91978C65.0444 3.91978 63.9371 4.19845 62.9397 4.75578C61.9424 5.31311 61.1577 6.07578 60.5857 7.04378C60.0284 8.01178 59.7497 9.09712 59.7497 10.2998C59.7497 11.5024 60.0284 12.5878 60.5857 13.5558C61.1577 14.5238 61.9424 15.2864 62.9397 15.8438C63.9371 16.4011 65.0444 16.6798 66.2617 16.6798C68.1097 16.6798 69.6277 16.0638 70.8157 14.8318L71.8497 15.8658C71.1751 16.5991 70.3464 17.1638 69.3637 17.5598C68.3957 17.9411 67.3397 18.1318 66.1957 18.1318Z" fill="#3E3F43"/>
<path d="M74.9902 1.67578H76.5522V17.9998H74.9902V1.67578Z" fill="#3E3F43"/>
<path d="M90.9744 12.6978H81.2944C81.3824 13.9004 81.8444 14.8758 82.6804 15.6238C83.5164 16.3571 84.5724 16.7238 85.8484 16.7238C86.5671 16.7238 87.2271 16.5991 87.8284 16.3498C88.4298 16.0858 88.9504 15.7044 89.3904 15.2058L90.2704 16.2178C89.7571 16.8338 89.1118 17.3031 88.3344 17.6258C87.5718 17.9484 86.7284 18.1098 85.8044 18.1098C84.6164 18.1098 83.5604 17.8604 82.6364 17.3618C81.7271 16.8484 81.0158 16.1444 80.5024 15.2498C79.9891 14.3551 79.7324 13.3431 79.7324 12.2138C79.7324 11.0844 79.9744 10.0724 80.4584 9.17778C80.9571 8.28311 81.6318 7.58645 82.4824 7.08778C83.3478 6.58912 84.3158 6.33978 85.3864 6.33978C86.4571 6.33978 87.4178 6.58912 88.2684 7.08778C89.1191 7.58645 89.7864 8.28311 90.2704 9.17778C90.7544 10.0578 90.9964 11.0698 90.9964 12.2138L90.9744 12.6978ZM85.3864 7.68178C84.2718 7.68178 83.3331 8.04112 82.5704 8.75978C81.8224 9.46378 81.3971 10.3878 81.2944 11.5318H89.5004C89.3978 10.3878 88.9651 9.46378 88.2024 8.75978C87.4544 8.04112 86.5158 7.68178 85.3864 7.68178Z" fill="#3E3F43"/>
<path d="M103.685 6.42778L98.5369 17.9998H96.9309L91.8049 6.42778H93.4329L97.7669 16.2838L102.145 6.42778H103.685Z" fill="#3E3F43"/>
<path d="M115.639 12.6978H105.959C106.047 13.9004 106.509 14.8758 107.345 15.6238C108.181 16.3571 109.237 16.7238 110.513 16.7238C111.231 16.7238 111.891 16.5991 112.493 16.3498C113.094 16.0858 113.615 15.7044 114.055 15.2058L114.935 16.2178C114.421 16.8338 113.776 17.3031 112.999 17.6258C112.236 17.9484 111.393 18.1098 110.469 18.1098C109.281 18.1098 108.225 17.8604 107.301 17.3618C106.391 16.8484 105.68 16.1444 105.167 15.2498C104.653 14.3551 104.397 13.3431 104.397 12.2138C104.397 11.0844 104.639 10.0724 105.123 9.17778C105.621 8.28311 106.296 7.58645 107.147 7.08778C108.012 6.58912 108.98 6.33978 110.051 6.33978C111.121 6.33978 112.082 6.58912 112.933 7.08778C113.783 7.58645 114.451 8.28311 114.935 9.17778C115.419 10.0578 115.661 11.0698 115.661 12.2138L115.639 12.6978ZM110.051 7.68178C108.936 7.68178 107.997 8.04112 107.235 8.75978C106.487 9.46378 106.061 10.3878 105.959 11.5318H114.165C114.062 10.3878 113.629 9.46378 112.867 8.75978C112.119 8.04112 111.18 7.68178 110.051 7.68178Z" fill="#3E3F43"/>
<path d="M120.336 8.69378C120.703 7.91645 121.245 7.32978 121.964 6.93378C122.697 6.53778 123.599 6.33978 124.67 6.33978V7.85778L124.296 7.83578C123.079 7.83578 122.125 8.20978 121.436 8.95778C120.747 9.70578 120.402 10.7544 120.402 12.1038V17.9998H118.84V6.42778H120.336V8.69378Z" fill="#3E3F43"/>
<path d="M67.0517 33.9998V25.8378L63.4257 32.1518H62.8517L59.2257 25.8378V33.9998H58.2457V24.0598H59.2537L63.1317 30.8638L67.0377 24.0598H68.0317V33.9998H67.0517Z" fill="#3E3F43"/>
<path d="M72.0927 34.1398C71.7474 34.1398 71.4254 34.0838 71.1267 33.9718C70.8374 33.8504 70.5807 33.6871 70.3567 33.4818C70.1421 33.2764 69.9741 33.0384 69.8527 32.7678C69.7314 32.4878 69.6707 32.1891 69.6707 31.8718C69.6707 31.5544 69.7454 31.2604 69.8947 30.9898C70.0441 30.7191 70.2541 30.4858 70.5247 30.2898C70.7954 30.0938 71.1174 29.9444 71.4907 29.8418C71.8641 29.7298 72.2747 29.6738 72.7227 29.6738C73.0961 29.6738 73.4741 29.7064 73.8567 29.7718C74.2394 29.8371 74.5801 29.9304 74.8787 30.0518V29.3938C74.8787 28.7498 74.6967 28.2411 74.3327 27.8678C73.9687 27.4851 73.4647 27.2938 72.8207 27.2938C72.4474 27.2938 72.0647 27.3684 71.6727 27.5178C71.2807 27.6671 70.8841 27.8818 70.4827 28.1618L70.1467 27.5318C71.0894 26.8971 72.0041 26.5798 72.8907 26.5798C73.8054 26.5798 74.5241 26.8364 75.0467 27.3498C75.5694 27.8631 75.8307 28.5724 75.8307 29.4778V32.7678C75.8307 33.0291 75.9474 33.1598 76.1807 33.1598V33.9998C76.0221 34.0278 75.9007 34.0418 75.8167 34.0418C75.5741 34.0418 75.3827 33.9811 75.2427 33.8598C75.1121 33.7384 75.0421 33.5704 75.0327 33.3558L75.0047 32.7818C74.6687 33.2204 74.2441 33.5564 73.7307 33.7898C73.2267 34.0231 72.6807 34.1398 72.0927 34.1398ZM72.3167 33.4118C72.8114 33.4118 73.2641 33.3184 73.6747 33.1318C74.0947 32.9451 74.4121 32.6978 74.6267 32.3898C74.7107 32.3058 74.7714 32.2171 74.8087 32.1238C74.8554 32.0211 74.8787 31.9278 74.8787 31.8438V30.6538C74.5614 30.5324 74.2301 30.4391 73.8847 30.3738C73.5487 30.3085 73.2034 30.2758 72.8487 30.2758C72.1767 30.2758 71.6307 30.4158 71.2107 30.6958C70.7907 30.9758 70.5807 31.3444 70.5807 31.8018C70.5807 32.0258 70.6227 32.2358 70.7067 32.4318C70.8001 32.6278 70.9214 32.8004 71.0707 32.9498C71.2294 33.0898 71.4161 33.2018 71.6307 33.2858C71.8454 33.3698 72.0741 33.4118 72.3167 33.4118Z" fill="#3E3F43"/>
<path d="M81.5276 27.5458C80.8836 27.5644 80.3236 27.7418 79.8476 28.0778C79.3716 28.4138 79.0356 28.8758 78.8396 29.4638V33.9998H77.8876V26.7058H78.7836V28.4558C79.0543 27.8958 79.4183 27.4571 79.8756 27.1398C80.333 26.8224 80.823 26.6638 81.3456 26.6638C81.4203 26.6638 81.481 26.6684 81.5276 26.6778V27.5458Z" fill="#3E3F43"/>
<path d="M88.0038 33.9998L85.3158 30.2618L83.7478 31.7178V33.9998H82.7958V23.7798H83.7478V30.7238L87.8498 26.7198H88.9278L85.9458 29.7018L89.0398 33.9998H88.0038Z" fill="#3E3F43"/>
<path d="M92.9868 34.1398C92.4548 34.1398 91.9648 34.0418 91.5168 33.8458C91.0782 33.6404 90.6955 33.3651 90.3688 33.0198C90.0422 32.6651 89.7855 32.2591 89.5988 31.8018C89.4215 31.3444 89.3328 30.8544 89.3328 30.3318C89.3328 29.8184 89.4215 29.3378 89.5988 28.8898C89.7855 28.4324 90.0375 28.0358 90.3548 27.6998C90.6815 27.3544 91.0688 27.0838 91.5168 26.8878C91.9648 26.6824 92.4502 26.5798 92.9728 26.5798C93.5048 26.5798 93.9902 26.6824 94.4288 26.8878C94.8769 27.0838 95.2595 27.3544 95.5768 27.6998C95.8942 28.0451 96.1415 28.4418 96.3188 28.8898C96.4962 29.3378 96.5848 29.8138 96.5848 30.3178C96.5848 30.3924 96.5848 30.4671 96.5848 30.5418C96.5848 30.6164 96.5802 30.6678 96.5708 30.6958H90.3268C90.3548 31.0878 90.4435 31.4518 90.5928 31.7878C90.7515 32.1144 90.9522 32.3991 91.1948 32.6418C91.4375 32.8844 91.7128 33.0758 92.0208 33.2158C92.3382 33.3464 92.6742 33.4118 93.0288 33.4118C93.2622 33.4118 93.4955 33.3791 93.7288 33.3138C93.9622 33.2484 94.1768 33.1598 94.3728 33.0478C94.5688 32.9358 94.7462 32.8004 94.9048 32.6418C95.0635 32.4738 95.1848 32.2918 95.2688 32.0958L96.0948 32.3198C95.9828 32.5904 95.8242 32.8378 95.6188 33.0618C95.4135 33.2764 95.1755 33.4678 94.9048 33.6358C94.6342 33.7944 94.3355 33.9158 94.0088 33.9998C93.6822 34.0931 93.3415 34.1398 92.9868 34.1398ZM95.6748 29.9678C95.6468 29.5758 95.5535 29.2211 95.3948 28.9038C95.2455 28.5771 95.0495 28.2971 94.8068 28.0638C94.5735 27.8304 94.2982 27.6484 93.9808 27.5178C93.6728 27.3871 93.3415 27.3218 92.9868 27.3218C92.6322 27.3218 92.2962 27.3871 91.9788 27.5178C91.6615 27.6484 91.3815 27.8304 91.1388 28.0638C90.9055 28.2971 90.7142 28.5771 90.5648 28.9038C90.4248 29.2304 90.3408 29.5851 90.3128 29.9678H95.6748Z" fill="#3E3F43"/>
<path d="M101.499 33.6498C101.443 33.6778 101.359 33.7151 101.247 33.7618C101.144 33.8084 101.023 33.8551 100.883 33.9018C100.743 33.9484 100.584 33.9904 100.407 34.0278C100.23 34.0651 100.043 34.0838 99.847 34.0838C99.6416 34.0838 99.4456 34.0558 99.259 33.9998C99.0723 33.9438 98.909 33.8598 98.769 33.7478C98.629 33.6264 98.517 33.4771 98.433 33.2998C98.349 33.1224 98.307 32.9171 98.307 32.6838V27.4618H97.299V26.7058H98.307V24.2418H99.259V26.7058H100.939V27.4618H99.259V32.4178C99.2776 32.6884 99.371 32.8891 99.539 33.0198C99.7163 33.1411 99.917 33.2018 100.141 33.2018C100.412 33.2018 100.65 33.1598 100.855 33.0758C101.06 32.9824 101.191 32.9171 101.247 32.8798L101.499 33.6498Z" fill="#3E3F43"/>
<path d="M102.688 33.9998V26.7058H103.64V33.9998H102.688ZM102.688 25.1798V23.7798H103.64V25.1798H102.688Z" fill="#3E3F43"/>
<path d="M111.869 33.9998H110.917V29.9258C110.917 29.0578 110.787 28.4278 110.525 28.0358C110.273 27.6438 109.881 27.4478 109.349 27.4478C109.069 27.4478 108.789 27.4991 108.509 27.6018C108.229 27.7044 107.968 27.8491 107.725 28.0358C107.492 28.2224 107.282 28.4464 107.095 28.7078C106.909 28.9598 106.773 29.2351 106.689 29.5338V33.9998H105.737V26.7058H106.605V28.3578C106.904 27.8258 107.329 27.3965 107.879 27.0698C108.439 26.7431 109.046 26.5798 109.699 26.5798C110.101 26.5798 110.441 26.6544 110.721 26.8038C111.001 26.9531 111.225 27.1631 111.393 27.4338C111.561 27.7044 111.683 28.0358 111.757 28.4278C111.832 28.8198 111.869 29.2538 111.869 29.7298V33.9998Z" fill="#3E3F43"/>
<path d="M116.825 34.0978C116.321 34.0978 115.859 33.9951 115.439 33.7898C115.029 33.5751 114.669 33.2951 114.361 32.9498C114.063 32.6044 113.829 32.2078 113.661 31.7598C113.493 31.3118 113.409 30.8498 113.409 30.3738C113.409 29.8698 113.489 29.3891 113.647 28.9318C113.815 28.4651 114.049 28.0591 114.347 27.7138C114.646 27.3684 115.001 27.0931 115.411 26.8878C115.831 26.6824 116.293 26.5798 116.797 26.5798C117.423 26.5798 117.964 26.7384 118.421 27.0558C118.879 27.3638 119.271 27.7558 119.597 28.2318V26.7058H120.451V34.0278C120.451 34.5318 120.353 34.9751 120.157 35.3578C119.971 35.7498 119.714 36.0765 119.387 36.3378C119.07 36.5991 118.692 36.7951 118.253 36.9258C117.824 37.0564 117.367 37.1218 116.881 37.1218C116.041 37.1218 115.365 36.9725 114.851 36.6738C114.338 36.3751 113.923 35.9738 113.605 35.4698L114.193 35.0078C114.483 35.4744 114.865 35.8151 115.341 36.0298C115.817 36.2538 116.331 36.3658 116.881 36.3658C117.236 36.3658 117.572 36.3144 117.889 36.2118C118.207 36.1184 118.482 35.9738 118.715 35.7778C118.958 35.5911 119.149 35.3484 119.289 35.0498C119.429 34.7604 119.499 34.4198 119.499 34.0278V32.5858C119.219 33.0525 118.837 33.4211 118.351 33.6918C117.866 33.9625 117.357 34.0978 116.825 34.0978ZM117.091 33.2998C117.371 33.2998 117.647 33.2484 117.917 33.1458C118.188 33.0431 118.431 32.9078 118.645 32.7398C118.869 32.5624 119.056 32.3664 119.205 32.1518C119.355 31.9371 119.453 31.7178 119.499 31.4938V29.2398C119.397 28.9784 119.257 28.7358 119.079 28.5118C118.902 28.2878 118.701 28.0964 118.477 27.9378C118.253 27.7791 118.011 27.6531 117.749 27.5598C117.497 27.4664 117.241 27.4198 116.979 27.4198C116.569 27.4198 116.2 27.5084 115.873 27.6858C115.556 27.8538 115.285 28.0778 115.061 28.3578C114.837 28.6378 114.665 28.9551 114.543 29.3098C114.431 29.6644 114.375 30.0238 114.375 30.3878C114.375 30.7798 114.445 31.1531 114.585 31.5078C114.725 31.8624 114.917 32.1751 115.159 32.4458C115.411 32.7071 115.701 32.9171 116.027 33.0758C116.354 33.2251 116.709 33.2998 117.091 33.2998Z" fill="#3E3F43"/>
<path opacity="0.8" d="M8.11484 19.8555C7.02957 20.028 5.94815 20.3003 4.9089 20.6531C1.51889 21.7997 -2.08587 25.903 1.46137 29.0284C2.43159 29.8836 3.63956 30.5662 4.84754 31.0187C6.55405 31.6591 7.45908 34.0214 7.46291 34.0252C8.03431 35.5208 9.19627 37.0164 10.6727 37.7029C12.755 38.6769 15.0483 37.074 16.2831 35.4556C17.3108 34.1096 17.8439 32.3878 18.1506 30.7426C18.1928 30.5202 18.2158 30.2863 18.2657 30.0638C18.2657 30.0638 16.8851 36.3338 11.8883 35.3023C11.8883 35.3023 9.80217 34.4624 8.91249 31.8355C8.91249 31.8355 8.37177 29.9603 6.00183 29.0399C3.63573 28.1196 2.71536 26.4092 2.71536 26.4092C2.18232 25.416 2.50445 23.79 3.12186 22.9349C4.28382 21.3204 6.14756 20.1661 8.11484 19.8555Z" fill="#72E64A"/>
<path opacity="0.8" d="M8.11484 18.1468C7.02957 17.9742 5.94815 17.7019 4.9089 17.3491C1.51889 16.2025 -2.08587 12.0992 1.46137 8.97381C2.43159 8.11864 3.63956 7.43603 4.84754 6.98352C6.55405 6.3431 7.45908 3.98083 7.46291 3.977C8.03431 2.48141 9.19627 0.985813 10.6727 0.299375C12.755 -0.674678 15.0483 0.92829 16.2831 2.5466C17.3108 3.89263 17.8439 5.61448 18.1506 7.25963C18.1928 7.48205 18.2158 7.71598 18.2657 7.9384C18.2657 7.9384 16.8851 1.66842 11.8883 2.69999C11.8883 2.69999 9.80217 3.53982 8.91249 6.1667C8.91249 6.1667 8.37177 8.04194 6.00183 8.96231C3.63573 9.88267 2.71536 11.593 2.71536 11.593C2.18232 12.5862 2.50445 14.2122 3.12186 15.0674C4.28382 16.6819 6.14756 17.8362 8.11484 18.1468Z" fill="#61B9FF"/>
<path opacity="0.8" d="M30.2189 19.8555C31.3042 20.028 32.3856 20.3003 33.4248 20.6531C36.8149 21.7997 40.4196 25.903 36.8724 29.0284C35.9022 29.8836 34.6942 30.5662 33.4862 31.0187C31.7797 31.6591 30.8747 34.0214 30.8708 34.0252C30.2994 35.5208 29.1375 37.0164 27.6611 37.7029C25.5787 38.6769 23.2855 37.074 22.0507 35.4556C21.0229 34.1096 20.4899 32.3878 20.1831 30.7426C20.1409 30.5202 20.1179 30.2863 20.0681 30.0638C20.0681 30.0638 21.4486 36.3338 26.4454 35.3023C26.4454 35.3023 28.5316 34.4624 29.4213 31.8355C29.4213 31.8355 29.962 29.9603 32.3319 29.0399C34.698 28.1196 35.6184 26.4092 35.6184 26.4092C36.1514 25.416 35.8293 23.79 35.2119 22.9349C34.0499 21.3204 32.1862 20.1661 30.2189 19.8555Z" fill="#FFCF52"/>
<path opacity="0.8" d="M30.2189 18.1458C31.3042 17.9732 32.3856 17.701 33.4248 17.3482C36.8149 16.2015 40.4196 12.0982 36.8724 8.97283C35.9022 8.11766 34.6942 7.43506 33.4862 6.98255C31.7797 6.34213 30.8747 3.97986 30.8708 3.97602C30.2994 2.48043 29.1375 0.984838 27.6611 0.298399C25.5826 -0.679488 23.2893 0.92348 22.0507 2.54179C21.0229 3.88782 20.4899 5.60967 20.1831 7.25482C20.1409 7.47724 20.1179 7.71117 20.0681 7.93359C20.0681 7.93359 21.4486 1.66361 26.4454 2.69518C26.4454 2.69518 28.5316 3.53501 29.4213 6.16189C29.4213 6.16189 29.962 8.03713 32.3319 8.95749C34.698 9.87786 35.6184 11.5882 35.6184 11.5882C36.1514 12.5814 35.8293 14.2074 35.2119 15.0626C34.0499 16.6809 32.1862 17.8352 30.2189 18.1458Z" fill="#FF4DF8"/>
<path d="M8.29516 17.7707C7.98837 18.0775 7.80046 18.4994 7.80046 18.9634C7.80046 19.8952 8.55593 20.6507 9.4878 20.6507H13.3265L14.6572 22.4684H9.53382C7.61639 22.4684 5.67212 20.9153 5.67212 18.9979C5.67212 18.0392 6.15915 17.1725 6.88393 16.5436C7.60872 15.9147 8.5751 15.5273 9.53382 15.5273H17.2802V17.276H9.49163C9.02378 17.2799 8.60195 17.4678 8.29516 17.7707Z" fill="#3E3F43"/>
<path d="M21.2799 20.6733L20.7661 22.4718H15.148V17.6553H17.2802V20.6733H21.2799Z" fill="#3E3F43"/>
<path d="M31.7031 16.4285C31.7031 16.4285 31.3579 15.5273 30.3647 15.5273C29.3753 15.5273 29.0724 16.4285 29.0724 16.4285L27.0898 20.064L25.1071 16.4285C25.1071 16.4285 24.808 15.5273 23.8148 15.5273C22.8254 15.5273 22.4764 16.4285 22.4764 16.4285L21.2684 20.6699L20.7546 22.4723H22.8753L24.0449 18.1044L26.0582 21.9431C26.2269 22.2652 26.5644 22.4684 26.9287 22.4684H27.0859H27.2431C27.6075 22.4684 27.9449 22.2652 28.1137 21.9431L30.127 18.1044L31.3043 22.4723H33.4249L31.7031 16.4285Z" fill="#3E3F43"/>
</svg>
