<svg width="21" height="15" viewBox="0 0 21 15" fill="none" xmlns="http://www.w3.org/2000/svg">
<path opacity="0.9" d="M20.1858 3.83102C20.074 2.49297 19.2762 0.805632 17.6366 0.745308C13.0583 0.43748 7.63443 0.353318 2.97321 0.745307C1.52709 0.907384 0.53581 2.66885 0.427772 4.00689C0.199125 6.81743 0.199124 8.41685 0.427772 11.2274C0.537075 12.5654 1.50325 14.337 2.97574 14.5229C7.69222 14.8307 13.0897 14.8747 17.6391 14.5229C19.0664 14.2754 20.0778 12.5654 20.1871 11.2274C20.4144 8.41559 20.4144 6.64155 20.1858 3.83102ZM7.79271 11.1822L7.79271 3.97673L14.0747 7.58006L7.79271 11.1822Z" fill="white"/>
</svg>
