<svg width="25" height="14" viewBox="0 0 25 14" fill="none" xmlns="http://www.w3.org/2000/svg">
<path opacity="0.9" d="M24.235 12.1077C24.2066 12.0464 24.1801 11.9956 24.1555 11.9549C23.7487 11.2209 22.9711 10.3201 21.8234 9.25204L21.7992 9.22758L21.787 9.21559L21.7747 9.2033L21.7624 9.2033C21.2415 8.70597 20.9117 8.37157 20.7735 8.20037C20.5208 7.87424 20.4642 7.54413 20.6023 7.20965C20.6999 6.95693 21.0665 6.42324 21.7012 5.60783C22.0351 5.17569 22.2995 4.82935 22.4948 4.56841C23.9031 2.69319 24.5137 1.49491 24.3264 0.973076L24.2536 0.851131C24.2048 0.777716 24.0786 0.710554 23.8753 0.649303C23.6716 0.588181 23.4112 0.578073 23.0936 0.618806L19.5772 0.643135C19.5203 0.622918 19.4389 0.624802 19.3329 0.649303L19.1742 0.686096L19.113 0.716722L19.0644 0.753515C19.0237 0.777844 18.9789 0.820634 18.93 0.881799C18.8814 0.94275 18.8407 1.01428 18.8082 1.09579C18.4254 2.08227 17.9901 2.99945 17.5016 3.84728C17.2004 4.35283 16.9237 4.79097 16.6711 5.16194C16.4188 5.53279 16.2072 5.80602 16.0364 5.98116C15.8653 6.15648 15.7109 6.29692 15.5723 6.40302C15.4338 6.50916 15.3282 6.55401 15.255 6.5376C15.1816 6.5212 15.1126 6.50492 15.0472 6.48864C14.9333 6.41523 14.8417 6.31539 14.7726 6.18903C14.7033 6.06267 14.6566 5.90363 14.6321 5.71204C14.6079 5.52032 14.5935 5.35542 14.5894 5.21677C14.5856 5.07829 14.5873 4.88242 14.5956 4.6297C14.604 4.37686 14.6079 4.20579 14.6079 4.1161C14.6079 3.80625 14.6139 3.46997 14.626 3.10717C14.6383 2.74438 14.6483 2.45693 14.6566 2.24516C14.6649 2.03318 14.6688 1.80891 14.6688 1.57248C14.6688 1.33604 14.6544 1.15062 14.626 1.01604C14.5979 0.881627 14.5549 0.751159 14.4981 0.624674C14.441 0.498317 14.3575 0.400573 14.2478 0.331184C14.1379 0.261881 14.0013 0.206883 13.8388 0.166021C13.4073 0.0682339 12.8579 0.0153355 12.1903 0.00711161C11.6443 0.00124174 11.1687 0.0102234 10.7635 0.0340506C10.0066 0.0785516 9.46284 0.800305 9.78474 1.48668C9.81196 1.54471 9.85809 1.63356 9.85809 1.63356C9.91514 1.73952 9.9721 1.92713 10.0291 2.19612C10.086 2.46511 10.1228 2.76267 10.1389 3.08863C10.1796 3.68387 10.1796 4.19341 10.1389 4.61728C10.0982 5.04133 10.0597 5.37144 10.023 5.60788C9.98622 5.84431 9.9313 6.0359 9.85809 6.1826C9.78474 6.32935 9.73595 6.41904 9.71148 6.45159C9.68706 6.48415 9.66671 6.50466 9.65054 6.51272C9.54474 6.55332 9.4347 6.57401 9.32081 6.57401C9.20676 6.57401 9.06845 6.51687 8.90568 6.40268C8.74295 6.28849 8.57407 6.13163 8.39903 5.93186C8.22398 5.73205 8.02657 5.45282 7.80671 5.09414C7.58702 4.73546 7.35908 4.31154 7.12301 3.82239L6.92769 3.46765C6.80559 3.23944 6.6388 2.90714 6.42715 2.47106C6.21537 2.03481 6.02818 1.61282 5.86546 1.20519C5.80041 1.03398 5.70269 0.903643 5.57247 0.813952L5.51135 0.777158C5.47073 0.744605 5.40551 0.710039 5.31604 0.673203C5.22644 0.636409 5.13296 0.610024 5.03519 0.593791L1.68962 0.61812C1.34774 0.61812 1.11578 0.69569 0.993638 0.850616L0.944756 0.923902C0.920337 0.964722 0.90802 1.02991 0.90802 1.11965C0.90802 1.20934 0.93244 1.31942 0.981322 1.44976C1.46971 2.59939 2.00083 3.70812 2.57467 4.77611C3.14851 5.8441 3.64717 6.70439 4.07034 7.35622C4.4936 8.00852 4.92503 8.62415 5.36462 9.20282C5.80422 9.78171 6.0952 10.1527 6.23757 10.3157C6.38011 10.4789 6.49207 10.601 6.57346 10.6825L6.87877 10.976C7.07412 11.1717 7.361 11.4061 7.73953 11.6791C8.11814 11.9523 8.53729 12.2213 8.9972 12.4865C9.45719 12.7513 9.99233 12.9673 10.6029 13.1344C11.2134 13.3017 11.8076 13.3688 12.3856 13.3364L13.7898 13.3364C14.0746 13.3118 14.2903 13.2221 14.437 13.0673L14.4855 13.006C14.5182 12.9573 14.5488 12.8817 14.577 12.78C14.6056 12.6781 14.6198 12.5658 14.6198 12.4437C14.6114 12.0932 14.6381 11.7773 14.699 11.4961C14.7598 11.2149 14.8292 11.003 14.9068 10.8602C14.9843 10.7176 15.0718 10.5972 15.1692 10.4996C15.2668 10.4018 15.3363 10.3426 15.3771 10.3222C15.4177 10.3017 15.4501 10.2878 15.4745 10.2794C15.6698 10.2142 15.8997 10.2774 16.1645 10.4691C16.4291 10.6607 16.6773 10.8973 16.9095 11.1784C17.1415 11.4599 17.4202 11.7756 17.7458 12.1261C18.0715 12.4767 18.3563 12.7373 18.6004 12.9088L18.8445 13.0555C19.0076 13.1535 19.2192 13.2432 19.4798 13.3247C19.7398 13.4061 19.9677 13.4265 20.1633 13.3858L23.289 13.337C23.5982 13.337 23.8387 13.2857 24.0094 13.184C24.1803 13.0821 24.2819 12.9698 24.3147 12.8477C24.3473 12.7254 24.3491 12.5867 24.3209 12.4317C24.2919 12.277 24.2634 12.1689 24.235 12.1077Z" fill="white"/>
</svg>
