<svg width="20" height="21" viewBox="0 0 20 21" fill="none" xmlns="http://www.w3.org/2000/svg">
<path opacity="0.9" d="M9.92433 0.791993C4.54261 0.791992 0.164104 5.1705 0.164104 10.5522C0.164104 12.2327 0.598242 13.8851 1.42143 15.3432L0.179851 19.7736C0.139073 19.9191 0.178525 20.0752 0.283786 20.1835C0.364845 20.267 0.475078 20.3125 0.588462 20.3125C0.622443 20.3125 0.656757 20.3081 0.690241 20.3002L5.31408 19.1548C6.7259 19.9126 8.31608 20.3125 9.92433 20.3125C15.3061 20.3125 19.6846 15.9339 19.6846 10.5522C19.6846 5.1705 15.3061 0.791993 9.92433 0.791993ZM14.8341 13.9963C14.6254 14.5743 13.6239 15.1018 13.1427 15.1726C12.7107 15.2359 12.1641 15.2631 11.5641 15.0746C11.2004 14.9601 10.7336 14.8081 10.1357 14.5531C7.62219 13.4811 5.98079 10.9821 5.85514 10.8169C5.72999 10.652 4.83204 9.47558 4.83204 8.2582C4.83204 7.04066 5.47919 6.44192 5.70927 6.1941C5.93918 5.94628 6.21037 5.88429 6.37763 5.88429C6.54472 5.88429 6.71148 5.88644 6.85785 5.89324C7.01201 5.90086 7.21856 5.83505 7.42195 6.31793C7.63065 6.81356 8.13192 8.03111 8.19375 8.15543C8.25657 8.27942 8.29818 8.42413 8.21497 8.58907C8.13192 8.75417 8.09031 8.85728 7.96466 9.00199C7.83901 9.1467 7.70159 9.32457 7.58871 9.4358C7.46306 9.55929 7.33277 9.6929 7.47881 9.94072C7.62468 10.1885 8.12761 10.9986 8.87272 11.6547C9.82968 12.4975 10.6373 12.7589 10.8876 12.8829C11.1381 13.0067 11.2844 12.986 11.4303 12.8209C11.5763 12.6553 12.0567 12.0981 12.2235 11.8508C12.3903 11.6033 12.5575 11.6441 12.7874 11.7268C13.0175 11.8092 14.2495 12.4075 14.4998 12.5315C14.7501 12.6553 14.9173 12.7173 14.9802 12.8204C15.043 12.9232 15.043 13.4188 14.8341 13.9963Z" fill="white"/>
</svg>
