<svg width="58" height="56" viewBox="0 0 58 56" fill="none" xmlns="http://www.w3.org/2000/svg">
<path d="M29.0003 0.160004C28.5218 0.160457 28.0927 0.454535 27.9196 0.900863L20.767 19.3408L1.10142 20.3445C0.622011 20.3689 0.207402 20.6857 0.0578707 21.1415C-0.0916605 21.5973 0.0546988 22.098 0.426261 22.4016L15.7396 34.9215L10.7099 53.9188C10.5871 54.3818 10.7611 54.8726 11.1486 55.1544C11.5355 55.4363 12.0562 55.4512 12.459 55.192L29.0003 44.5753L45.5416 55.192C45.9445 55.4512 46.4651 55.4363 46.8521 55.1544C47.2395 54.8726 47.4135 54.3818 47.2907 53.9188L42.261 34.9215L57.5744 22.4016C57.9459 22.098 58.0923 21.5973 57.9427 21.1415C57.7932 20.6857 57.3786 20.3689 56.8992 20.3445L37.2336 19.3408L30.081 0.900863C29.9079 0.454535 29.4788 0.160457 29.0003 0.160004ZM29.0003 4.52586L35.3418 20.8791C35.5076 21.306 35.9086 21.5951 36.3659 21.6177L53.7772 22.5081L40.2151 33.5984C39.8631 33.8861 39.7117 34.3528 39.8277 34.7923L44.2842 51.6282L29.6279 42.2191C29.2455 41.973 28.7552 41.973 28.3727 42.2191L13.7164 51.6282L18.1729 34.7923C18.2889 34.3528 18.1376 33.8861 17.7855 33.5984L4.22345 22.5081L21.6348 21.6177C22.092 21.5951 22.493 21.306 22.6588 20.8791L29.0003 4.52586Z" fill="#3EA3F2"/>
</svg>
