<svg width="52" height="58" viewBox="0 0 52 58" fill="none" xmlns="http://www.w3.org/2000/svg">
<path d="M14.1825 0C13.6297 0.104219 13.2309 0.593594 13.24 1.16V2.32H3.85123C1.99342 2.32 0.47998 3.83344 0.47998 5.69125V49.88C0.47998 51.7877 1.99342 53.36 3.85123 53.36H15.56V51.04H3.85123C3.38904 51.04 2.79998 50.5234 2.79998 49.88V5.69125C2.79998 5.22906 3.38904 4.64 3.85123 4.64H13.24V6.96H5.11998V48.72H15.56V46.4H7.43998V9.28H13.24V10.44C13.24 11.0789 13.7611 11.6 14.4 11.6H30.64C31.2789 11.6 31.8 11.0789 31.8 10.44V9.28H37.6V16.24H39.92V6.96H31.8V4.64H41.1887C41.6509 4.64 42.24 5.22906 42.24 5.69125V16.24H44.56V5.69125C44.56 3.83344 43.0465 2.32 41.1887 2.32H31.8V1.16C31.8 0.521094 31.2789 0 30.64 0H14.4C14.3637 0 14.3275 0 14.2912 0C14.255 0 14.2187 0 14.1825 0ZM15.56 2.32H29.48V9.28H15.56V2.32ZM17.6625 17.4C17.1097 17.5042 16.7109 17.9936 16.72 18.56V56.84C16.72 57.4789 17.2411 58 17.88 58H50.36C50.9989 58 51.52 57.4789 51.52 56.84V18.56C51.52 17.9211 50.9989 17.4 50.36 17.4H17.88C17.8437 17.4 17.8075 17.4 17.7712 17.4C17.735 17.4 17.6987 17.4 17.6625 17.4ZM19.04 19.72H49.2V55.68H19.04V19.72ZM34.0112 28.275C33.975 28.2841 33.9387 28.2977 33.9025 28.3112C33.5083 28.3837 33.1775 28.6602 33.0325 29.0362L30.8575 34.7275L24.7675 35.0175C24.2872 35.0447 23.8748 35.3664 23.7298 35.8241C23.5848 36.2862 23.7389 36.7847 24.115 37.0837L28.8275 40.89L27.1962 46.7987C27.0784 47.2564 27.2551 47.7412 27.6358 48.0222C28.0209 48.2986 28.5329 48.3167 28.9362 48.0675L34.12 44.7687L39.3037 48.0675C39.707 48.3167 40.219 48.2986 40.6042 48.0222C40.9848 47.7412 41.1615 47.2564 41.0437 46.7987L39.4125 40.89L44.125 37.0837C44.5011 36.7847 44.6551 36.2862 44.5101 35.8241C44.3651 35.3664 43.9528 35.0447 43.4725 35.0175L37.3825 34.7275L35.2075 29.0362C35.0398 28.5786 34.6048 28.275 34.12 28.275C34.0837 28.275 34.0475 28.275 34.0112 28.275ZM34.12 32.7337L35.4612 36.25C35.6244 36.6941 36.0412 36.9977 36.5125 37.0112L40.3187 37.1925L37.3462 39.585C36.9883 39.8705 36.8342 40.3372 36.9475 40.7812L37.9625 44.4787L34.7362 42.4125C34.3601 42.1769 33.8798 42.1769 33.5037 42.4125L30.2775 44.4787L31.2925 40.7812C31.4058 40.3372 31.2517 39.8705 30.8937 39.585L27.9212 37.1925L31.7275 37.0112C32.1987 36.9977 32.6156 36.6941 32.7787 36.25L34.12 32.7337Z" fill="#3EA3F2"/>
</svg>
