<svg width="54" height="54" viewBox="0 0 54 54" fill="none" xmlns="http://www.w3.org/2000/svg">
<path d="M18.8798 0.320007C10.0104 0.320007 6.11982 6.2342 6.11982 10.9322C6.11982 14.5268 8.03201 17.2216 10.5401 18.8574C13.0481 20.4931 16.1312 21.2 18.8798 21.2C20.0657 21.2 21.3108 21.0514 22.5456 20.7605C25.1919 23.5522 29.2935 24.68 32.7998 24.68C35.5589 24.68 38.6474 23.9328 41.1532 22.249C43.659 20.5652 45.5598 17.8238 45.5598 14.1947C45.5598 11.3087 44.2743 8.64527 42.0277 6.77251C39.7811 4.89974 36.6047 3.80001 32.7998 3.80001C31.4327 3.80001 30.1867 3.94229 29.0457 4.19196C28.753 3.87749 28.4448 3.57345 28.1077 3.29251C25.8611 1.41974 22.6847 0.320007 18.8798 0.320007ZM18.8798 2.64001C22.2379 2.64001 24.8611 3.60607 26.6237 5.07555C26.9414 5.34063 27.2237 5.62565 27.4869 5.92063L27.4892 5.9229C27.5767 6.14312 27.7289 6.33116 27.9265 6.46212C28.8368 7.69507 29.3198 9.13782 29.3198 10.7147C29.3198 13.5667 27.9623 15.4843 25.9395 16.8432C23.9168 18.2021 21.2062 18.88 18.8798 18.88C16.5431 18.88 13.827 18.2334 11.8065 16.9157C9.78606 15.598 8.43982 13.7398 8.43982 10.9322C8.43982 7.45446 11.0013 2.64001 18.8798 2.64001ZM32.7998 6.12001C36.1579 6.12001 38.7811 7.08607 40.5437 8.55556C42.3064 10.025 43.2398 11.9816 43.2398 14.1947C43.2398 17.0467 41.8823 18.9643 39.8595 20.3232C37.8368 21.6821 35.1262 22.36 32.7998 22.36C30.2052 22.36 27.1983 21.5303 25.1103 19.9177C25.8475 19.5973 26.5621 19.2199 27.2332 18.769C29.739 17.0852 31.6398 14.3438 31.6398 10.7147C31.6398 9.13646 31.2429 7.63073 30.5274 6.2786C31.2302 6.17891 31.9824 6.12001 32.7998 6.12001ZM4.37982 18.88C2.27687 18.88 0.319824 20.2951 0.319824 22.36C0.319824 24.4249 2.27687 25.84 4.37982 25.84C6.48278 25.84 8.43982 24.4249 8.43982 22.36C8.43982 20.2951 6.48278 18.88 4.37982 18.88ZM49.6198 18.88C47.5169 18.88 45.5598 20.2951 45.5598 22.36C45.5598 24.4249 47.5169 25.84 49.6198 25.84C51.7228 25.84 53.6798 24.4249 53.6798 22.36C53.6798 20.2951 51.7228 18.88 49.6198 18.88ZM4.37982 21.2C5.48001 21.2 6.11982 21.8625 6.11982 22.36C6.11982 22.8575 5.48001 23.52 4.37982 23.52C3.27964 23.52 2.63982 22.8575 2.63982 22.36C2.63982 21.8625 3.27964 21.2 4.37982 21.2ZM49.6198 21.2C50.72 21.2 51.3598 21.8625 51.3598 22.36C51.3598 22.8575 50.72 23.52 49.6198 23.52C48.5196 23.52 47.8798 22.8575 47.8798 22.36C47.8798 21.8625 48.5196 21.2 49.6198 21.2ZM14.2761 25.84C11.7639 25.84 9.7276 26.4689 8.29482 27.6684C6.86204 28.8678 6.11982 30.6291 6.11982 32.51C6.11982 33.2386 6.28748 33.9799 6.44154 34.6148C6.51223 34.9057 6.52854 34.936 6.58428 35.1359C6.32554 35.5496 6.11982 36.1205 6.11982 36.86C6.11982 37.7785 6.36768 38.5669 6.89467 39.0939C7.13075 39.33 7.3854 39.2901 7.65139 39.393C7.80409 40.0101 7.95996 40.6382 8.23139 41.1466C8.41853 41.4973 8.61881 41.8127 8.83178 42.0868C8.88071 42.1498 8.97179 42.1974 9.01982 42.2567V44.0556C8.85987 44.4014 8.52954 44.7362 7.83943 45.1024C7.10401 45.492 6.09445 45.8641 5.04365 46.3507C3.99286 46.8374 2.8827 47.4464 1.97826 48.4192C1.07382 49.3921 0.426762 50.7492 0.32209 52.4498C0.302606 52.7688 0.415887 53.0819 0.635199 53.3148C0.854512 53.5477 1.15992 53.68 1.47982 53.68H52.5198C52.8397 53.68 53.1451 53.5477 53.3644 53.3148C53.5838 53.0819 53.697 52.7688 53.6776 52.4498C53.5706 50.7111 52.8094 49.3255 51.7835 48.3626C50.7576 47.3997 49.5147 46.8093 48.3239 46.3281C47.1331 45.8468 45.9771 45.4721 45.1316 45.0752C44.3332 44.7004 43.9639 44.3484 43.8198 44.0488V42.2545C43.8679 42.1951 43.9589 42.1475 44.0079 42.0845C44.2204 41.8109 44.4189 41.4973 44.606 41.1466C44.877 40.6382 45.0351 40.0097 45.1883 39.393C45.4542 39.2901 45.7089 39.33 45.945 39.0939C46.472 38.5669 46.7198 37.7785 46.7198 36.86C46.7198 36.1205 46.5141 35.5496 46.2554 35.1359C46.3111 34.936 46.3274 34.9057 46.3981 34.6148C46.5522 33.9799 46.7198 33.2386 46.7198 32.51C46.7198 31.2848 46.4054 29.9666 45.5847 28.8759C44.9001 27.9656 43.7509 27.3802 42.4083 27.1745L41.9529 26.4087C41.7441 26.0566 41.3652 25.8405 40.9561 25.84C38.4439 25.84 36.4076 26.4689 34.9748 27.6684C33.542 28.8678 32.7998 30.6291 32.7998 32.51C32.7998 33.2386 32.9675 33.9799 33.1215 34.6148C33.1922 34.9057 33.2085 34.936 33.2643 35.1359C33.0055 35.5496 32.7998 36.1205 32.7998 36.86C32.7998 37.7785 33.0477 38.5669 33.5747 39.0939C33.8107 39.33 34.0654 39.2901 34.3314 39.393C34.4841 40.0101 34.64 40.6382 34.9114 41.1466C35.0985 41.4973 35.2988 41.8127 35.5118 42.0868C35.5607 42.1498 35.6518 42.1974 35.6998 42.2567V44.0556C35.5399 44.4014 35.2095 44.7362 34.5194 45.1024C33.784 45.492 32.7744 45.8641 31.7237 46.3507C30.6729 46.8374 29.5627 47.4464 28.6583 48.4192C27.7538 49.3921 27.1068 50.7492 27.0021 52.4498C27.0007 52.4733 26.9998 52.4965 26.9998 52.52C26.9998 52.4965 26.9989 52.4733 26.9976 52.4498C26.8906 50.7111 26.1294 49.3255 25.1035 48.3626C24.0776 47.3997 22.8347 46.8093 21.6439 46.3281C20.4531 45.8468 19.2972 45.4721 18.4516 45.0752C17.6532 44.7004 17.2839 44.3484 17.1398 44.0488V42.2545C17.1879 42.1951 17.2789 42.1475 17.3279 42.0845C17.5404 41.8109 17.7389 41.4973 17.926 41.1466C18.197 40.6382 18.3551 40.0097 18.5083 39.393C18.7742 39.2901 19.0289 39.33 19.265 39.0939C19.792 38.5669 20.0398 37.7785 20.0398 36.86C20.0398 36.1205 19.8341 35.5496 19.5754 35.1359C19.6311 34.936 19.6474 34.9057 19.7181 34.6148C19.8722 33.9799 20.0398 33.2386 20.0398 32.51C20.0398 31.2848 19.7254 29.9666 18.9047 28.8759C18.2201 27.9656 17.0709 27.3802 15.7283 27.1745L15.2729 26.4087C15.0641 26.0566 14.6852 25.8405 14.2761 25.84ZM2.05982 28.16C1.09875 28.16 0.319824 28.9389 0.319824 29.9C0.319824 30.8611 1.09875 31.64 2.05982 31.64C3.0209 31.64 3.79982 30.8611 3.79982 29.9C3.79982 28.9389 3.0209 28.16 2.05982 28.16ZM51.9398 28.16C50.9787 28.16 50.1998 28.9389 50.1998 29.9C50.1998 30.8611 50.9787 31.64 51.9398 31.64C52.9009 31.64 53.6798 30.8611 53.6798 29.9C53.6798 28.9389 52.9009 28.16 51.9398 28.16ZM13.6644 28.2416L13.9679 28.7513C14.1768 29.1034 14.5557 29.3196 14.9648 29.32C16.0519 29.32 16.6151 29.6947 17.0492 30.2716C17.4833 30.8484 17.7198 31.7053 17.7198 32.51C17.7198 32.7964 17.5975 33.5051 17.4615 34.0665C17.3256 34.6279 17.1919 35.0679 17.1919 35.0679C17.0456 35.545 17.2205 36.0625 17.6269 36.3525C17.6419 36.3747 17.7198 36.4803 17.7198 36.86C17.7198 37.3915 17.6052 37.4731 17.6247 37.4536C17.6442 37.4341 17.6713 37.44 17.5748 37.44C16.983 37.44 16.4864 37.885 16.4216 38.4731C16.3736 38.9113 16.1466 39.5547 15.8801 40.0545C15.7469 40.3042 15.6037 40.5217 15.495 40.6617C15.3862 40.8018 15.2539 40.8575 15.4497 40.7569C15.0627 40.9558 14.8194 41.3546 14.8198 41.79V44.4C14.8203 44.5409 14.8466 44.681 14.8969 44.8124C15.3572 46.0195 16.408 46.6797 17.4638 47.1754C18.5196 47.6711 19.6891 48.04 20.7739 48.4781C21.8587 48.9163 22.8392 49.4206 23.5153 50.055C23.9095 50.4248 24.1841 50.858 24.3853 51.36H3.13146C3.31181 50.9141 3.37298 50.326 3.67748 49.9984C4.25748 49.3744 5.08307 48.8882 6.01787 48.4555C6.95267 48.0228 7.97854 47.6535 8.92693 47.1505C9.87532 46.6475 10.826 45.9597 11.2628 44.8124C11.3131 44.681 11.3394 44.5409 11.3398 44.4V41.79C11.3398 41.3541 11.0956 40.9554 10.7077 40.7569C10.9035 40.857 10.7712 40.8013 10.6624 40.6617C10.5537 40.5222 10.4127 40.3042 10.2795 40.0545C10.0131 39.5552 9.78561 38.9109 9.73803 38.4731C9.67323 37.885 9.17661 37.44 8.58482 37.44C8.48831 37.44 8.5155 37.4341 8.53498 37.4536C8.55446 37.4731 8.43982 37.3915 8.43982 36.86C8.43982 36.4803 8.51776 36.3747 8.53271 36.3525C8.93917 36.0625 9.11407 35.545 8.96771 35.0679C8.96771 35.0679 8.83404 34.6279 8.6981 34.0665C8.56217 33.5051 8.43982 32.7964 8.43982 32.51C8.43982 31.2009 8.87754 30.2072 9.78334 29.4492C10.5867 28.7767 11.9117 28.3444 13.6644 28.2416ZM40.3444 28.2416L40.6479 28.7513C40.8568 29.1034 41.2357 29.3196 41.6448 29.32C42.7319 29.32 43.2951 29.6947 43.7292 30.2716C44.1633 30.8484 44.3998 31.7053 44.3998 32.51C44.3998 32.7964 44.2775 33.5051 44.1415 34.0665C44.0056 34.6279 43.8719 35.0679 43.8719 35.0679C43.7256 35.545 43.9005 36.0625 44.3069 36.3525C44.3219 36.3747 44.3998 36.4803 44.3998 36.86C44.3998 37.3915 44.2852 37.4731 44.3047 37.4536C44.3242 37.4341 44.3513 37.44 44.2548 37.44C43.663 37.44 43.1664 37.885 43.1016 38.4731C43.0536 38.9113 42.8266 39.5547 42.5601 40.0545C42.4269 40.3042 42.2837 40.5217 42.175 40.6617C42.0662 40.8018 41.9339 40.8575 42.1297 40.7569C41.7427 40.9558 41.4994 41.3546 41.4998 41.79V44.4C41.5003 44.5409 41.5266 44.681 41.5769 44.8124C42.0372 46.0195 43.088 46.6797 44.1438 47.1754C45.1996 47.6711 46.3691 48.04 47.4539 48.4781C48.5387 48.9163 49.5192 49.4206 50.1953 50.055C50.5895 50.4248 50.8641 50.858 51.0653 51.36H29.8115C29.9918 50.9141 30.053 50.326 30.3575 49.9984C30.9375 49.3744 31.7631 48.8882 32.6979 48.4555C33.6327 48.0228 34.6585 47.6535 35.6069 47.1505C36.5553 46.6475 37.506 45.9597 37.9428 44.8124C37.9931 44.681 38.0194 44.5409 38.0198 44.4V41.79C38.0198 41.3541 37.7756 40.9554 37.3877 40.7569C37.5835 40.857 37.4512 40.8013 37.3424 40.6617C37.2337 40.5222 37.0927 40.3042 36.9595 40.0545C36.6931 39.5552 36.4656 38.9109 36.418 38.4731C36.3532 37.885 35.8566 37.44 35.2648 37.44C35.1683 37.44 35.1955 37.4341 35.215 37.4536C35.2345 37.4731 35.1198 37.3915 35.1198 36.86C35.1198 36.4803 35.1978 36.3747 35.2127 36.3525C35.6192 36.0625 35.7941 35.545 35.6477 35.0679C35.6477 35.0679 35.514 34.6279 35.3781 34.0665C35.2422 33.5051 35.1198 32.7964 35.1198 32.51C35.1198 31.2009 35.5575 30.2072 36.4633 29.4492C37.2667 28.7767 38.5917 28.3444 40.3444 28.2416Z" fill="#3EA3F2"/>
</svg>
