<svg width="12" height="19" viewBox="0 0 12 19" fill="none" xmlns="http://www.w3.org/2000/svg">
<path opacity="0.9" d="M10.7468 0.00321714L8.06825 -0.000732775C5.05902 -0.000732643 3.11431 1.83307 3.11431 4.67136L3.11432 6.82551L0.421173 6.82551C0.188454 6.82551 3.05964e-07 6.99891 3.15314e-07 7.21281L4.51742e-07 10.3339C4.61092e-07 10.5478 0.188669 10.721 0.421173 10.721L3.11432 10.721L3.11432 18.5966C3.11432 18.8105 3.30277 18.9837 3.53549 18.9837L7.04927 18.9837C7.28199 18.9837 7.47045 18.8103 7.47045 18.5966L7.47045 10.721L10.6194 10.721C10.8521 10.721 11.0405 10.5478 11.0405 10.3339L11.0418 7.21281C11.0418 7.11011 10.9973 7.01175 10.9185 6.93907C10.8396 6.86639 10.7322 6.82551 10.6204 6.82551L7.47044 6.82551L7.47044 4.99941C7.47044 4.12171 7.69801 3.67615 8.94197 3.67615L10.7464 3.67556C10.9789 3.67556 11.1673 3.50215 11.1673 3.28846L11.1673 0.39032C11.1673 0.176821 10.9791 0.00361213 10.7468 0.00321714Z" fill="#3E3F43"/>
</svg>
