<svg width="18" height="16" viewBox="0 0 18 16" fill="none" xmlns="http://www.w3.org/2000/svg">
<path opacity="0.9" d="M5.31818 -2.14329e-07C2.38503 -9.61198e-08 1.00511e-07 2.12003 2.2412e-07 4.72727L5.34441e-07 11.2727C6.5805e-07 13.88 2.38503 16 5.31818 16L12.6818 16C15.615 16 18 13.88 18 11.2727L18 4.72727C18 2.12003 15.615 -6.29303e-07 12.6818 -5.11093e-07L5.31818 -2.14329e-07ZM13.9091 2.90909C14.3591 2.90909 14.7273 3.23636 14.7273 3.63636C14.7273 4.03636 14.3591 4.36364 13.9091 4.36364C13.4591 4.36364 13.0909 4.03636 13.0909 3.63636C13.0909 3.23636 13.4591 2.90909 13.9091 2.90909ZM9 4C11.4831 4 13.5 5.79276 13.5 8C13.5 10.2072 11.4832 12 9 12C6.51685 12 4.5 10.2072 4.5 8C4.5 5.79276 6.51685 4 9 4ZM9 4.72727C6.97084 4.72727 5.31818 6.19631 5.31818 8C5.31818 9.80369 6.97085 11.2727 9 11.2727C11.0292 11.2727 12.6818 9.80369 12.6818 8C12.6818 6.19631 11.0292 4.72727 9 4.72727Z" fill="#3E3F43"/>
</svg>
