<svg width="21" height="15" viewBox="0 0 21 15" fill="none" xmlns="http://www.w3.org/2000/svg">
<path opacity="0.9" d="M20.5052 4.04977C20.3934 2.71172 19.5955 1.02438 17.956 0.964056C13.3777 0.656229 7.95383 0.572067 3.29261 0.964057C1.84649 1.12613 0.855207 2.8876 0.747169 4.22564C0.518522 7.03618 0.518522 8.6356 0.74717 11.4461C0.856473 12.7842 1.82265 14.5557 3.29514 14.7416C8.01162 15.0495 13.4091 15.0934 17.9585 14.7416C19.3858 14.4941 20.3972 12.7842 20.5065 11.4461C20.7338 8.63434 20.7338 6.8603 20.5052 4.04977ZM8.11211 11.4009L8.11211 4.19548L14.3941 7.79881L8.11211 11.4009Z" fill="#3E3F43"/>
</svg>
