<svg width="21" height="17" viewBox="0 0 21 17" fill="none" xmlns="http://www.w3.org/2000/svg">
<path opacity="0.9" d="M21.0004 2.52137C20.2576 2.85116 19.4614 3.07258 18.6244 3.17309C19.4787 2.66114 20.1351 1.85081 20.4429 0.886583C19.6452 1.35927 18.7579 1.70319 17.8172 1.8885C17.0634 1.08445 15.9893 0.583495 14.8005 0.583495C12.5171 0.583496 10.6656 2.43343 10.6656 4.7168C10.6656 5.0403 10.7033 5.35595 10.774 5.65904C7.33792 5.48629 4.29291 3.84051 2.25296 1.33886C1.89647 1.95132 1.69389 2.66114 1.69389 3.41807C1.69389 4.85185 2.42256 6.1176 3.53283 6.8604C2.85442 6.83841 2.21684 6.65153 1.65934 6.34216C1.65934 6.35944 1.65934 6.37671 1.65934 6.39399C1.65934 8.39782 3.08527 10.0672 4.97446 10.4488C4.62898 10.543 4.26307 10.5932 3.88618 10.5932C3.61921 10.5932 3.36009 10.5681 3.10726 10.5179C3.63491 12.1589 5.16134 13.3572 6.96888 13.3901C5.55551 14.4988 3.77311 15.1584 1.83523 15.1584C1.50073 15.1584 1.17252 15.1396 0.850587 15.1003C2.67854 16.275 4.85197 16.9581 7.18716 16.9581C14.7911 16.9581 18.9495 10.6592 18.9495 5.19734C18.9495 5.01831 18.9448 4.83772 18.9385 4.66183C19.7457 4.07921 20.4461 3.35055 21.0004 2.52137Z" fill="#3E3F43"/>
</svg>
