<svg width="12" height="20" viewBox="0 0 12 20" fill="none" xmlns="http://www.w3.org/2000/svg">
<path opacity="0.9" d="M10.8226 0.0952591L8.14412 0.0913089C5.13488 0.0913088 3.19018 1.92511 3.19018 4.7634L3.19018 6.91755L0.497039 6.91755C0.26432 6.91755 0.0758664 7.09096 0.0758664 7.30485L0.0758662 10.426C0.0758662 10.6399 0.264535 10.8131 0.497039 10.8131L3.19018 10.8131L3.19018 18.6886C3.19018 18.9025 3.37863 19.0757 3.61135 19.0757L7.12514 19.0757C7.35786 19.0757 7.54631 18.9023 7.54631 18.6886L7.54631 10.8131L10.6952 10.8131C10.9279 10.8131 11.1164 10.6399 11.1164 10.426L11.1177 7.30485C11.1177 7.20215 11.0732 7.10379 10.9943 7.03111C10.9155 6.95843 10.808 6.91755 10.6963 6.91755L7.54631 6.91755L7.54631 5.09145C7.54631 4.21376 7.77387 3.76819 9.01784 3.76819L10.8222 3.7676C11.0547 3.7676 11.2432 3.59419 11.2432 3.3805L11.2432 0.482362C11.2432 0.268863 11.0549 0.0956541 10.8226 0.0952591Z" fill="white"/>
</svg>
