<svg width="19" height="18" viewBox="0 0 19 18" fill="none" xmlns="http://www.w3.org/2000/svg">
<path opacity="0.9" d="M6.10515 2.28449e-07C3.22267 1.02452e-07 0.878845 2.34383 0.878845 5.2263L0.878845 12.4627C0.878845 15.3452 3.22267 17.689 6.10515 17.689L13.3416 17.689C16.224 17.689 18.5679 15.3452 18.5679 12.4627L18.5679 5.2263C18.5679 2.34383 16.224 6.7076e-07 13.3416 5.44763e-07L6.10515 2.28449e-07ZM14.5476 3.21619C14.9899 3.21619 15.3517 3.57801 15.3517 4.02023C15.3517 4.46246 14.9899 4.82428 14.5476 4.82428C14.1054 4.82428 13.7436 4.46246 13.7436 4.02023C13.7436 3.57801 14.1054 3.21619 14.5476 3.21619ZM9.72335 4.42226C12.1636 4.42226 14.1456 6.40426 14.1456 8.84451C14.1456 11.2848 12.1636 13.2668 9.72335 13.2668C7.2831 13.2668 5.3011 11.2848 5.3011 8.84451C5.3011 6.40426 7.28311 4.42226 9.72335 4.42226ZM9.72335 5.2263C7.72926 5.2263 6.10515 6.85041 6.10515 8.84451C6.10515 10.8386 7.72926 12.4627 9.72335 12.4627C11.7175 12.4627 13.3416 10.8386 13.3416 8.84451C13.3416 6.85041 11.7175 5.2263 9.72335 5.2263Z" fill="white"/>
</svg>
