<svg width="13" height="21" viewBox="0 0 13 21" fill="none" xmlns="http://www.w3.org/2000/svg">
<g opacity="0.9">
<path d="M5.62734 14.2478C4.04143 14.0853 2.6115 13.7015 1.38725 12.7607C1.23535 12.6436 1.07851 12.5308 0.939892 12.4001C0.404043 11.8944 0.350051 11.3153 0.77406 10.7184C1.13679 10.2077 1.7457 10.0711 2.37861 10.3643C2.50116 10.4212 2.61793 10.4921 2.72977 10.5683C5.01136 12.1087 8.14568 12.1512 10.4358 10.6376C10.6627 10.4666 10.9053 10.3273 11.1864 10.2561C11.7329 10.1182 12.2426 10.3155 12.536 10.7854C12.8711 11.322 12.8668 11.8458 12.4539 12.2624C11.8206 12.9011 11.0589 13.3632 10.2126 13.6857C9.41235 13.9906 8.53584 14.144 7.66832 14.2459C7.79923 14.3859 7.86094 14.4548 7.94278 14.5356C9.12075 15.6985 10.3039 16.8566 11.478 18.0231C11.878 18.4206 11.9615 18.9134 11.7413 19.3757C11.5005 19.881 10.9614 20.2134 10.4328 20.1778C10.098 20.1551 9.83679 19.9913 9.60475 19.7616C8.71581 18.8827 7.81016 18.02 6.93922 17.1244C6.68575 16.864 6.56384 16.9132 6.34016 17.1393C5.44587 18.044 4.537 18.9347 3.62278 19.8203C3.21227 20.218 2.72377 20.2896 2.2477 20.0624C1.74163 19.8214 1.41961 19.3138 1.44446 18.8037C1.4616 18.4587 1.63429 18.1951 1.87532 17.9587C3.04108 16.8149 4.20362 15.6682 5.36659 14.5226C5.44351 14.4463 5.51528 14.3655 5.62734 14.2478Z" fill="white"/>
<path d="M6.59347 10.2637C3.76424 10.2542 1.4443 7.94963 1.4608 5.16527C1.47709 2.35017 3.79853 0.0815863 6.6556 0.0893757C9.51846 0.0969546 11.8163 2.39817 11.802 5.24253C11.7874 8.02121 9.4514 10.2734 6.59347 10.2637ZM9.16473 5.172C9.1598 3.78951 8.03925 2.6889 6.63503 2.68764C5.21903 2.68616 4.08841 3.80677 4.09934 5.2019C4.10984 6.57913 5.24003 7.67195 6.6481 7.6669C8.05189 7.66206 9.16944 6.55429 9.16473 5.172Z" fill="white"/>
</g>
</svg>
