<svg width="21" height="18" viewBox="0 0 21 18" fill="none" xmlns="http://www.w3.org/2000/svg">
<path opacity="0.9" d="M20.4556 2.67616C19.7128 3.00594 18.9166 3.22737 18.0795 3.32788C18.9338 2.81593 19.5903 2.0056 19.8981 1.04137C19.1003 1.51406 18.213 1.85798 17.2724 2.04329C16.5186 1.23924 15.4444 0.738282 14.2556 0.738282C11.9722 0.738282 10.1207 2.58822 10.1207 4.87158C10.1207 5.19509 10.1584 5.51074 10.2291 5.81382C6.79306 5.64108 3.74805 3.9953 1.70809 1.49365C1.35161 2.1061 1.14903 2.81592 1.14903 3.57286C1.14903 5.00664 1.8777 6.27238 2.98797 7.01518C2.30956 6.9932 1.67198 6.80632 1.11448 6.49695C1.11448 6.51422 1.11448 6.5315 1.11448 6.54877C1.11448 8.55261 2.54041 10.2219 4.4296 10.6036C4.08411 10.6978 3.71821 10.748 3.34131 10.748C3.07435 10.748 2.81523 10.7229 2.56239 10.6727C3.09005 12.3137 4.61648 13.5119 6.42401 13.5449C5.01065 14.6536 3.22824 15.3132 1.29037 15.3132C0.955871 15.3132 0.627657 15.2943 0.305724 15.2551C2.13367 16.4297 4.30711 17.1129 6.6423 17.1129C14.2462 17.1129 18.4046 10.814 18.4046 5.35213C18.4046 5.1731 18.3999 4.9925 18.3936 4.81662C19.2008 4.234 19.9012 3.50533 20.4556 2.67616Z" fill="white"/>
</svg>
