<svg width="22" height="22" viewBox="0 0 22 22" fill="none" xmlns="http://www.w3.org/2000/svg">
<path d="M21.1584 17.0951C22.2805 18.2171 22.2805 20.0364 21.1584 21.1584C20.0364 22.2805 18.2171 22.2805 17.0951 21.1584L0.841554 4.90493C-0.280517 3.78286 -0.280518 1.96362 0.841553 0.841553C1.96362 -0.280518 3.78286 -0.280518 4.90493 0.841553L21.1584 17.0951Z" fill="#FC6868"/>
<path d="M4.90493 21.1584C3.78286 22.2805 1.96362 22.2805 0.841553 21.1584C-0.280518 20.0364 -0.280518 18.2171 0.841553 17.0951L17.0951 0.841555C18.2171 -0.280516 20.0364 -0.280516 21.1584 0.841555C22.2805 1.96363 22.2805 3.78286 21.1584 4.90493L4.90493 21.1584Z" fill="#FC6868"/>
</svg>
