<svg width="74" height="74" viewBox="0 0 74 74" fill="none" xmlns="http://www.w3.org/2000/svg">
<path d="M36.9998 0.200439C16.7088 0.200439 0.200195 16.7091 0.200195 37C0.200195 57.291 16.7088 73.7996 36.9998 73.7996C57.2907 73.7996 73.7993 57.291 73.7993 37C73.7993 29.6455 71.6226 22.792 67.8888 17.0323L66.461 18.4601L65.5504 19.3761C68.7293 24.5054 70.5989 30.5291 70.5989 37C70.5989 55.5291 55.5289 70.5991 36.9998 70.5991C18.4707 70.5991 3.40063 55.5291 3.40063 37C3.40063 18.4709 18.4707 3.40087 36.9998 3.40087C44.8608 3.40087 52.0698 6.14872 57.7972 10.6907V13.9397L53.9017 17.8351C49.392 13.8427 43.4814 11.4019 36.9998 11.4019C22.8834 11.4019 11.4017 22.8836 11.4017 37C11.4017 51.1164 22.8834 62.5981 36.9998 62.5981C51.1161 62.5981 62.5978 51.1164 62.5978 37C62.5978 31.6713 60.9599 26.7252 58.1636 22.6196L55.8467 24.9418C58.0827 28.4278 59.3974 32.5604 59.3974 37C59.3974 49.3545 49.3543 59.3976 36.9998 59.3976C24.6452 59.3976 14.6021 49.3545 14.6021 37C14.6021 24.6455 24.6452 14.6024 36.9998 14.6024C42.6032 14.6024 47.711 16.6821 51.6388 20.0981L45.9653 25.7716C43.503 23.7996 40.3942 22.5981 36.9998 22.5981C29.058 22.5981 22.5978 29.0582 22.5978 37C22.5978 44.9418 29.058 51.402 36.9998 51.402C44.9416 51.402 51.4017 44.9418 51.4017 37C51.4017 34.7802 50.8791 32.6897 49.9793 30.8093L47.5386 33.2446C47.9588 34.4192 48.2013 35.6854 48.2013 37C48.2013 43.1746 43.1743 48.2015 36.9998 48.2015C30.8252 48.2015 25.7983 43.1746 25.7983 37C25.7983 30.8254 30.8252 25.7985 36.9998 25.7985C39.5105 25.7985 41.822 26.639 43.6916 28.0453L37.8241 33.9127C37.5547 33.8373 37.2799 33.7996 36.9998 33.7996C35.2325 33.7996 33.7993 35.2328 33.7993 37C33.7993 38.7672 35.2325 40.2004 36.9998 40.2004C38.767 40.2004 40.2002 38.7672 40.2002 37C40.2002 36.7198 40.1625 36.4397 40.0924 36.1703L60.0601 16.2026H64.198L72.1991 8.20152H65.7983V1.80065L59.6021 7.99677C53.3575 3.1207 45.5181 0.200439 36.9998 0.200439Z" fill="#3EA3F2"/>
</svg>
