<svg width="82" height="54" viewBox="0 0 82 54" fill="none" xmlns="http://www.w3.org/2000/svg">
<path d="M17.7999 0.400146C17.2124 0.400146 16.3249 0.668897 15.6999 1.20015C15.0749 1.7314 14.5811 2.43765 13.8999 3.55015C13.3811 4.3939 12.5499 6.1939 11.2999 8.85015C10.0499 11.5064 8.49986 14.8251 6.99986 18.1001C3.99986 24.6439 1.14986 30.9501 1.14986 30.9501C0.868607 31.4251 0.849857 32.0064 1.09986 32.5001C1.11236 32.5314 1.13111 32.5689 1.14986 32.6001C1.23736 32.8939 1.33736 33.1502 1.49986 33.3501C1.79361 33.7064 2.11236 33.8751 2.34986 34.0001C2.83111 34.2564 3.16861 34.3626 3.39986 34.5001C3.86236 34.7814 4.19986 34.8439 4.19986 36.7001C4.19986 40.4376 5.26236 44.5751 8.14986 47.8001C11.0374 51.0252 15.7186 53.2001 22.4499 53.2001C27.9061 53.2001 31.9686 51.4189 34.4499 48.2001C36.9311 44.9814 37.7999 40.5939 37.7999 35.6001V31.7001C38.3624 31.3439 39.3561 30.8001 40.9999 30.8001C42.6436 30.8001 43.6374 31.3439 44.1999 31.7001V35.6001C44.1999 40.5939 45.0686 44.9814 47.5499 48.2001C50.0311 51.4189 54.0936 53.2001 59.5499 53.2001C66.2811 53.2001 70.9624 51.0502 73.8499 47.8502C76.7374 44.6502 77.7999 40.5626 77.7999 36.9002C77.7999 34.9501 78.1624 34.8501 78.5999 34.6001C78.8186 34.4751 79.1186 34.3876 79.5999 34.1502C79.8436 34.0314 80.1374 33.8564 80.4499 33.5001C80.6874 33.2251 80.8686 32.8377 80.9499 32.4501C81.1686 31.9626 81.1311 31.4001 80.8499 30.9501C80.8499 30.9501 77.9999 24.6439 74.9999 18.1001C73.4999 14.8251 71.9499 11.5064 70.6999 8.85015C69.4499 6.1939 68.6186 4.3939 68.0999 3.55015C67.4186 2.43765 66.9249 1.7314 66.2999 1.20015C65.6749 0.668897 64.7874 0.400146 64.1999 0.400146C63.4811 0.400146 62.6749 0.737647 62.0999 1.25015C61.5249 1.76265 61.0499 2.4564 60.4499 3.40015C59.5061 4.97515 58.8499 5.90015 58.8499 5.90015C58.3499 6.6439 58.5561 7.65015 59.2999 8.15015C60.0436 8.65015 61.0499 8.4439 61.5499 7.70015C61.5499 7.70015 62.1936 6.68765 63.1499 5.10015C63.1624 5.07515 63.1374 5.07515 63.1499 5.05015C63.6311 4.2939 64.0124 3.8814 64.1999 3.70015C64.3811 3.8564 64.8124 4.30015 65.3999 5.25015C65.5186 5.4439 66.6061 7.56265 67.8499 10.2001C69.0936 12.8376 70.5999 16.1814 72.0999 19.4501C74.3124 24.2689 75.4311 26.7814 76.3999 28.9001C75.9436 28.8001 75.5374 28.6939 74.9999 28.6001C71.6124 28.0126 66.5061 27.6001 59.2499 27.6001C54.5436 27.6001 49.7561 28.6564 46.0999 29.1501C45.3499 28.6251 43.7186 27.6001 40.9999 27.6001C38.2811 27.6001 36.6499 28.6251 35.8999 29.1501C32.2436 28.6564 27.4561 27.6001 22.7499 27.6001C15.4936 27.6001 10.3811 27.9876 6.99986 28.5501C6.46236 28.6376 6.04986 28.7501 5.59986 28.8501C6.57486 26.7189 7.69986 24.2501 9.89986 19.4501C11.3999 16.1814 12.9061 12.8376 14.1499 10.2001C15.3936 7.56265 16.4811 5.4439 16.5999 5.25015V5.20015C17.1686 4.28765 17.6249 3.8564 17.7999 3.70015C17.9874 3.8814 18.3686 4.2939 18.8499 5.05015C18.8624 5.07515 18.8374 5.07515 18.8499 5.10015C19.8061 6.68765 20.4499 7.70015 20.4499 7.70015C20.9499 8.4439 21.9561 8.65015 22.6999 8.15015C23.4436 7.65015 23.6499 6.6439 23.1499 5.90015C23.1499 5.90015 22.4936 4.97515 21.5499 3.40015C20.9499 2.4564 20.4749 1.76265 19.8999 1.25015C19.3249 0.737647 18.5186 0.400146 17.7999 0.400146ZM22.7499 30.8001C26.6686 30.8001 30.8874 31.7126 34.5999 32.2501V35.6001C34.5999 40.2064 33.7374 43.8189 31.8999 46.2001C30.0624 48.5814 27.2374 50.0001 22.4499 50.0001C16.3811 50.0001 12.7311 48.1439 10.4999 45.6502C8.26861 43.1564 7.39986 39.8439 7.39986 36.7001C7.39986 34.4251 6.43736 33.0189 5.44986 32.2001C6.05611 32.0314 6.54986 31.8689 7.54986 31.7001C10.6499 31.1814 15.6061 30.8001 22.7499 30.8001ZM59.2499 30.8001C66.3936 30.8001 71.3561 31.2189 74.4499 31.7501C75.4874 31.9314 75.9936 32.1126 76.5999 32.3001C75.5811 33.1064 74.5999 34.5501 74.5999 36.9002C74.5999 39.9564 73.7311 43.2252 71.4999 45.7001C69.2686 48.1751 65.6186 50.0001 59.5499 50.0001C54.7624 50.0001 51.9374 48.5814 50.0999 46.2001C48.2624 43.8189 47.3999 40.2064 47.3999 35.6001V32.2501C51.1124 31.7126 55.3311 30.8001 59.2499 30.8001Z" fill="#3EA3F2"/>
</svg>
