<svg width="80" height="77" viewBox="0 0 80 77" fill="none" xmlns="http://www.w3.org/2000/svg">
<path d="M40.0004 0.600098C39.3404 0.600723 38.7486 1.00635 38.5098 1.62197L28.6442 27.0563L1.5192 28.4407C0.857946 28.4745 0.286071 28.9114 0.0798217 29.5401C-0.126428 30.1688 0.0754466 30.8595 0.587946 31.2782L21.7098 48.547L14.7723 74.7501C14.6029 75.3889 14.8429 76.0657 15.3773 76.4545C15.9111 76.8432 16.6292 76.8639 17.1848 76.5064L40.0004 61.8626L62.816 76.5064C63.3717 76.8639 64.0898 76.8432 64.6235 76.4545C65.1579 76.0657 65.3979 75.3889 65.2285 74.7501L58.291 48.547L79.4129 31.2782C79.9254 30.8595 80.1273 30.1688 79.921 29.5401C79.7148 28.9114 79.1429 28.4745 78.4817 28.4407L51.3567 27.0563L41.4911 1.62197C41.2523 1.00635 40.6604 0.600723 40.0004 0.600098ZM40.0004 6.62197L48.7473 29.1782C48.976 29.767 49.5292 30.1657 50.1598 30.197L74.1754 31.4251L55.4692 46.722C54.9835 47.1189 54.7748 47.7626 54.9348 48.3689L61.0817 71.5907L40.8661 58.6126C40.3386 58.2732 39.6623 58.2732 39.1348 58.6126L18.9192 71.5907L25.0661 48.3689C25.2261 47.7626 25.0173 47.1189 24.5317 46.722L5.82544 31.4251L29.8411 30.197C30.4717 30.1657 31.0248 29.767 31.2536 29.1782L40.0004 6.62197Z" fill="#3EA3F2"/>
</svg>
