<svg width="81" height="82" viewBox="0 0 81 82" fill="none" xmlns="http://www.w3.org/2000/svg">
<path d="M39.5499 0.799895C36.4624 0.774895 32.9124 2.14989 30.6999 5.74989C28.6811 8.94989 28.0124 13.1999 29.1999 17.0499C29.1374 17.1624 28.9936 17.2436 28.9499 17.3499C28.7936 17.7374 28.7499 18.1124 28.6999 18.5999C28.4749 20.8436 29.3561 22.9811 30.3999 24.4499C30.4186 24.4811 30.4311 24.4686 30.4499 24.4999C30.8686 25.0936 31.2186 25.1874 31.5999 25.3999C31.7624 26.0936 32.4061 27.9936 34.1499 30.2499C34.2124 30.6436 34.1249 30.8811 33.8999 31.1499C33.6999 31.3874 33.5249 31.4499 33.4499 31.4999C30.2249 32.1061 27.1249 33.2249 24.5999 34.6499C22.3249 35.9374 20.4749 37.4811 19.4499 39.3999H5.79986C3.16861 39.3999 0.999861 41.5686 0.999861 44.1999V46.8999C0.824861 47.4686 0.981111 48.0811 1.39986 48.4999L7.59986 59.3999C7.88736 59.8999 8.42486 60.2061 8.99986 60.1999H16.0999L19.2499 79.6499C19.2936 80.2499 19.6749 80.7749 20.2311 81.0061C20.7874 81.2374 21.4311 81.1374 21.8874 80.7436C22.3436 80.3499 22.5436 79.7374 22.3999 79.1499L19.0999 58.5999C19.0999 58.5686 19.0999 58.5311 19.0999 58.4999V58.3999C19.0874 58.2436 19.0561 58.0936 18.9999 57.9499L18.5999 55.3999H63.3999L59.5999 79.1499C59.4561 79.7374 59.6561 80.3499 60.1124 80.7436C60.5686 81.1374 61.2124 81.2374 61.7686 81.0061C62.3249 80.7749 62.7061 80.2499 62.7499 79.6499L65.8999 60.1999H72.9999C73.5749 60.2061 74.1124 59.8999 74.3999 59.3999L80.7999 48.1999C80.9374 47.9561 81.0061 47.6811 80.9999 47.3999V44.1999C80.9999 41.6561 78.9624 39.5874 76.4499 39.4499C76.3749 37.7061 76.1311 36.1686 75.4499 34.7999C74.8249 33.5436 73.8874 32.4749 72.6499 31.5499C72.8686 31.0061 72.9999 30.4186 72.9999 29.7999C72.9999 27.1686 70.8311 24.9999 68.1999 24.9999C65.5686 24.9999 63.3999 27.1686 63.3999 29.7999C63.3999 32.4311 65.5686 34.5999 68.1999 34.5999C69.0311 34.5999 69.8124 34.3749 70.4999 33.9999C71.5186 34.7311 72.1374 35.4311 72.5499 36.2499C72.9499 37.0436 73.1624 38.0561 73.2499 39.3999H62.4999C61.4686 37.5624 59.6374 36.0874 57.4499 34.8499C54.8749 33.3874 51.7311 32.2686 48.3999 31.5999C48.3999 31.5999 48.3561 31.5999 48.3499 31.5999C48.2999 31.5811 48.0749 31.4686 47.9499 31.3499C47.8811 31.2874 47.8561 31.2749 47.8499 31.2499C47.8436 31.2249 47.8436 31.1124 48.0499 30.6999C48.8249 29.6499 49.4874 28.5686 49.9499 27.6499C50.3311 26.8811 50.5311 26.3249 50.6999 25.7499C51.3249 25.2624 53.3186 23.5624 53.4999 20.4499C53.5874 18.9624 53.4624 18.0686 53.1999 17.3499C53.1624 17.2561 53.0936 17.1874 53.0499 17.0999C53.5374 15.0624 53.7686 12.1436 52.9999 9.19989C52.5686 7.54364 51.7874 5.91864 50.3999 4.74989C49.2561 3.78114 47.6436 3.39364 45.8499 3.44989C45.2999 2.72489 44.5999 2.11864 43.7499 1.69989C42.5374 1.10614 41.0936 0.812395 39.5499 0.799895ZM39.5499 3.99989C40.6249 4.00614 41.6249 4.24364 42.3499 4.59989C43.0749 4.95614 43.4311 5.43114 43.4999 5.59989C43.7749 6.30614 44.5061 6.7249 45.2499 6.5999C46.8124 6.33739 47.6686 6.6249 48.3499 7.19989C49.0311 7.77489 49.5749 8.80614 49.8999 10.0499C50.5561 12.5436 50.1811 15.9436 49.8499 16.9999C49.6811 17.5436 49.8186 18.1311 50.1999 18.5499C50.2249 18.6436 50.3686 19.0874 50.2999 20.2499C50.1936 22.0749 48.3499 23.5499 48.3499 23.5499C48.0311 23.7936 47.8186 24.1499 47.7499 24.5499C47.7311 24.6311 47.4686 25.3624 47.0499 26.1999C46.6311 27.0374 46.0749 28.0561 45.3499 28.9999C45.2749 29.0749 45.2061 29.1624 45.1499 29.2499C44.7186 30.1186 44.5561 30.9874 44.6999 31.7999C44.8436 32.6124 45.2999 33.2811 45.7499 33.6999C46.6499 34.5311 47.6499 34.6999 47.6499 34.6999C47.6811 34.7186 47.7186 34.7374 47.7499 34.7499C50.7999 35.3624 53.6874 36.3936 55.8999 37.6499C56.8686 38.1999 57.6436 38.8124 58.2999 39.3999H23.4499C24.1624 38.7186 25.0999 38.0249 26.1999 37.3999C28.4499 36.1249 31.3749 35.1311 34.3999 34.5999C34.5749 34.5624 34.7436 34.4936 34.8999 34.3999C34.8999 34.3999 35.6311 33.9874 36.2999 33.1999C36.9686 32.4124 37.6686 31.0436 37.2999 29.4499C37.2311 29.1874 37.0936 28.9436 36.8999 28.7499C34.9561 26.5249 34.5999 24.2499 34.5999 24.2499C34.4999 23.7436 34.1686 23.3186 33.6999 23.0999C33.3811 22.9374 33.0061 22.5811 33.0499 22.6499C33.0311 22.6499 33.0186 22.6499 32.9999 22.6499C32.4499 21.8811 31.7561 19.8374 31.8499 18.8999C31.8624 18.7811 31.8874 18.8186 31.8999 18.7499C31.9936 18.6811 32.0624 18.7061 32.1499 18.5999C32.4936 18.1874 32.4999 17.7374 32.4999 17.4999C32.5124 17.2811 32.4749 17.0561 32.3999 16.8499C31.1936 13.9061 31.7624 10.0499 33.3999 7.44989C35.0249 4.8124 37.3936 3.98114 39.5499 3.99989ZM31.5499 18.8999C31.4936 18.9499 31.5249 19.0061 31.4499 19.0499C31.3374 19.1124 31.2374 19.1311 31.1499 19.1499C31.2186 19.1374 31.4124 18.9624 31.5499 18.8999ZM68.1999 28.1999C69.0999 28.1999 69.7999 28.8999 69.7999 29.7999C69.7999 30.1874 69.6624 30.5249 69.4499 30.7999C69.3374 30.8874 69.2374 30.9874 69.1499 31.0999C68.8874 31.2874 68.5561 31.3999 68.1999 31.3999C67.2999 31.3999 66.5999 30.6999 66.5999 29.7999C66.5999 28.8999 67.2999 28.1999 68.1999 28.1999ZM5.79986 42.5999H61.0999C61.4061 42.6936 61.7436 42.6936 62.0499 42.5999H76.1999C77.0874 42.5999 77.7999 43.3124 77.7999 44.1999V45.7999H4.19986V44.1999C4.19986 43.3124 4.91236 42.5999 5.79986 42.5999ZM5.34986 48.9999H76.6499L72.0499 56.9999H66.3999L66.5999 55.7999C66.9249 53.8436 65.4186 52.1999 63.5499 52.1999H18.4499C16.5999 52.1999 15.0999 54.0124 15.3999 55.7999L15.5999 56.9999H9.94986L5.34986 48.9999Z" fill="#3EA3F2"/>
</svg>
