<svg width="10" height="14" viewBox="0 0 10 14" fill="none" xmlns="http://www.w3.org/2000/svg">
<path d="M2.1998 0.562012C1.42991 0.562012 0.799805 1.19212 0.799805 1.96201V12.042C0.799805 12.8119 1.42991 13.442 2.1998 13.442H7.7998C8.56969 13.442 9.1998 12.8119 9.1998 12.042V1.96201C9.1998 1.19212 8.56969 0.562012 7.7998 0.562012H2.1998ZM2.82051 1.12201H7.1791C7.11282 1.23609 7.06349 1.36165 7.04074 1.49771L6.95598 2.00795C6.95598 2.00817 6.95598 2.00828 6.95598 2.0085C6.93334 2.14521 6.81871 2.24201 6.6798 2.24201H3.3198C3.1809 2.24201 3.06649 2.14489 3.04363 2.00795L2.95832 1.49826V1.49771C2.93557 1.36154 2.88668 1.23598 2.82051 1.12201ZM2.01168 1.14443C2.01529 1.14575 2.0189 1.14706 2.02262 1.14826C2.2184 1.2105 2.37043 1.37675 2.40598 1.59014L2.49129 2.10037C2.55855 2.50331 2.91107 2.80201 3.3198 2.80201H6.6798C7.08843 2.80201 7.44116 2.50331 7.50832 2.10037V2.09982L7.59309 1.59014C7.62962 1.37193 7.78843 1.2035 7.99012 1.14498C8.36385 1.23051 8.6398 1.56071 8.6398 1.96201V12.042C8.6398 12.5092 8.26694 12.882 7.7998 12.882H2.1998C1.73266 12.882 1.3598 12.5092 1.3598 12.042V1.96201C1.3598 1.55984 1.63685 1.2292 2.01168 1.14443ZM4.1598 1.40201C4.05885 1.40059 3.9649 1.45364 3.91404 1.54081C3.86307 1.62809 3.86307 1.73593 3.91404 1.82321C3.9649 1.91039 4.05885 1.96343 4.1598 1.96201H4.9998C5.10076 1.96343 5.19471 1.91039 5.24557 1.82321C5.29654 1.73593 5.29654 1.62809 5.24557 1.54081C5.19471 1.45364 5.10076 1.40059 4.9998 1.40201H4.1598ZM5.8398 1.40201C5.68515 1.40201 5.5598 1.52736 5.5598 1.68201C5.5598 1.83667 5.68515 1.96201 5.8398 1.96201C5.99446 1.96201 6.1198 1.83667 6.1198 1.68201C6.1198 1.52736 5.99446 1.40201 5.8398 1.40201Z" fill="#3E3F43"/>
</svg>
