<svg width="22" height="22" viewBox="0 0 22 22" fill="none" xmlns="http://www.w3.org/2000/svg">
<path d="M4.89005 1.00449C4.55146 0.976994 4.17505 1.07496 3.82786 1.31903C3.52192 1.53215 2.86192 2.05637 2.24489 2.64934C1.93724 2.94496 1.64333 3.25262 1.41646 3.55512C1.18786 3.85762 0.988487 4.13434 1.00052 4.53653C1.01255 4.89746 1.04864 5.96481 1.81692 7.60106C2.58521 9.23559 4.07536 11.4786 6.98177 14.3867C9.88989 17.2948 12.1329 18.785 13.7674 19.5532C15.4019 20.3215 16.471 20.3576 16.8319 20.3697C17.2324 20.3817 17.5091 20.1823 17.8116 19.9537C18.1141 19.7251 18.4218 19.4329 18.7174 19.1253C19.3086 18.5082 19.8329 17.8482 20.046 17.5423C20.5324 16.8497 20.4516 16.0315 19.9102 15.6517C19.5699 15.4128 16.4401 13.3297 15.9691 13.0409C15.4913 12.7487 14.9413 12.8811 14.4497 13.1406C14.063 13.3451 13.0163 13.945 12.7172 14.1168C12.4921 13.9742 11.6379 13.4053 9.80052 11.5679C7.96146 9.73059 7.39427 8.87637 7.25161 8.65121C7.42349 8.35215 8.02161 7.31059 8.22786 6.91699C8.48567 6.42715 8.63005 5.87199 8.32239 5.39074C8.19349 5.18621 7.60739 4.29418 7.01614 3.39871C6.42317 2.50324 5.86114 1.65418 5.71505 1.45137V1.44965C5.52427 1.18668 5.22692 1.03199 4.89005 1.00449ZM4.80927 1.9034C4.92958 1.91887 5.00177 1.96699 5.00177 1.96699C5.07224 2.06496 5.68927 2.98965 6.28052 3.8834C6.87177 4.77887 7.47505 5.69668 7.57989 5.8634C7.59708 5.88918 7.62114 6.18137 7.44927 6.50621V6.50793C7.25505 6.87746 6.34927 8.46043 6.34927 8.46043L6.2238 8.68215L6.35271 8.90215C6.35271 8.90215 7.02817 10.0417 9.17661 12.1901C11.3268 14.3386 12.4663 15.0157 12.4663 15.0157L12.6863 15.1447L12.908 15.0192C12.908 15.0192 14.4875 14.1151 14.8605 13.9192C15.1854 13.749 15.4775 13.7714 15.5119 13.792C15.8161 13.9793 19.1969 16.2257 19.4049 16.3718C19.4118 16.377 19.5957 16.6554 19.3275 17.037H19.3258C19.1643 17.269 18.6349 17.9411 18.0832 18.5151C17.8065 18.8022 17.5229 19.0703 17.2822 19.2507C17.0416 19.4312 16.8268 19.4879 16.8611 19.4897C16.4865 19.4776 15.6597 19.469 14.1421 18.7557C12.6244 18.0442 10.4588 16.6193 7.60396 13.7628C4.75083 10.9097 3.32599 8.74403 2.61271 7.22465C1.90114 5.70699 1.89255 4.88028 1.88052 4.50731C1.88224 4.54168 1.93896 4.32512 2.11942 4.08449C2.29989 3.84387 2.5663 3.55856 2.85333 3.28184C3.42911 2.73012 4.09942 2.20074 4.33146 2.03918V2.0409C4.52224 1.90684 4.68896 1.88965 4.80927 1.9034Z" fill="#3EA3F2"/>
<path d="M4.80927 1.9034C4.92958 1.91887 5.00177 1.96699 5.00177 1.96699C5.07224 2.06496 5.68927 2.98965 6.28052 3.8834C6.87177 4.77887 7.47505 5.69668 7.57989 5.8634C7.59708 5.88918 7.62114 6.18137 7.44927 6.50621V6.50793C7.25505 6.87746 6.34927 8.46043 6.34927 8.46043L6.2238 8.68215L6.35271 8.90215C6.35271 8.90215 7.02817 10.0417 9.17661 12.1901C11.3268 14.3386 12.4663 15.0157 12.4663 15.0157L12.6863 15.1447L12.908 15.0192C12.908 15.0192 14.4875 14.1151 14.8605 13.9192C15.1854 13.749 15.4775 13.7714 15.5119 13.792C15.8161 13.9793 19.1969 16.2257 19.4049 16.3718C19.4118 16.377 19.5957 16.6554 19.3275 17.037H19.3258C19.1643 17.269 18.6349 17.9411 18.0832 18.5151C17.8065 18.8022 17.5229 19.0703 17.2822 19.2507C17.0416 19.4312 16.8268 19.4879 16.8611 19.4897C16.4865 19.4776 15.6597 19.469 14.1421 18.7557C12.6244 18.0442 10.4588 16.6193 7.60396 13.7628C4.75083 10.9097 3.32599 8.74403 2.61271 7.22465C1.90114 5.70699 1.89255 4.88028 1.88052 4.50731C1.88224 4.54168 1.93896 4.32512 2.11942 4.08449C2.29989 3.84387 2.5663 3.55856 2.85333 3.28184C3.42911 2.73012 4.09942 2.20074 4.33146 2.03918V2.0409C4.52224 1.90684 4.68896 1.88965 4.80927 1.9034Z" fill="#3EA3F2"/>
</svg>
