<svg width="36" height="36" viewBox="0 0 36 36" fill="none" xmlns="http://www.w3.org/2000/svg">
<path fill-rule="evenodd" clip-rule="evenodd" d="M34.9615 18C34.9615 27.3676 27.3676 34.9615 18 34.9615C8.6324 34.9615 1.03846 27.3676 1.03846 18C1.03846 8.6324 8.6324 1.03846 18 1.03846C27.3676 1.03846 34.9615 8.6324 34.9615 18ZM36 18C36 27.9411 27.9411 36 18 36C8.05887 36 -1.22135e-06 27.9411 -7.86805e-07 18C-3.52265e-07 8.05887 8.05887 3.52265e-07 18 7.86805e-07C27.9411 1.22135e-06 36 8.05888 36 18Z" fill="#3E3F43"/>
<path d="M10.3636 24.3707C10.1608 24.1679 10.1608 23.8392 10.3636 23.6364L18 16L25.6364 23.6364C25.8392 23.8392 25.8392 24.1679 25.6364 24.3707C25.4336 24.5735 25.1049 24.5735 24.9021 24.3707L18 17.4686L11.0979 24.3707C10.8951 24.5735 10.5664 24.5735 10.3636 24.3707Z" fill="#3E3F43"/>
<path d="M10.3636 19.4021C10.1608 19.1993 10.1608 18.8705 10.3636 18.6678L18 11.0314L25.6364 18.6678C25.8392 18.8705 25.8392 19.1993 25.6364 19.4021C25.4336 19.6049 25.1049 19.6049 24.9021 19.4021L18 12.5L11.0979 19.4021C10.8951 19.6049 10.5664 19.6049 10.3636 19.4021Z" fill="#3E3F43"/>
</svg>
