<svg width="125" height="38" viewBox="0 0 125 38" fill="none" xmlns="http://www.w3.org/2000/svg">
<path d="M66.1958 18.132C64.6705 18.132 63.2918 17.7947 62.0598 17.12C60.8425 16.4454 59.8818 15.514 59.1778 14.326C58.4885 13.1234 58.1438 11.7814 58.1438 10.3C58.1438 8.81869 58.4885 7.48403 59.1778 6.29603C59.8818 5.09336 60.8498 4.15469 62.0818 3.48003C63.3138 2.80536 64.6925 2.46803 66.2178 2.46803C67.3618 2.46803 68.4178 2.65869 69.3858 3.04003C70.3538 3.42136 71.1751 3.97869 71.8498 4.71203L70.8158 5.74603C69.6131 4.52869 68.0951 3.92003 66.2618 3.92003C65.0445 3.92003 63.9371 4.19869 62.9398 4.75603C61.9425 5.31336 61.1578 6.07603 60.5858 7.04403C60.0285 8.01203 59.7498 9.09736 59.7498 10.3C59.7498 11.5027 60.0285 12.588 60.5858 13.556C61.1578 14.524 61.9425 15.2867 62.9398 15.844C63.9371 16.4014 65.0445 16.68 66.2618 16.68C68.1098 16.68 69.6278 16.064 70.8158 14.832L71.8498 15.866C71.1751 16.5994 70.3465 17.164 69.3638 17.56C68.3958 17.9414 67.3398 18.132 66.1958 18.132Z" fill="#3E3F43"/>
<path d="M74.9903 1.67603H76.5523V18H74.9903V1.67603Z" fill="#3E3F43"/>
<path d="M90.9745 12.698H81.2945C81.3825 13.9007 81.8445 14.876 82.6805 15.624C83.5165 16.3574 84.5725 16.724 85.8485 16.724C86.5672 16.724 87.2272 16.5994 87.8285 16.35C88.4298 16.086 88.9505 15.7047 89.3905 15.206L90.2705 16.218C89.7572 16.834 89.1118 17.3034 88.3345 17.626C87.5718 17.9487 86.7285 18.11 85.8045 18.11C84.6165 18.11 83.5605 17.8607 82.6365 17.362C81.7272 16.8487 81.0158 16.1447 80.5025 15.25C79.9892 14.3554 79.7325 13.3434 79.7325 12.214C79.7325 11.0847 79.9745 10.0727 80.4585 9.17803C80.9572 8.28336 81.6318 7.58669 82.4825 7.08803C83.3478 6.58936 84.3158 6.34003 85.3865 6.34003C86.4572 6.34003 87.4178 6.58936 88.2685 7.08803C89.1192 7.58669 89.7865 8.28336 90.2705 9.17803C90.7545 10.058 90.9965 11.07 90.9965 12.214L90.9745 12.698ZM85.3865 7.68203C84.2718 7.68203 83.3332 8.04136 82.5705 8.76003C81.8225 9.46403 81.3972 10.388 81.2945 11.532H89.5005C89.3978 10.388 88.9652 9.46403 88.2025 8.76003C87.4545 8.04136 86.5158 7.68203 85.3865 7.68203Z" fill="#3E3F43"/>
<path d="M103.685 6.42803L98.537 18H96.931L91.805 6.42803H93.433L97.767 16.284L102.145 6.42803H103.685Z" fill="#3E3F43"/>
<path d="M115.639 12.698H105.959C106.047 13.9007 106.509 14.876 107.345 15.624C108.181 16.3574 109.237 16.724 110.513 16.724C111.231 16.724 111.891 16.5994 112.493 16.35C113.094 16.086 113.615 15.7047 114.055 15.206L114.935 16.218C114.421 16.834 113.776 17.3034 112.999 17.626C112.236 17.9487 111.393 18.11 110.469 18.11C109.281 18.11 108.225 17.8607 107.301 17.362C106.391 16.8487 105.68 16.1447 105.167 15.25C104.653 14.3554 104.397 13.3434 104.397 12.214C104.397 11.0847 104.639 10.0727 105.123 9.17803C105.621 8.28336 106.296 7.58669 107.147 7.08803C108.012 6.58936 108.98 6.34003 110.051 6.34003C111.121 6.34003 112.082 6.58936 112.933 7.08803C113.783 7.58669 114.451 8.28336 114.935 9.17803C115.419 10.058 115.661 11.07 115.661 12.214L115.639 12.698ZM110.051 7.68203C108.936 7.68203 107.997 8.04136 107.235 8.76003C106.487 9.46403 106.061 10.388 105.959 11.532H114.165C114.062 10.388 113.629 9.46403 112.867 8.76003C112.119 8.04136 111.18 7.68203 110.051 7.68203Z" fill="#3E3F43"/>
<path d="M120.336 8.69403C120.703 7.91669 121.245 7.33003 121.964 6.93403C122.697 6.53803 123.599 6.34003 124.67 6.34003V7.85803L124.296 7.83603C123.079 7.83603 122.125 8.21003 121.436 8.95803C120.747 9.70603 120.402 10.7547 120.402 12.104V18H118.84V6.42803H120.336V8.69403Z" fill="#3E3F43"/>
<path d="M67.0518 34V25.838L63.4258 32.152H62.8518L59.2258 25.838V34H58.2458V24.06H59.2538L63.1318 30.864L67.0378 24.06H68.0318V34H67.0518Z" fill="#3E3F43"/>
<path d="M72.0928 34.14C71.7474 34.14 71.4255 34.084 71.1268 33.972C70.8375 33.8507 70.5808 33.6874 70.3568 33.482C70.1421 33.2767 69.9741 33.0387 69.8528 32.768C69.7315 32.488 69.6708 32.1894 69.6708 31.872C69.6708 31.5547 69.7455 31.2607 69.8948 30.99C70.0441 30.7194 70.2541 30.486 70.5248 30.29C70.7955 30.094 71.1175 29.9447 71.4908 29.842C71.8641 29.73 72.2748 29.674 72.7228 29.674C73.0961 29.674 73.4741 29.7067 73.8568 29.772C74.2395 29.8374 74.5801 29.9307 74.8788 30.052V29.394C74.8788 28.75 74.6968 28.2414 74.3328 27.868C73.9688 27.4854 73.4648 27.294 72.8208 27.294C72.4475 27.294 72.0648 27.3687 71.6728 27.518C71.2808 27.6674 70.8841 27.882 70.4828 28.162L70.1468 27.532C71.0894 26.8974 72.0041 26.58 72.8908 26.58C73.8055 26.58 74.5241 26.8367 75.0468 27.35C75.5695 27.8634 75.8308 28.5727 75.8308 29.478V32.768C75.8308 33.0294 75.9475 33.16 76.1808 33.16V34C76.0221 34.028 75.9008 34.042 75.8168 34.042C75.5741 34.042 75.3828 33.9814 75.2428 33.86C75.1121 33.7387 75.0421 33.5707 75.0328 33.356L75.0048 32.782C74.6688 33.2207 74.2441 33.5567 73.7308 33.79C73.2268 34.0234 72.6808 34.14 72.0928 34.14ZM72.3168 33.412C72.8115 33.412 73.2641 33.3187 73.6748 33.132C74.0948 32.9454 74.4121 32.698 74.6268 32.39C74.7108 32.306 74.7715 32.2174 74.8088 32.124C74.8554 32.0214 74.8788 31.928 74.8788 31.844V30.654C74.5615 30.5327 74.2301 30.4394 73.8848 30.374C73.5488 30.3087 73.2035 30.276 72.8488 30.276C72.1768 30.276 71.6308 30.416 71.2108 30.696C70.7908 30.976 70.5808 31.3447 70.5808 31.802C70.5808 32.026 70.6228 32.236 70.7068 32.432C70.8001 32.628 70.9215 32.8007 71.0708 32.95C71.2295 33.09 71.4161 33.202 71.6308 33.286C71.8454 33.37 72.0741 33.412 72.3168 33.412Z" fill="#3E3F43"/>
<path d="M81.5277 27.546C80.8837 27.5647 80.3237 27.742 79.8477 28.078C79.3717 28.414 79.0357 28.876 78.8397 29.464V34H77.8877V26.706H78.7837V28.456C79.0544 27.896 79.4184 27.4574 79.8757 27.14C80.333 26.8227 80.823 26.664 81.3457 26.664C81.4204 26.664 81.481 26.6687 81.5277 26.678V27.546Z" fill="#3E3F43"/>
<path d="M88.0039 34L85.3159 30.262L83.7479 31.718V34H82.7959V23.78H83.7479V30.724L87.8499 26.72H88.9279L85.9459 29.702L89.0399 34H88.0039Z" fill="#3E3F43"/>
<path d="M92.9869 34.14C92.4549 34.14 91.9649 34.042 91.5169 33.846C91.0782 33.6407 90.6956 33.3654 90.3689 33.02C90.0422 32.6654 89.7856 32.2594 89.5989 31.802C89.4216 31.3447 89.3329 30.8547 89.3329 30.332C89.3329 29.8187 89.4216 29.338 89.5989 28.89C89.7856 28.4327 90.0376 28.036 90.3549 27.7C90.6816 27.3547 91.0689 27.084 91.5169 26.888C91.9649 26.6827 92.4502 26.58 92.9729 26.58C93.5049 26.58 93.9902 26.6827 94.4289 26.888C94.8769 27.084 95.2596 27.3547 95.5769 27.7C95.8942 28.0454 96.1416 28.442 96.3189 28.89C96.4962 29.338 96.5849 29.814 96.5849 30.318C96.5849 30.3927 96.5849 30.4674 96.5849 30.542C96.5849 30.6167 96.5802 30.668 96.5709 30.696H90.3269C90.3549 31.088 90.4436 31.452 90.5929 31.788C90.7516 32.1147 90.9522 32.3994 91.1949 32.642C91.4376 32.8847 91.7129 33.076 92.0209 33.216C92.3382 33.3467 92.6742 33.412 93.0289 33.412C93.2622 33.412 93.4956 33.3794 93.7289 33.314C93.9622 33.2487 94.1769 33.16 94.3729 33.048C94.5689 32.936 94.7462 32.8007 94.9049 32.642C95.0636 32.474 95.1849 32.292 95.2689 32.096L96.0949 32.32C95.9829 32.5907 95.8242 32.838 95.6189 33.062C95.4136 33.2767 95.1756 33.468 94.9049 33.636C94.6342 33.7947 94.3356 33.916 94.0089 34C93.6822 34.0934 93.3416 34.14 92.9869 34.14ZM95.6749 29.968C95.6469 29.576 95.5536 29.2214 95.3949 28.904C95.2456 28.5774 95.0496 28.2974 94.8069 28.064C94.5736 27.8307 94.2982 27.6487 93.9809 27.518C93.6729 27.3874 93.3416 27.322 92.9869 27.322C92.6322 27.322 92.2962 27.3874 91.9789 27.518C91.6616 27.6487 91.3816 27.8307 91.1389 28.064C90.9056 28.2974 90.7142 28.5774 90.5649 28.904C90.4249 29.2307 90.3409 29.5854 90.3129 29.968H95.6749Z" fill="#3E3F43"/>
<path d="M101.499 33.65C101.443 33.678 101.359 33.7154 101.247 33.762C101.144 33.8087 101.023 33.8554 100.883 33.902C100.743 33.9487 100.584 33.9907 100.407 34.028C100.23 34.0654 100.043 34.084 99.847 34.084C99.6417 34.084 99.4457 34.056 99.259 34C99.0723 33.944 98.909 33.86 98.769 33.748C98.629 33.6267 98.517 33.4774 98.433 33.3C98.349 33.1227 98.307 32.9174 98.307 32.684V27.462H97.299V26.706H98.307V24.242H99.259V26.706H100.939V27.462H99.259V32.418C99.2777 32.6887 99.371 32.8894 99.539 33.02C99.7164 33.1414 99.917 33.202 100.141 33.202C100.412 33.202 100.65 33.16 100.855 33.076C101.06 32.9827 101.191 32.9174 101.247 32.88L101.499 33.65Z" fill="#3E3F43"/>
<path d="M102.688 34V26.706H103.64V34H102.688ZM102.688 25.18V23.78H103.64V25.18H102.688Z" fill="#3E3F43"/>
<path d="M111.869 34H110.917V29.926C110.917 29.058 110.787 28.428 110.525 28.036C110.273 27.644 109.881 27.448 109.349 27.448C109.069 27.448 108.789 27.4994 108.509 27.602C108.229 27.7047 107.968 27.8494 107.725 28.036C107.492 28.2227 107.282 28.4467 107.095 28.708C106.909 28.96 106.773 29.2354 106.689 29.534V34H105.737V26.706H106.605V28.358C106.904 27.826 107.329 27.3967 107.879 27.07C108.439 26.7434 109.046 26.58 109.699 26.58C110.101 26.58 110.441 26.6547 110.721 26.804C111.001 26.9534 111.225 27.1634 111.393 27.434C111.561 27.7047 111.683 28.036 111.757 28.428C111.832 28.82 111.869 29.254 111.869 29.73V34Z" fill="#3E3F43"/>
<path d="M116.825 34.098C116.321 34.098 115.859 33.9954 115.439 33.79C115.029 33.5754 114.669 33.2954 114.361 32.95C114.063 32.6047 113.829 32.208 113.661 31.76C113.493 31.312 113.409 30.85 113.409 30.374C113.409 29.87 113.489 29.3894 113.647 28.932C113.815 28.4654 114.049 28.0594 114.347 27.714C114.646 27.3687 115.001 27.0934 115.411 26.888C115.831 26.6827 116.293 26.58 116.797 26.58C117.423 26.58 117.964 26.7387 118.421 27.056C118.879 27.364 119.271 27.756 119.597 28.232V26.706H120.451V34.028C120.451 34.532 120.353 34.9754 120.157 35.358C119.971 35.75 119.714 36.0767 119.387 36.338C119.07 36.5994 118.692 36.7954 118.253 36.926C117.824 37.0567 117.367 37.122 116.881 37.122C116.041 37.122 115.365 36.9727 114.851 36.674C114.338 36.3754 113.923 35.974 113.605 35.47L114.193 35.008C114.483 35.4747 114.865 35.8154 115.341 36.03C115.817 36.254 116.331 36.366 116.881 36.366C117.236 36.366 117.572 36.3147 117.889 36.212C118.207 36.1187 118.482 35.974 118.715 35.778C118.958 35.5914 119.149 35.3487 119.289 35.05C119.429 34.7607 119.499 34.42 119.499 34.028V32.586C119.219 33.0527 118.837 33.4214 118.351 33.692C117.866 33.9627 117.357 34.098 116.825 34.098ZM117.091 33.3C117.371 33.3 117.647 33.2487 117.917 33.146C118.188 33.0434 118.431 32.908 118.645 32.74C118.869 32.5627 119.056 32.3667 119.205 32.152C119.355 31.9374 119.453 31.718 119.499 31.494V29.24C119.397 28.9787 119.257 28.736 119.079 28.512C118.902 28.288 118.701 28.0967 118.477 27.938C118.253 27.7794 118.011 27.6534 117.749 27.56C117.497 27.4667 117.241 27.42 116.979 27.42C116.569 27.42 116.2 27.5087 115.873 27.686C115.556 27.854 115.285 28.078 115.061 28.358C114.837 28.638 114.665 28.9554 114.543 29.31C114.431 29.6647 114.375 30.024 114.375 30.388C114.375 30.78 114.445 31.1534 114.585 31.508C114.725 31.8627 114.917 32.1754 115.159 32.446C115.411 32.7074 115.701 32.9174 116.027 33.076C116.354 33.2254 116.709 33.3 117.091 33.3Z" fill="#3E3F43"/>
<path opacity="0.8" d="M8.11484 19.8562C7.02957 20.0288 5.94815 20.301 4.9089 20.6538C1.51889 21.8005 -2.08587 25.9038 1.46137 29.0292C2.43159 29.8843 3.63956 30.5669 4.84754 31.0195C6.55405 31.6599 7.45908 34.0221 7.46291 34.026C8.03431 35.5216 9.19627 37.0172 10.6727 37.7036C12.755 38.6777 15.0483 37.0747 16.2831 35.4564C17.3108 34.1103 17.8439 32.3885 18.1506 30.7433C18.1928 30.5209 18.2158 30.287 18.2657 30.0646C18.2657 30.0646 16.8851 36.3346 11.8883 35.303C11.8883 35.303 9.80217 34.4632 8.91249 31.8363C8.91249 31.8363 8.37177 29.961 6.00183 29.0407C3.63573 28.1203 2.71536 26.41 2.71536 26.41C2.18232 25.4167 2.50445 23.7908 3.12186 22.9356C4.28382 21.3211 6.14756 20.1668 8.11484 19.8562Z" fill="#27DC4F"/>
<path opacity="0.8" d="M8.11484 18.1468C7.02957 17.9742 5.94815 17.7019 4.9089 17.3491C1.51889 16.2025 -2.08587 12.0992 1.46137 8.97381C2.43159 8.11864 3.63956 7.43603 4.84754 6.98352C6.55405 6.3431 7.45908 3.98083 7.46291 3.977C8.03431 2.48141 9.19627 0.985813 10.6727 0.299375C12.755 -0.674678 15.0483 0.92829 16.2831 2.5466C17.3108 3.89263 17.8439 5.61448 18.1506 7.25963C18.1928 7.48205 18.2158 7.71598 18.2657 7.9384C18.2657 7.9384 16.8851 1.66842 11.8883 2.69999C11.8883 2.69999 9.80217 3.53982 8.91249 6.1667C8.91249 6.1667 8.37177 8.04194 6.00183 8.96231C3.63573 9.88267 2.71536 11.593 2.71536 11.593C2.18232 12.5862 2.50445 14.2122 3.12186 15.0674C4.28382 16.6819 6.14756 17.8362 8.11484 18.1468Z" fill="#3EA3F2"/>
<path opacity="0.8" d="M30.219 19.8562C31.3042 20.0288 32.3857 20.301 33.4249 20.6538C36.8149 21.8005 40.4197 25.9038 36.8724 29.0292C35.9022 29.8843 34.6942 30.5669 33.4863 31.0195C31.7798 31.6599 30.8747 34.0221 30.8709 34.026C30.2995 35.5216 29.1375 37.0172 27.6611 37.7036C25.5788 38.6777 23.2856 37.0747 22.0507 35.4564C21.023 34.1103 20.4899 32.3885 20.1832 30.7433C20.141 30.5209 20.118 30.287 20.0681 30.0646C20.0681 30.0646 21.4487 36.3346 26.4455 35.303C26.4455 35.303 28.5316 34.4632 29.4213 31.8363C29.4213 31.8363 29.962 29.961 32.332 29.0407C34.6981 28.1203 35.6184 26.41 35.6184 26.41C36.1515 25.4167 35.8294 23.7908 35.2119 22.9356C34.05 21.3211 32.1862 20.1668 30.219 19.8562Z" fill="#FFCF52"/>
<path opacity="0.8" d="M30.219 18.1458C31.3042 17.9732 32.3857 17.701 33.4249 17.3482C36.8149 16.2015 40.4197 12.0982 36.8724 8.97283C35.9022 8.11766 34.6942 7.43506 33.4863 6.98255C31.7798 6.34213 30.8747 3.97986 30.8709 3.97602C30.2995 2.48043 29.1375 0.984838 27.6611 0.298399C25.5826 -0.679488 23.2894 0.92348 22.0507 2.54179C21.023 3.88782 20.4899 5.60967 20.1832 7.25482C20.141 7.47724 20.118 7.71117 20.0681 7.93359C20.0681 7.93359 21.4487 1.66361 26.4455 2.69518C26.4455 2.69518 28.5316 3.53501 29.4213 6.16189C29.4213 6.16189 29.962 8.03713 32.332 8.95749C34.6981 9.87786 35.6184 11.5882 35.6184 11.5882C36.1515 12.5814 35.8294 14.2074 35.2119 15.0626C34.05 16.6809 32.1862 17.8352 30.219 18.1458Z" fill="#FF4DF8"/>
<path d="M8.29516 17.7702C7.98837 18.077 7.80046 18.4989 7.80046 18.9629C7.80046 19.8948 8.55593 20.6502 9.4878 20.6502H13.3265L14.6572 22.4679H9.53382C7.61639 22.4679 5.67212 20.9148 5.67212 18.9974C5.67212 18.0387 6.15915 17.172 6.88393 16.5431C7.60872 15.9142 8.5751 15.5269 9.53382 15.5269H17.2802V17.2755H9.49163C9.02378 17.2794 8.60195 17.4673 8.29516 17.7702Z" fill="#3E3F43"/>
<path d="M21.2799 20.6731L20.766 22.4716H15.1479V17.655H17.2801V20.6731H21.2799Z" fill="#3E3F43"/>
<path d="M31.7027 16.428C31.7027 16.428 31.3575 15.5269 30.3643 15.5269C29.3749 15.5269 29.0719 16.428 29.0719 16.428L27.0893 20.0635L25.1067 16.428C25.1067 16.428 24.8076 15.5269 23.8144 15.5269C22.825 15.5269 22.476 16.428 22.476 16.428L21.268 20.6694L20.7542 22.4718H22.8748L24.0445 18.1039L26.0578 21.9426C26.2265 22.2647 26.564 22.4679 26.9283 22.4679H27.0855H27.2427C27.607 22.4679 27.9445 22.2647 28.1132 21.9426L30.1265 18.1039L31.3038 22.4718H33.4245L31.7027 16.428Z" fill="#3E3F43"/>
</svg>
