<svg xmlns="http://www.w3.org/2000/svg" width="36" height="26" viewBox="0 0 36 26"><g><g><path fill="#fff" d="M1.199 1.241C1.199.556 1.754 0 2.439 0H33.56c.686 0 1.241.556 1.241 1.241V20.83H36v5.24H0v-5.24h1.199zm.042 20.83v2.757H34.76V22.07zm32.319-1.242V1.241H2.44V20.83h5.008v-1.898c0-.686.556-1.241 1.242-1.241h6.517c.686 0 1.241.555 1.241 1.241v1.898zm-18.353 0v-1.898H8.69v1.898zM29.046 4.28a.62.62 0 0 1-.118.87l-10.97 8.346-4.344-4.062-5.79 4.406a.62.62 0 1 1-.752-.988l6.624-5.04 4.345 4.061 10.135-7.71a.62.62 0 0 1 .87.117z"/></g></g></svg>