<svg xmlns="http://www.w3.org/2000/svg" width="36" height="35" viewBox="0 0 36 35"><g><g clip-path="url(#clip-223:371)"><path fill="#fff" d="M17.239.537c.254-.716 1.268-.716 1.522 0l3.986 11.212H35.19c.76 0 1.1.952.512 1.433l-9.99 8.177 3.607 11.776c.222.724-.584 1.328-1.216.912L18 27.408l-10.103 6.64c-.632.415-1.438-.189-1.216-.912l3.607-11.777-9.99-8.177c-.588-.48-.248-1.433.512-1.433h12.443zM18 2.107l-3.679 10.348a.808.808 0 0 1-.761.537H2.028l9.274 7.59a.808.808 0 0 1 .26.862l-3.34 10.902 9.334-6.133a.808.808 0 0 1 .888 0l9.333 6.133-3.34-10.902a.808.808 0 0 1 .261-.862l9.274-7.59H22.44a.808.808 0 0 1-.761-.538z"/></g></g></svg>