<svg xmlns="http://www.w3.org/2000/svg" width="33" height="28" viewBox="0 0 33 28"><g><g clip-path="url(#clip-223:353)"><path fill="#fff" d="M4.992 3.689c-.312 1.55.195 3.4 1.747 4.632.251.2.421.49.421.816v.555c0 .905-.843 1.585-1.813 1.658-1.424.106-2.458.41-3.123.853-.637.425-.979 1.005-.979 1.797 0 .297-.278.538-.622.538S0 14.298 0 14c0-1.11.508-2.012 1.464-2.65.927-.618 2.229-.957 3.775-1.073.4-.03.676-.3.676-.585v-.554l-.002-.004a.065.065 0 0 0-.017-.02c-1.912-1.519-2.503-3.759-2.13-5.61C4.131 1.68 5.515 0 7.782 0c2.266 0 3.651 1.679 4.018 3.504.372 1.851-.219 4.091-2.131 5.61a.065.065 0 0 0-.017.02.021.021 0 0 0-.002.004v.554c0 .285.276.555.676.585.78.058 1.496.173 2.132.351.148-.839.494-1.624 1.027-2.25C14.184 7.555 15.215 7 16.5 7c1.285 0 2.316.556 3.014 1.377.533.627.88 1.412 1.027 2.251.636-.178 1.351-.293 2.132-.351.4-.03.676-.3.676-.585v-.554l-.002-.004a.066.066 0 0 0-.017-.02c-1.912-1.519-2.503-3.759-2.131-5.61C21.566 1.68 22.951 0 25.217 0s3.651 1.679 4.018 3.504c.372 1.851-.219 4.091-2.131 5.61a.066.066 0 0 0-.017.02.018.018 0 0 0-.002.004v.554c0 .285.276.555.676.585 1.546.116 2.848.454 3.775 1.073C32.492 11.988 33 12.89 33 14c0 .297-.279.538-.623.538-.343 0-.622-.24-.622-.538 0-.792-.342-1.372-.98-1.797-.664-.443-1.698-.747-3.122-.853-.97-.073-1.813-.753-1.813-1.658v-.555c0-.325.17-.616.421-.816C27.813 7.09 28.32 5.24 28.008 3.69c-.317-1.577-1.397-2.612-2.791-2.612s-2.474 1.035-2.791 2.612c-.312 1.55.195 3.4 1.747 4.632.251.2.421.49.421.816v.555c0 .905-.843 1.585-1.813 1.658-.857.064-1.577.2-2.16.396-.047 1.539-.733 3.176-2.234 4.368a.066.066 0 0 0-.017.02l-.002.004v.554c0 .285.276.555.676.585.754.056 1.447.166 2.066.333.073-.938.385-1.832.919-2.552a3.882 3.882 0 0 1 3.188-1.597c2.266 0 3.651 1.68 4.018 3.505.372 1.851-.219 4.09-2.131 5.61a.065.065 0 0 0-.017.02l-.002.003v.555c0 .285.276.554.676.584 1.546.116 2.848.455 3.775 1.074.956.637 1.464 1.539 1.464 2.65 0 .297-.279.538-.623.538-.343 0-.622-.241-.622-.539 0-.791-.342-1.372-.98-1.796-.664-.444-1.698-.747-3.122-.854-.97-.072-1.813-.753-1.813-1.657v-.556c0-.325.17-.615.421-.815 1.552-1.233 2.059-3.082 1.747-4.633-.317-1.576-1.397-2.612-2.791-2.612-.893 0-1.624.406-2.14 1.101-.523.705-.8 1.687-.727 2.727a4.77 4.77 0 0 0 1.823 3.417c.251.2.421.49.421.815v.556c0 .904-.843 1.585-1.813 1.657-1.424.107-2.458.41-3.123.854-.637.424-.979 1.005-.979 1.796 0 .298-.278.539-.622.539s-.623-.241-.623-.539c0-1.11.508-2.012 1.464-2.65.927-.618 2.229-.957 3.775-1.073.4-.03.676-.3.676-.584v-.555l-.002-.004a.065.065 0 0 0-.017-.019c-1.323-1.05-2.012-2.447-2.19-3.815-.59-.204-1.325-.346-2.204-.411-.97-.073-1.813-.753-1.813-1.658v-.555c0-.325.17-.616.421-.816a4.761 4.761 0 0 0 1.831-3.91c-.033-.94-.351-1.792-.864-2.396-.505-.593-1.187-.938-2.011-.938-.824 0-1.506.345-2.01.938-.514.604-.832 1.457-.865 2.396a4.761 4.761 0 0 0 1.83 3.91c.252.2.422.49.422.816v.555c0 .905-.843 1.585-1.813 1.658-.879.065-1.613.207-2.204.411-.178 1.368-.867 2.764-2.19 3.815a.065.065 0 0 0-.02.023v.555c0 .285.277.554.677.584 1.547.116 2.848.455 3.776 1.074.955.637 1.463 1.539 1.463 2.65 0 .297-.279.538-.623.538-.343 0-.622-.241-.622-.539 0-.791-.342-1.372-.98-1.796-.664-.444-1.698-.747-3.122-.854-.97-.072-1.813-.753-1.813-1.657v-.556c0-.325.17-.615.421-.815a4.77 4.77 0 0 0 1.823-3.417c.073-1.04-.204-2.022-.727-2.727-.516-.695-1.247-1.1-2.14-1.1-1.394 0-2.474 1.035-2.791 2.611-.312 1.55.195 3.4 1.747 4.633.251.2.421.49.421.815v.556c0 .904-.843 1.585-1.813 1.657-1.424.107-2.458.41-3.123.854-.637.424-.979 1.005-.979 1.796 0 .298-.278.539-.622.539S0 27.759 0 27.461c0-1.11.508-2.012 1.464-2.65.927-.618 2.229-.957 3.775-1.073.4-.03.676-.3.676-.584v-.555l-.002-.004a.065.065 0 0 0-.017-.019c-1.912-1.52-2.503-3.759-2.13-5.61.366-1.826 1.75-3.505 4.017-3.505 1.4 0 2.493.66 3.188 1.597.534.72.846 1.614.92 2.552a11.122 11.122 0 0 1 2.065-.333c.4-.03.676-.3.676-.585v-.554l-.002-.004a.066.066 0 0 0-.017-.02c-1.501-1.192-2.187-2.83-2.234-4.368-.583-.196-1.303-.332-2.16-.396-.97-.073-1.813-.753-1.813-1.658v-.555c0-.325.17-.616.421-.816C10.38 7.09 10.886 5.24 10.574 3.69c-.317-1.577-1.397-2.612-2.791-2.612S5.309 2.112 4.992 3.689z"/></g></g></svg>