<svg xmlns="http://www.w3.org/2000/svg" width="36" height="25" viewBox="0 0 36 25"><g><g><path fill="#fff" d="M8.509.863c.259.23.472.542.742.967.425.709.72 1.125.72 1.125a.73.73 0 1 1-1.215.81s-.29-.456-.72-1.17c-.005-.011.006-.011 0-.022a3.353 3.353 0 0 0-.472-.608c-.079.07-.284.264-.54.675v.023C6.97 2.75 6.48 3.703 5.92 4.89c-.56 1.187-1.237 2.692-1.912 4.163-.99 2.16-1.496 3.27-1.935 4.23.202-.045.388-.096.63-.135 1.521-.254 3.822-.428 7.087-.428 2.118 0 4.273.475 5.918.698.337-.237 1.071-.698 2.295-.698 1.223 0 1.957.461 2.295.698 1.645-.223 3.8-.698 5.917-.698 3.266 0 5.563.186 7.088.45.242.042.425.09.63.135-.436-.953-.94-2.084-1.935-4.253-.675-1.47-1.353-2.975-1.913-4.162a52.418 52.418 0 0 0-1.102-2.228c-.265-.427-.459-.627-.54-.697a3.35 3.35 0 0 0-.473.607c-.005.012.006.012 0 .023-.43.714-.72 1.17-.72 1.17a.73.73 0 1 1-1.215-.81s.296-.416.72-1.125c.27-.425.484-.737.743-.968.259-.23.621-.382.945-.382.264 0 .664.12.945.36.281.24.503.557.81 1.057.233.38.607 1.19 1.17 2.385.562 1.196 1.26 2.69 1.935 4.163 1.35 2.945 2.632 5.782 2.632 5.782a.719.719 0 0 1 .045.675 1.088 1.088 0 0 1-.225.473c-.14.16-.272.24-.382.292-.217.107-.352.147-.45.203-.197.113-.36.158-.36 1.035 0 1.648-.478 3.487-1.778 4.928-1.3 1.44-3.406 2.407-6.435 2.407-2.455 0-4.283-.802-5.4-2.25-1.116-1.448-1.507-3.423-1.507-5.67v-1.755c-.253-.16-.7-.405-1.44-.405s-1.187.245-1.44.405v1.755c0 2.247-.391 4.222-1.508 5.67-1.116 1.448-2.944 2.25-5.4 2.25-3.029 0-5.135-.979-6.435-2.43-1.3-1.451-1.777-3.313-1.777-4.995 0-.835-.152-.863-.36-.99-.104-.062-.256-.11-.473-.225a1.143 1.143 0 0 1-.382-.292.962.962 0 0 1-.158-.338.723.723 0 0 1 0-.742s1.283-2.838 2.633-5.783a456.209 456.209 0 0 1 1.935-4.162c.562-1.196.936-2.006 1.17-2.385.306-.501.529-.819.81-1.058a1.6 1.6 0 0 1 .945-.36c.323 0 .686.152.945.383zM2.95 14.565c-.45.076-.672.15-.945.225.445.368.878 1.001.878 2.025 0 1.415.39 2.905 1.395 4.027C5.283 21.965 6.925 22.8 9.656 22.8c2.155 0 3.426-.638 4.253-1.71s1.215-2.697 1.215-4.77v-1.508c-1.67-.241-3.57-.652-5.333-.652-3.214 0-5.445.172-6.84.405zm17.933.248v1.507c0 2.073.388 3.698 1.215 4.77.827 1.072 2.098 1.71 4.252 1.71 2.731 0 4.374-.821 5.378-1.935 1.004-1.114 1.395-2.585 1.395-3.96 0-1.058.441-1.707.9-2.07-.273-.084-.5-.166-.968-.247-1.392-.24-3.625-.428-6.84-.428-1.763 0-3.662.41-5.332.652z"/></g></g></svg>