<svg xmlns="http://www.w3.org/2000/svg" width="16" height="20" viewBox="0 0 16 20"><g><g><path fill="#fff" d="M0 0h14.26v1.724H16V20H1.74v-1.724H0zm2.435 18.276v1.034h12.87V2.414H14.26v15.862zM.695.69v16.896h12.87V.69zm5.55 10.43c0-.397.07-.743.21-1.037.142-.302.383-.56.724-.773.134-.088.286-.18.456-.276a3.27 3.27 0 0 0 .501-.33c.156-.133.286-.287.39-.464.111-.184.167-.4.167-.651 0-.206-.041-.386-.123-.54a1.089 1.089 0 0 0-.3-.398 1.2 1.2 0 0 0-.434-.243 1.498 1.498 0 0 0-.512-.088c-.186 0-.364.03-.535.088a1.742 1.742 0 0 0-.456.22c-.14.097-.267.21-.378.343a2.026 2.026 0 0 0-.279.397l-.656-.43a2.08 2.08 0 0 1 .39-.607c.163-.177.348-.324.556-.441a2.44 2.44 0 0 1 .657-.276c.237-.066.478-.1.723-.1.275 0 .545.045.813.133.267.08.504.21.712.386.208.177.375.397.5.662.127.265.19.578.19.938a1.885 1.885 0 0 1-.423 1.236 2.043 2.043 0 0 1-.445.386c-.17.11-.349.217-.534.32-.134.074-.268.151-.401.232a1.53 1.53 0 0 0-.356.298c-.097.11-.178.246-.245.408-.06.162-.09.364-.09.607zm.021 2.328v-1.28h.824v1.28z"/></g></g></svg>