<svg xmlns="http://www.w3.org/2000/svg" width="36" height="37" viewBox="0 0 36 37"><g><g><path fill="#fff" d="M15.837.068c.607-.21 1.274.08 1.533.669l1.845 4.194c.29-.51.906-.75 1.47-.558l13.37 4.552c.659.224 1.002.95.758 1.6l-2.35 6.265a1.233 1.233 0 0 1-1.509.748l-14.172-4.252a1.233 1.233 0 0 1-.758-1.714l.845-1.76L5.28 13.52a1.233 1.233 0 0 1-1.514-.7L1.152 6.548a1.233 1.233 0 0 1 .734-1.64zm1.767 8.213l.907-1.89-2.27-5.158-13.95 4.84 2.613 6.272zm16.054 1.812L20.287 5.54l-3.151 6.564 14.173 4.252zm-21.01 1.515a.617.617 0 0 1 .801.343l.617 1.542a.617.617 0 1 1-1.145.458l-.617-1.542a.617.617 0 0 1 .344-.801zm-6.863 3.655a2.466 2.466 0 1 0 0 4.933 2.466 2.466 0 0 0 0-4.933zm-3.7 2.467a3.7 3.7 0 1 1 7.4 0 3.7 3.7 0 0 1-7.4 0zm12.81-1.693a.5.5 0 0 0-.68.255c-1.464 3.406-2.582 5.399-4.555 6.389-.445.223-.922.29-1.354.29H3.7a2.466 2.466 0 0 0-2.466 2.524l.235 10.103a.617.617 0 1 1-1.233.028L.001 25.524A3.7 3.7 0 0 1 3.7 21.738h4.606c.312 0 .582-.05.801-.16 1.517-.76 2.49-2.318 3.975-5.773a1.733 1.733 0 0 1 2.364-.871c.719.36 1.097 1.173.897 1.957-1.046 4.103-2.023 6.624-3.96 8.285-.811.695-1.356 1.553-1.356 2.458v7.978a.617.617 0 0 1-1.234 0v-7.978c0-1.413.839-2.582 1.787-3.394 1.612-1.382 2.52-3.54 3.568-7.653a.483.483 0 0 0-.254-.55zm9.015-.415a.617.617 0 0 1 .324.81l-.925 2.158a.616.616 0 1 1-1.133-.486l.925-2.158a.617.617 0 0 1 .81-.324zm6.54 4.883a2.467 2.467 0 1 0 0 4.933 2.467 2.467 0 0 0 0-4.933zm-3.7 2.466a3.7 3.7 0 1 1 7.4 0 3.7 3.7 0 0 1-7.4 0zm-5.823-1.703a1.629 1.629 0 0 1 1.63-1.688c.975 0 1.676.825 1.678 1.724.003 1.211.23 2.144.753 3.015.511.851 1.327 1.684 2.588 2.66H32.3a3.7 3.7 0 0 1 3.7 3.7v4.933a.617.617 0 0 1-1.233 0V30.68a2.467 2.467 0 0 0-2.467-2.466h-5.14l-.166-.126c-1.405-1.07-2.413-2.05-3.063-3.133-.66-1.1-.926-2.263-.93-3.647 0-.296-.223-.494-.443-.494a.396.396 0 0 0-.399.408c.098 2.556.3 4.143.854 5.335.535 1.152 1.434 2 3.12 2.972l.31.178v5.906a.617.617 0 1 1-1.234 0v-5.197c-1.616-.97-2.668-1.947-3.315-3.34-.67-1.441-.87-3.26-.967-5.807z"/></g></g></svg>