<svg xmlns="http://www.w3.org/2000/svg" width="32" height="33" viewBox="0 0 32 33"><g><g clip-path="url(#clip-223:383)"><path fill="#fff" d="M31.973 12.24h-1.505a15.058 15.058 0 0 0-2.534-4.908c-1.23.692-2.652 1.271-4.227 1.716.264 1.01.48 2.073.632 3.192h-1.468a26.286 26.286 0 0 0-.582-2.835c-1.735.385-3.611.61-5.583.653v2.182h-1.44v-2.182a28.868 28.868 0 0 1-5.583-.653c-.236.9-.435 1.845-.582 2.835H7.633c.152-1.12.369-2.182.633-3.192-1.575-.445-2.998-1.024-4.227-1.716a15.12 15.12 0 0 0-2.537 4.908H0C1.907 5.198 8.35 0 15.986 0c7.636 0 14.08 5.198 15.987 12.24zM15.265 1.527c-2.115.467-3.99 2.948-5.175 6.489a27.39 27.39 0 0 0 5.175.601zm1.44 7.09a27.388 27.388 0 0 0 5.175-.601c-1.184-3.541-3.06-6.022-5.175-6.489zM4.986 6.21c1.064.57 2.307 1.063 3.682 1.451.765-2.34 1.825-4.27 3.094-5.608A15.15 15.15 0 0 0 4.987 6.21zm18.318 1.451c1.376-.388 2.619-.88 3.682-1.451a15.15 15.15 0 0 0-6.775-4.157c1.268 1.339 2.328 3.268 3.093 5.608zM1.73 13.68l1.156 3.957 1.4-3.957h1.837l1.344 4.025 1.176-4.025H10.2l-1.862 5.76H6.7l-1.524-4.306-1.524 4.306H1.974L.146 13.68zm10.814 0l1.153 3.957 1.4-3.957h1.84l1.344 4.025 1.173-4.025h1.561l-1.862 5.76h-1.64l-1.527-4.306-1.519 4.306h-1.679l-1.83-5.76zm10.777 0l1.162 3.957 1.406-3.957h1.845l1.347 4.025 1.182-4.025h1.563l-1.867 5.76h-1.646l-1.532-4.306-1.528 4.306H23.57l-1.834-5.76zm-21.82 7.2a15.119 15.119 0 0 0 2.538 4.908c1.229-.692 2.652-1.271 4.227-1.716a26.822 26.822 0 0 1-.633-3.192h1.468c.146.99.346 1.935.582 2.835a28.65 28.65 0 0 1 5.583-.652V20.88h1.44v2.183a28.87 28.87 0 0 1 5.583.652c.236-.9.436-1.845.582-2.835h1.468a26.842 26.842 0 0 1-.632 3.192c1.575.445 2.998 1.024 4.227 1.716a15.058 15.058 0 0 0 2.534-4.908h1.505c-1.907 7.042-8.35 12.24-15.987 12.24C8.35 33.12 1.906 27.923 0 20.88zm13.765 3.623c-1.83.042-3.572.253-5.175.601 1.184 3.541 3.06 6.022 5.175 6.489zm1.44 7.09c2.115-.467 3.991-2.948 5.175-6.489a27.386 27.386 0 0 0-5.175-.602zM4.986 26.91a15.12 15.12 0 0 0 6.776 4.154C10.493 29.728 9.436 27.8 8.67 25.46c-1.378.388-2.621.877-3.684 1.451zm15.225 4.154a15.12 15.12 0 0 0 6.775-4.154c-1.063-.57-2.306-1.063-3.682-1.451-.765 2.34-1.825 4.27-3.093 5.605z"/></g></g></svg>