<svg xmlns="http://www.w3.org/2000/svg" width="32" height="32" viewBox="0 0 32 32"><g><g><path fill="#fff" d="M29.333 0c.328 0 .593.265.593.593v8.296H21.63a.593.593 0 1 1 0-1.185h6.63C25.596 3.782 21.099 1.208 16 1.208c-8.182 0-14.815 6.633-14.815 14.814 0 8.182 6.633 14.815 14.815 14.815 8.182 0 14.815-6.633 14.815-14.815l-.003-.285a.593.593 0 0 1 1.185-.022c.002.102.003.205.003.308 0 8.836-7.163 16-16 16s-16-7.164-16-16c0-8.837 7.163-16 16-16 5.2 0 9.819 2.48 12.74 6.32V.593c0-.328.266-.593.593-.593z"/></g></g></svg>