<svg xmlns="http://www.w3.org/2000/svg" width="32" height="32" viewBox="0 0 32 32"><g><g clip-path="url(#clip-223:330)"><path fill="#fff" d="M25.655 1.103a5.241 5.241 0 1 0 0 10.483 5.241 5.241 0 0 0 0-10.483zm-6.333 4.848a6.345 6.345 0 1 1 2.123 5.14l-8.205 4.643 8.433 4.981a6.345 6.345 0 1 1-2.362 5.012l-8.896-5.136a6.345 6.345 0 1 1 .164-9.593zm-7.97 5.876a6.317 6.317 0 0 1 1.273 2.988l8.04-4.55a6.317 6.317 0 0 1-1.298-3.066zm1.27 4.824a6.32 6.32 0 0 1-1.4 3.132l8.191 4.729a6.324 6.324 0 0 1 1.437-3zm-6.277-6.168a5.241 5.241 0 1 0 0 10.482 5.241 5.241 0 0 0 0-10.482zm19.31 9.93a5.22 5.22 0 0 0-3.548 1.385 5.225 5.225 0 0 0-1.693 3.857 5.241 5.241 0 1 0 5.241-5.241z"/></g></g></svg>