<svg xmlns="http://www.w3.org/2000/svg" width="24" height="36" viewBox="0 0 24 36"><g><g><path fill="#fff" d="M0 3.53C0 1.58 1.56 0 3.483 0H19.85c1.923 0 3.482 1.58 3.482 3.53v28.94c0 1.95-1.559 3.53-3.482 3.53H3.483C1.559 36 0 34.42 0 32.47zm3.483-1.765c-.962 0-1.742.79-1.742 1.764v28.942c0 .974.78 1.764 1.742 1.764H19.85c.961 0 1.741-.79 1.741-1.764V3.529c0-.974-.78-1.764-1.741-1.764h-.61c-.596.499-.89 1.529-1.055 2.69-.131.915-.871 1.633-1.784 1.633h-9.47c-.914 0-1.654-.718-1.784-1.634-.166-1.16-.46-2.19-1.056-2.69zm2.933.487c.227.628.364 1.31.455 1.95a.195.195 0 0 0 .054.114l.01.008h9.464l.01-.008a.195.195 0 0 0 .053-.114c.091-.64.228-1.322.455-1.95.058-.157.124-.321.202-.487H6.214c.078.166.145.33.202.487zm2.116.836c0-.34.273-.617.61-.617h2.786c.337 0 .61.276.61.617a.614.614 0 0 1-.61.618H9.142a.614.614 0 0 1-.61-.618zm4.702 0c0-.34.273-.617.61-.617.336 0 .609.276.609.617a.614.614 0 0 1-.61.618.614.614 0 0 1-.61-.618z"/></g></g></svg>