<svg xmlns="http://www.w3.org/2000/svg" width="32" height="32" viewBox="0 0 32 32"><g><g clip-path="url(#clip-223:359)"><path fill="#fff" d="M10.37 1.23c4.338-2.026 9.01-1.41 12.865.831a.574.574 0 1 1-.577.992C19.071.967 14.797.429 10.855 2.27a.574.574 0 0 1-.485-1.04zM8.781 2.775a.574.574 0 0 1-.124.802c-2.155 1.578-4.173 3.996-5.846 7.447a.574.574 0 1 1-1.032-.5c1.739-3.587 3.867-6.165 6.2-7.873a.574.574 0 0 1 .802.124zM24.809 3.81a.574.574 0 0 1 .808-.07c3.686 3.095 6.221 7.83 6.221 13.06a.574.574 0 1 1-1.147 0c0-4.855-2.357-9.281-5.812-12.182a.574.574 0 0 1-.07-.808zm-9.607.36a.574.574 0 0 1 .582-.565c4.917.072 8.465 2.57 10.609 6.442 2.128 3.846 2.868 9.03 2.287 14.556a.574.574 0 0 1-1.141-.12c.565-5.374-.17-10.303-2.15-13.88-1.965-3.55-5.157-5.786-9.622-5.85a.574.574 0 0 1-.565-.583zm-1.156.084a.574.574 0 0 1-.463.666c-3.86.698-5.726 3.435-7.516 6.17a.574.574 0 0 1-.96-.63C6.88 7.753 8.982 4.586 13.379 3.79c.312-.056.61.151.667.463zm1.73 3.94c-1.702 0-3.074.54-4.246 1.388a.574.574 0 1 1-.672-.93c1.344-.971 2.946-1.605 4.918-1.605.902 0 1.835.14 2.753.427a.574.574 0 0 1-.344 1.095 8.074 8.074 0 0 0-2.41-.375zm4.398.606a.574.574 0 0 1 .795-.16c3.328 2.207 5.727 6.727 4.844 13.965a.574.574 0 0 1-1.14-.139c.845-6.916-1.455-10.958-4.338-12.87a.574.574 0 0 1-.161-.796zM14.138 12.2c-1.038.678-2.04 1.84-3.065 3.217a.574.574 0 0 1-.92-.685c1.031-1.386 2.136-2.694 3.358-3.492 1.257-.821 2.672-1.119 4.223-.414 1.489.677 3.035 2.189 4.046 4.29a.574.574 0 1 1-1.034.497c-.916-1.903-2.284-3.196-3.487-3.742-1.12-.51-2.118-.326-3.121.33zm-4.63-1.575c.24.206.27.568.064.809-.726.85-1.375 1.79-2.002 2.734l-.395.598c-.484.735-.963 1.462-1.447 2.11-1.21 1.62-2.636 3.01-4.644 2.787a.574.574 0 1 1 .127-1.14c1.325.147 2.395-.723 3.597-2.333.462-.619.916-1.308 1.398-2.038l.408-.62c.631-.949 1.312-1.937 2.085-2.843a.574.574 0 0 1 .809-.064zm-4.945 1.696a.574.574 0 0 1 .12.803C3.65 14.52 2.448 15.75.72 16.205a.574.574 0 0 1-.292-1.11c1.342-.352 2.345-1.318 3.333-2.654a.574.574 0 0 1 .802-.12zm8.913 7.048c-1.82 3.164-4.524 6.894-9.46 6.894a.574.574 0 1 1 0-1.147c4.242 0 6.653-3.167 8.466-6.32.315-.548.606-1.084.885-1.598l.353-.648c.381-.695.752-1.341 1.125-1.856.363-.503.782-.958 1.288-1.177.569-.247 1.152-.156 1.697.233.651.465 1.151 1.32 1.433 2.397.285 1.09.362 2.465.117 4.05-.49 3.174-2.275 7.22-6.338 11.619a.574.574 0 0 1-.843-.779c3.942-4.267 5.599-8.11 6.047-11.015.225-1.455.146-2.668-.093-3.585-.244-.931-.637-1.502-.99-1.754-.267-.19-.428-.177-.574-.114-.21.091-.479.332-.815.797-.326.451-.667 1.042-1.048 1.737-.111.201-.225.411-.343.628-.282.52-.584 1.076-.907 1.637zm3.302-2.84a.574.574 0 0 1 .414.698c-.518 2.024-1.061 3.694-1.71 5.106a.574.574 0 0 1-1.043-.479c.61-1.325 1.133-2.922 1.641-4.911a.574.574 0 0 1 .698-.414zm-7.312.14c.259.183.32.54.138.8-1.13 1.602-2.307 3.25-3.58 4.368-1.284 1.128-2.778 1.81-4.484 1.242a.574.574 0 0 1 .363-1.089c1.152.385 2.226-.015 3.364-1.015 1.151-1.011 2.25-2.538 3.4-4.167a.574.574 0 0 1 .799-.139zm12.545.714a.574.574 0 0 1 .675.45c.715 3.558-.064 8.1-3.873 13.081a.574.574 0 1 1-.912-.697c3.641-4.76 4.3-8.973 3.66-12.159a.574.574 0 0 1 .45-.675zm-7.765 6.107c.265.174.338.53.163.795-1.489 2.259-3.482 3.7-6.42 5.08a.574.574 0 0 1-.488-1.04c2.833-1.33 4.62-2.654 5.95-4.672a.574.574 0 0 1 .795-.163zm10.681 1.065c.31.066.508.37.442.68a38.837 38.837 0 0 1-1.016 3.785.574.574 0 1 1-1.092-.35 37.7 37.7 0 0 0 .986-3.673.574.574 0 0 1 .68-.442z"/></g></g></svg>