<svg xmlns="http://www.w3.org/2000/svg" width="36" height="28" viewBox="0 0 36 28"><g><g><path fill="#fff" d="M34.642 2.717a1.358 1.358 0 1 0-2.717 0 1.358 1.358 0 0 0 2.716 0zm0-2.717C35.392 0 36 .608 36 1.358v2.717c0 .75-.608 1.359-1.359 1.359h-2.716c-.75 0-1.359-.608-1.359-1.359V1.358c0-.75.608-1.358 1.359-1.358zM27.17 2.038a.68.68 0 0 1 0 1.358H.68a.68.68 0 1 1 0-1.358zm7.471 8.15a1.358 1.358 0 1 0-2.716 0 1.358 1.358 0 0 0 2.716 0zm0-2.716c.75 0 1.359.608 1.359 1.358v2.717c0 .75-.608 1.359-1.359 1.359h-2.716c-.75 0-1.359-.609-1.359-1.359V8.83c0-.75.608-1.358 1.359-1.358zM27.17 9.509a.68.68 0 0 1 0 1.359H.68a.68.68 0 1 1 0-1.359zm7.471 8.151a1.358 1.358 0 1 0-2.716 0 1.358 1.358 0 0 0 2.716 0zm0-2.717c.75 0 1.359.609 1.359 1.359v2.717c0 .75-.608 1.358-1.359 1.358h-2.716c-.75 0-1.359-.608-1.359-1.358v-2.717c0-.75.608-1.359 1.359-1.359zm-7.471 2.038a.68.68 0 0 1 0 1.359H.68a.68.68 0 1 1 0-1.359zm7.471 8.151a1.358 1.358 0 1 0-2.716 0 1.358 1.358 0 0 0 2.716 0zm0-2.717c.75 0 1.359.608 1.359 1.359v2.717c0 .75-.608 1.358-1.359 1.358h-2.716c-.75 0-1.359-.608-1.359-1.358v-2.717c0-.75.608-1.359 1.359-1.359zm-7.471 2.038a.68.68 0 0 1 0 1.358H.68a.68.68 0 1 1 0-1.358z"/></g></g></svg>