<svg xmlns="http://www.w3.org/2000/svg" width="36" height="34" viewBox="0 0 36 34"><g><g clip-path="url(#clip-223:323)"><path fill="#fff" d="M23.84 19.929a11.18 11.18 0 0 1 1.583-3.053 7.717 7.717 0 0 0-4.69 3.053zM27 16.983c-.766.833-1.363 1.838-1.792 2.946h3.584c-.43-1.108-1.026-2.113-1.792-2.946zm-2.204 4.231a12.99 12.99 0 0 0-.39 2.572h5.188a12.99 12.99 0 0 0-.39-2.572zm9.892 2.572a7.662 7.662 0 0 0-.673-2.572h-3.487c.196.842.313 1.706.354 2.572zM24.406 25.07c.045.872.174 1.739.39 2.572h4.409c.215-.833.344-1.7.39-2.572zm.802 3.858c.43 1.107 1.026 2.112 1.792 2.946.766-.834 1.363-1.84 1.792-2.946zm.215 3.052a11.18 11.18 0 0 1-1.583-3.052h-3.107a7.717 7.717 0 0 0 4.69 3.052zm-1.951-4.338a14.386 14.386 0 0 1-.354-2.572h-3.806c.075.912.309 1.778.673 2.572zm-.354-3.857c.041-.866.158-1.73.354-2.572h-3.487a7.662 7.662 0 0 0-.673 2.572zm10.149 5.143H30.16a11.18 11.18 0 0 1-1.583 3.052 7.717 7.717 0 0 0 4.69-3.052zm.748-1.286c.364-.794.598-1.66.673-2.572h-3.806c-.041.866-.158 1.73-.354 2.572zm-.748-7.714a7.717 7.717 0 0 0-4.69-3.053 11.18 11.18 0 0 1 1.583 3.053zm-14.253.345A9 9 0 0 1 27 15.43a9 9 0 0 1 7.986 13.154A9 9 0 0 1 27 33.429a9 9 0 0 1-7.986-13.155zM0 1.93C0 .863.863 0 1.929 0h30.857c1.065 0 1.928.863 1.928 1.929V16.07a.643.643 0 1 1-1.285 0V10.93H1.286V27c0 .355.288.643.643.643h14.464a.643.643 0 0 1 0 1.286H1.929A1.929 1.929 0 0 1 0 27zm1.286 7.714h32.143V1.929a.643.643 0 0 0-.643-.643H1.929a.643.643 0 0 0-.643.643zm13.5-4.822a.643.643 0 0 0-.643.643v.643c0 .355.288.643.643.643h14.143a.643.643 0 0 0 .642-.643v-.643a.643.643 0 0 0-.642-.643zm-1.929.643c0-1.065.864-1.928 1.929-1.928h14.143c1.065 0 1.928.863 1.928 1.928v.643a1.929 1.929 0 0 1-1.928 1.929H14.786a1.929 1.929 0 0 1-1.929-1.929zm-2.571.322a1.286 1.286 0 1 1-2.572 0 1.286 1.286 0 0 1 2.572 0zm-4.5 0a1.286 1.286 0 1 1-2.572 0 1.286 1.286 0 0 1 2.572 0z"/></g></g></svg>