<svg xmlns="http://www.w3.org/2000/svg" width="32" height="24" viewBox="0 0 32 24"><g><g clip-path="url(#clip-223:316)"><path fill="#fff" d="M26.741 1.839c-7.91-.729-13.698-.756-21.51-.017-2.248.212-3.951 2.125-3.951 4.4v11.235c0 2.276 1.703 4.189 3.95 4.401 7.813.739 13.6.712 21.511-.017 2.26-.208 3.979-2.126 3.979-4.412V6.251c0-2.286-1.718-4.204-3.979-4.412zM5.11.548c7.896-.747 13.764-.72 21.749.016C29.794.834 32 3.32 32 6.251v11.178c0 2.932-2.207 5.417-5.141 5.687-7.985.735-13.853.763-21.75.016C2.188 22.856 0 20.374 0 17.457V6.223C0 3.305 2.187.824 5.11.548zm6.41 7.528a1.28 1.28 0 0 1 1.852-1.145l8.17 4.084c.943.472.943 1.818 0 2.29l-8.17 4.084a1.28 1.28 0 0 1-1.852-1.145zm9.449 4.084L12.8 8.076v8.168z"/></g></g></svg>