<svg width="36" height="36" viewBox="0 0 36 36" fill="none" xmlns="http://www.w3.org/2000/svg">
<path fill-rule="evenodd" clip-rule="evenodd" d="M18 34.9615C27.3676 34.9615 34.9615 27.3676 34.9615 18C34.9615 8.6324 27.3676 1.03846 18 1.03846C8.6324 1.03846 1.03846 8.6324 1.03846 18C1.03846 27.3676 8.6324 34.9615 18 34.9615ZM18 36C27.9411 36 36 27.9411 36 18C36 8.05887 27.9411 0 18 0C8.05887 0 0 8.05887 0 18C0 27.9411 8.05887 36 18 36Z" fill="#3E3F43"/>
<path d="M20.3707 10.3636C20.1679 10.1608 19.8392 10.1608 19.6364 10.3636L12 18L19.6364 25.6364C19.8392 25.8392 20.1679 25.8392 20.3707 25.6364C20.5735 25.4336 20.5735 25.1049 20.3707 24.9021L13.4686 18L20.3707 11.0979C20.5735 10.8952 20.5735 10.5664 20.3707 10.3636Z" fill="#3E3F43"/>
</svg>
