<svg width="36" height="36" viewBox="0 0 36 36" fill="none" xmlns="http://www.w3.org/2000/svg">
<circle cx="18" cy="18" r="17.5" stroke="#3EA3F2"/>
<path d="M17.1396 16.738C19.3396 16.738 20.9529 17.156 21.9796 17.992C23.0209 18.8133 23.5416 19.9427 23.5416 21.38C23.5416 22.2893 23.3216 23.1107 22.8816 23.844C22.4563 24.5627 21.8036 25.1347 20.9236 25.56C20.0583 25.9707 18.9876 26.176 17.7116 26.176C16.6263 26.176 15.5776 26.0147 14.5656 25.692C13.5536 25.3547 12.7176 24.8927 12.0576 24.306L13.0696 22.568C13.5976 23.0667 14.2723 23.47 15.0936 23.778C15.9149 24.0713 16.7803 24.218 17.6896 24.218C18.8483 24.218 19.7429 23.976 20.3736 23.492C21.0189 22.9933 21.3416 22.3187 21.3416 21.468C21.3416 20.544 20.9896 19.8473 20.2856 19.378C19.5816 18.894 18.3789 18.652 16.6776 18.652H13.1796L13.9936 10.6H22.6836V12.514H15.8416L15.4236 16.738H17.1396Z" fill="#3EA3F2"/>
</svg>
