<svg width="58" height="58" viewBox="0 0 58 58" fill="none" xmlns="http://www.w3.org/2000/svg">
<circle cx="28.9996" cy="28.9998" r="28" stroke="#3EA3F2" stroke-width="2"/>
<path d="M37.9637 38.8047V41.8884H20.1352V39.4781L30.2368 29.7309C31.4656 28.5494 32.2926 27.5334 32.7179 26.6827C33.1433 25.8084 33.3559 24.9341 33.3559 24.0598C33.3559 22.7602 32.8952 21.7559 31.9736 21.047C31.0757 20.3145 29.7761 19.9483 28.0747 19.9483C25.3337 19.9483 23.2188 20.8462 21.7302 22.642L19.3199 20.5508C20.2888 19.3693 21.5529 18.4478 23.1125 17.7861C24.6957 17.1245 26.4561 16.7937 28.3937 16.7937C30.993 16.7937 33.0606 17.4199 34.5965 18.6723C36.1324 19.901 36.9004 21.5787 36.9004 23.7054C36.9004 25.0286 36.6168 26.281 36.0497 27.4625C35.4826 28.644 34.4075 29.9908 32.8243 31.5031L25.2392 38.8047H37.9637Z" fill="#3EA3F2"/>
</svg>
