<svg width="36" height="36" viewBox="0 0 36 36" fill="none" xmlns="http://www.w3.org/2000/svg">
<circle cx="18" cy="18" r="17.5" stroke="#3EA3F2"/>
<path d="M18.9109 16.65C19.9229 16.65 20.8249 16.8407 21.6169 17.222C22.4236 17.6033 23.0543 18.1533 23.5089 18.872C23.9636 19.576 24.1909 20.39 24.1909 21.314C24.1909 22.282 23.9489 23.1327 23.4649 23.866C22.9956 24.5993 22.3429 25.1713 21.5069 25.582C20.6856 25.978 19.7616 26.176 18.7349 26.176C16.6669 26.176 15.0683 25.5087 13.9389 24.174C12.8243 22.8393 12.2669 20.9473 12.2669 18.498C12.2669 16.782 12.5676 15.3227 13.1689 14.12C13.7849 12.9027 14.6356 11.986 15.7209 11.37C16.8209 10.7393 18.0969 10.424 19.5489 10.424C20.2969 10.424 21.0009 10.5047 21.6609 10.666C22.3209 10.8127 22.8929 11.0327 23.3769 11.326L22.5409 13.042C21.8076 12.558 20.8249 12.316 19.5929 12.316C17.9943 12.316 16.7403 12.8147 15.8309 13.812C14.9216 14.7947 14.4669 16.232 14.4669 18.124C14.4669 18.3587 14.4743 18.542 14.4889 18.674C14.9289 18.014 15.5303 17.5153 16.2929 17.178C17.0703 16.826 17.9429 16.65 18.9109 16.65ZM18.6469 24.394C19.6589 24.394 20.4803 24.1227 21.1109 23.58C21.7416 23.0373 22.0569 22.3113 22.0569 21.402C22.0569 20.4927 21.7343 19.774 21.0889 19.246C20.4583 18.7033 19.6076 18.432 18.5369 18.432C17.8476 18.432 17.2316 18.564 16.6889 18.828C16.1609 19.092 15.7429 19.4513 15.4349 19.906C15.1416 20.3607 14.9949 20.8667 14.9949 21.424C14.9949 21.9667 15.1343 22.4653 15.4129 22.92C15.7063 23.36 16.1243 23.7193 16.6669 23.998C17.2243 24.262 17.8843 24.394 18.6469 24.394Z" fill="#3EA3F2"/>
</svg>
