<svg width="58" height="58" viewBox="0 0 58 58" fill="none" xmlns="http://www.w3.org/2000/svg">
<circle cx="29" cy="29" r="28" stroke="#3EA3F2" stroke-width="2"/>
<path d="M31.6678 27.4978C34.1016 27.7341 35.9565 28.4903 37.2325 29.7663C38.5085 31.0186 39.1465 32.6254 39.1465 34.5867C39.1465 36.0045 38.7921 37.2923 38.0832 38.4501C37.3743 39.5844 36.311 40.4941 34.8932 41.1794C33.4991 41.841 31.7859 42.1718 29.7538 42.1718C27.9815 42.1718 26.2802 41.9119 24.6498 41.392C23.0193 40.8486 21.6842 40.1042 20.6445 39.159L22.275 36.3589C23.1256 37.1623 24.2126 37.8122 25.5359 38.3084C26.8591 38.781 28.2651 39.0173 29.7538 39.0173C31.5969 39.0173 33.0265 38.6274 34.0425 37.8476C35.0822 37.0678 35.6021 35.9927 35.6021 34.6222C35.6021 33.2516 35.0941 32.1883 34.078 31.4321C33.0619 30.676 31.526 30.2979 29.4702 30.2979H27.4853V27.8168L33.7235 20.1608H21.7788V17.0771H38.1541V19.4874L31.6678 27.4978Z" fill="#3EA3F2"/>
</svg>
