<svg width="22" height="22" viewBox="0 0 22 22" fill="none" xmlns="http://www.w3.org/2000/svg">
<path d="M10.9999 0.880005C5.41601 0.880005 0.879883 5.41613 0.879883 11C0.879883 16.5839 5.41601 21.12 10.9999 21.12C16.5838 21.12 21.1199 16.5839 21.1199 11C21.1199 5.41613 16.5838 0.880005 10.9999 0.880005ZM10.9999 1.76C16.1082 1.76 20.2399 5.89171 20.2399 11C20.2399 16.1083 16.1082 20.24 10.9999 20.24C5.89159 20.24 1.75988 16.1083 1.75988 11C1.75988 5.89171 5.89159 1.76 10.9999 1.76ZM10.9999 4.84C10.2708 4.84 9.67988 5.43091 9.67988 6.16C9.67988 6.8891 10.2708 7.48 10.9999 7.48C11.729 7.48 12.3199 6.8891 12.3199 6.16C12.3199 5.43091 11.729 4.84 10.9999 4.84ZM9.23988 9.24V10.12H10.1199V15.84H9.23988V16.72H12.7599V15.84H11.8799V9.24H9.23988Z" fill="#3EA3F2"/>
</svg>
