<svg width="58" height="55" viewBox="0 0 58 55" fill="none" xmlns="http://www.w3.org/2000/svg">
<path d="M18.56 0V13.92H27.84V25.52H6.96V40.6H0V54.52H16.24V40.6H9.28V27.84H27.84V40.6H20.88V54.52H37.12V40.6H30.16V27.84H48.72V40.6H41.76V54.52H58V40.6H51.04V25.52H30.16V13.92H39.44V0H18.56ZM20.88 2.32H37.12V11.6H29.2537C29.1359 11.5683 29.0136 11.5547 28.8912 11.5638C28.855 11.5728 28.8187 11.5864 28.7825 11.6H20.88V2.32ZM2.32 42.92H13.92V52.2H2.32V42.92ZM23.2 42.92H34.8V52.2H23.2V42.92ZM44.08 42.92H55.68V52.2H44.08V42.92Z" fill="#3EA3F2"/>
</svg>
