<svg width="60" height="53" viewBox="0 0 60 53" fill="none" xmlns="http://www.w3.org/2000/svg">
<path d="M40.6936 0.785087C39.5109 0.853056 38.3464 1.14306 37.2498 1.69134L30.8698 4.80884H12.7448L2.4498 2.30759C2.29573 2.26227 2.13714 2.25321 1.97855 2.27134C1.41667 2.33931 0.990734 2.80149 0.963547 3.3679C0.936359 3.92977 1.31698 4.43274 1.8698 4.55509L12.3098 7.09259L12.4548 7.12884H26.1211L16.2611 11.9501C16.2203 11.9682 16.1931 12.0045 16.1523 12.0226C14.6207 12.6977 14.2175 14.7912 15.3548 16.0101L15.3186 16.0463C15.3367 16.0645 15.3729 16.0645 15.3911 16.0826C18.8439 19.8662 24.3131 21.1213 29.1298 19.2363H29.1661L35.9811 16.5901L50.0461 30.6913C51.1109 31.7562 51.1109 33.4327 50.0461 34.4976C48.9812 35.5624 47.3047 35.5624 46.2398 34.4976C45.7776 34.126 45.1115 34.1623 44.6901 34.5791C44.2733 35.0006 44.237 35.6666 44.6086 36.1288C45.6734 37.1937 45.6734 38.9065 44.6086 39.9713C43.5437 41.0362 41.8672 41.0362 40.8023 39.9713L39.9686 39.1376C39.5064 38.766 38.8403 38.8023 38.4189 39.2191C38.002 39.6406 37.9657 40.3066 38.3373 40.7688C39.4022 41.8337 39.4022 43.5465 38.3373 44.6113C37.2725 45.6762 35.5959 45.6762 34.5311 44.6113L33.7336 43.7776C33.285 43.3154 32.5464 43.3109 32.0842 43.7595C31.622 44.2081 31.6175 44.9466 32.0661 45.4088C33.1309 46.4737 33.1309 48.1865 32.0661 49.2513C31.0012 50.3162 29.3247 50.3162 28.2598 49.2513L26.8098 47.8013L27.6798 46.9313C29.379 45.2321 29.379 42.4681 27.6798 40.7688C26.8325 39.9215 25.7132 39.5001 24.5986 39.5001C24.585 39.5001 24.5759 39.5001 24.5623 39.5001C24.5804 38.3582 24.159 37.2118 23.2936 36.3463C22.4462 35.499 21.327 35.0776 20.2123 35.0776C20.1534 35.0776 20.09 35.0731 20.0311 35.0776C20.0673 33.9131 19.6504 32.7395 18.7623 31.8513C17.915 31.004 16.7957 30.5463 15.6811 30.5463C15.6221 30.5463 15.5587 30.5418 15.4998 30.5463C15.5361 29.3818 15.1192 28.2082 14.2311 27.3201C13.3837 26.4727 12.2645 26.0513 11.1498 26.0513C10.0351 26.0513 8.91589 26.4727 8.06855 27.3201L7.0173 28.3713L2.34105 27.5738C2.26855 27.5557 2.19605 27.5421 2.12355 27.5376C1.48464 27.4968 0.931828 27.9862 0.891047 28.6251C0.850265 29.264 1.33964 29.8168 1.97855 29.8576L5.7848 30.5463C5.44042 31.9737 5.79839 33.5324 6.90855 34.6426C7.80574 35.5398 8.99746 35.9612 10.1711 35.9113C10.1212 37.0849 10.5426 38.2766 11.4398 39.1738C12.337 40.071 13.5287 40.4924 14.7023 40.4426C14.6661 41.6071 15.0829 42.7807 15.9711 43.6688C16.8365 44.5343 17.9829 44.9557 19.1248 44.9376C19.0976 46.084 19.5054 47.2395 20.3573 48.0913L20.3936 48.1276C21.6034 49.3102 23.3434 49.6229 24.8523 49.1063L26.6286 50.8826C28.577 52.831 31.7851 52.831 33.7336 50.8826C34.6806 49.9356 35.1201 48.6849 35.1473 47.4388C36.8239 47.8829 38.6636 47.5476 39.9686 46.2426C40.9156 45.2956 41.3914 44.0449 41.4186 42.7988C43.0906 43.2384 44.9348 42.9076 46.2398 41.6026C47.3545 40.4879 47.7759 38.9699 47.6173 37.5063C49.0809 37.6695 50.5989 37.2435 51.7136 36.1288C52.9597 34.8827 53.4037 33.1337 53.0548 31.5251L53.7436 30.8363L58.0211 30.2201C58.66 30.1204 59.0995 29.5177 58.9998 28.8788C58.9001 28.2399 58.2975 27.8004 57.6586 27.9001L53.0186 28.6251L52.6561 28.6613L51.9673 29.3501C51.8858 29.2549 51.8042 29.1507 51.7136 29.0601L37.4311 14.7776C37.3767 14.7232 37.3132 14.6734 37.2498 14.6326C37.2362 14.619 37.2272 14.6099 37.2136 14.5963C36.91 14.1477 36.339 13.971 35.8361 14.1613L28.2961 17.0613C24.3312 18.6291 19.8679 17.6096 17.0586 14.4876L17.0223 14.4513C16.8728 14.3018 16.8637 14.1976 17.0586 14.1251H17.1311L17.1673 14.0888L31.4861 7.09259C31.7307 7.05634 31.9618 6.94306 32.1386 6.76634L38.2648 3.75759H38.3011C40.4398 2.68821 42.9365 2.90571 44.8986 4.22884L45.3336 4.73634L45.4423 4.88134L45.5873 4.95384C47.6943 6.40384 50.2318 6.78899 52.6198 6.15009V6.18634L52.6923 6.15009L58.0936 5.02634C58.7234 4.88587 59.1222 4.26056 58.9817 3.63071C58.8412 3.00087 58.2159 2.60212 57.5861 2.74259L52.1486 3.90259L52.1123 3.93884H52.0761C50.3451 4.41915 48.5598 4.10196 47.0011 3.06884L46.5661 2.56134L46.4573 2.45259L46.3123 2.34384C44.9801 1.4104 43.4576 0.9029 41.8898 0.785087C41.4956 0.7579 41.0878 0.762431 40.6936 0.785087ZM11.1498 28.2988C11.6573 28.2988 12.1739 28.5254 12.5998 28.9513C13.4517 29.8032 13.4517 30.9995 12.5998 31.8513L11.6936 32.7213L11.5848 32.8301L11.4398 33.0113C10.5879 33.8632 9.39167 33.8632 8.5398 33.0113C7.84199 32.3135 7.73777 31.3982 8.1773 30.6188C8.38121 30.4738 8.53074 30.2745 8.6123 30.0388L9.5548 29.1326L9.6998 28.9513C10.1257 28.5254 10.6423 28.2988 11.1498 28.2988ZM15.6811 32.8301C16.1886 32.8301 16.7051 33.0566 17.1311 33.4826C17.9829 34.3345 17.9829 35.4945 17.1311 36.3463L15.9711 37.5063C15.1192 38.3582 13.9229 38.3582 13.0711 37.5063C12.2192 36.6545 12.2192 35.4945 13.0711 34.6426L14.2311 33.4826C14.657 33.0566 15.1736 32.8301 15.6811 32.8301ZM20.2123 37.3613C20.7198 37.3613 21.2001 37.5879 21.6261 38.0138C22.3284 38.7162 22.4462 39.6315 21.9886 40.4063C21.83 40.5241 21.6623 40.6238 21.5173 40.7688L20.3573 41.9288V41.9651H20.3211C20.1942 42.1056 20.099 42.2506 19.9948 42.4001C19.22 42.8577 18.3046 42.7399 17.6023 42.0376C16.7504 41.1857 16.7504 40.0257 17.6023 39.1738L18.4723 38.2676L18.6898 38.0863L18.7623 38.0138C19.1882 37.5879 19.7048 37.3613 20.2123 37.3613ZM24.5986 41.7838C25.1061 41.7838 25.6226 41.9741 26.0486 42.4001C26.9004 43.252 26.9004 44.4482 26.0486 45.3001L24.8886 46.4601C24.7889 46.5598 24.7073 46.6731 24.5986 46.7501C24.5895 46.7546 24.5714 46.7456 24.5623 46.7501C23.7512 47.312 22.7362 47.2077 21.9886 46.4601C21.4403 45.9118 21.3134 44.8152 21.6986 43.9951C21.8436 43.8818 22.0021 43.8002 22.1336 43.6688L23.2936 42.5088C23.4476 42.3548 23.5654 42.1735 23.6923 42.0013C23.9823 41.8563 24.295 41.7838 24.5986 41.7838Z" fill="#3EA3F2"/>
</svg>
