<svg width="52" height="52" viewBox="0 0 52 52" fill="none" xmlns="http://www.w3.org/2000/svg">
<path d="M26 0.47998C11.9196 0.47998 0.47998 11.9196 0.47998 26C0.47998 40.0804 11.9196 51.52 26 51.52C40.0804 51.52 51.52 40.0804 51.52 26C51.52 11.9196 40.0804 0.47998 26 0.47998ZM26 2.79998C38.8266 2.79998 49.2 13.1734 49.2 26C49.2 38.8266 38.8266 49.2 26 49.2C13.1734 49.2 2.79998 38.8266 2.79998 26C2.79998 13.1734 13.1734 2.79998 26 2.79998ZM37.5864 14.3864C37.2035 14.3941 36.8492 14.5898 36.6394 14.9097L24.806 32.3528L16.3484 24.5047C16.0462 24.2138 15.6103 24.1086 15.2084 24.2301C14.8064 24.3515 14.5019 24.6805 14.4113 25.0901C14.3207 25.5002 14.4584 25.9266 14.7715 26.2062L25.207 35.8894L38.5606 16.2102C38.8103 15.8522 38.8384 15.3846 38.6327 14.9995C38.4269 14.6148 38.0228 14.3778 37.5864 14.3864Z" fill="#3EA3F2"/>
</svg>
