<svg width="58" height="58" viewBox="0 0 58 58" fill="none" xmlns="http://www.w3.org/2000/svg">
<path d="M6.96 0C3.13109 0 0 3.13109 0 6.96C0 10.7889 3.13109 13.92 6.96 13.92C8.45984 13.92 9.84641 13.4306 10.9837 12.615L20.01 21.6775C18.3742 23.6758 17.4 26.2223 17.4 29C17.4 31.2973 18.0933 33.4316 19.2487 35.235L11.6362 41.2525C10.3992 40.1287 8.75437 39.44 6.96 39.44C3.13109 39.44 0 42.5711 0 46.4C0 50.2289 3.13109 53.36 6.96 53.36C10.7889 53.36 13.92 50.2289 13.92 46.4C13.92 45.1856 13.6028 44.0619 13.05 43.065L20.6987 37.0475C22.8103 39.2225 25.7375 40.6 29 40.6C30.5406 40.6 32.0042 40.3145 33.35 39.7663L36.395 45.53C34.732 46.8033 33.64 48.7925 33.64 51.04C33.64 54.8689 36.7711 58 40.6 58C44.4289 58 47.56 54.8689 47.56 51.04C47.56 47.2111 44.4289 44.08 40.6 44.08C39.8433 44.08 39.1092 44.2159 38.425 44.4425L35.38 38.6787C37.5686 37.2333 39.2406 35.0628 40.0562 32.5163L44.08 33.35C44.0755 33.4452 44.08 33.5448 44.08 33.64C44.08 37.4689 47.2111 40.6 51.04 40.6C54.8689 40.6 58 37.4689 58 33.64C58 29.8111 54.8689 26.68 51.04 26.68C48.0992 26.68 45.5662 28.5106 44.5513 31.1025L40.5275 30.2325C40.5683 29.8292 40.6 29.4123 40.6 29C40.6 24.437 37.922 20.4858 34.075 18.5962L35.8512 13.8112C36.2591 13.8837 36.6941 13.92 37.12 13.92C40.9489 13.92 44.08 10.7889 44.08 6.96C44.08 3.13109 40.9489 0 37.12 0C33.2911 0 30.16 3.13109 30.16 6.96C30.16 9.52922 31.5919 11.7722 33.6763 12.9775L31.9 17.7987C30.9666 17.5541 30.0059 17.4 29 17.4C26.2223 17.4 23.6758 18.3742 21.6775 20.01L12.615 10.9837C13.4306 9.84641 13.92 8.45984 13.92 6.96C13.92 3.13109 10.7889 0 6.96 0ZM6.96 2.32C9.53828 2.32 11.6 4.38172 11.6 6.96C11.6 9.53828 9.53828 11.6 6.96 11.6C4.38172 11.6 2.32 9.53828 2.32 6.96C2.32 4.38172 4.38172 2.32 6.96 2.32ZM37.12 2.32C39.6983 2.32 41.76 4.38172 41.76 6.96C41.76 9.53828 39.6983 11.6 37.12 11.6C34.5417 11.6 32.48 9.53828 32.48 6.96C32.48 4.38172 34.5417 2.32 37.12 2.32ZM29 19.72C34.143 19.72 38.28 23.8661 38.28 29C38.28 34.143 34.143 38.28 29 38.28C23.8616 38.28 19.72 34.143 19.72 29C19.72 26.5033 20.6987 24.2512 22.2937 22.5837C22.3889 22.5112 22.475 22.4252 22.5475 22.33C24.215 20.7169 26.4852 19.72 29 19.72ZM51.04 29C53.6183 29 55.68 31.0617 55.68 33.64C55.68 36.2183 53.6183 38.28 51.04 38.28C48.4617 38.28 46.4 36.2183 46.4 33.64C46.4 31.0617 48.4617 29 51.04 29ZM6.96 41.76C9.53828 41.76 11.6 43.8217 11.6 46.4C11.6 48.9783 9.53828 51.04 6.96 51.04C4.38172 51.04 2.32 48.9783 2.32 46.4C2.32 43.8217 4.38172 41.76 6.96 41.76ZM40.6 46.4C43.1783 46.4 45.24 48.4617 45.24 51.04C45.24 53.6183 43.1783 55.68 40.6 55.68C38.0217 55.68 35.96 53.6183 35.96 51.04C35.96 49.2819 36.9206 47.7684 38.3525 46.98C38.3887 46.9709 38.425 46.9573 38.4613 46.9437C38.4748 46.9347 38.4839 46.9166 38.4975 46.9075C38.5202 46.8984 38.5473 46.8848 38.57 46.8713C39.1817 46.5767 39.8705 46.4 40.6 46.4Z" fill="#3EA3F2"/>
</svg>
