<svg width="54" height="54" viewBox="0 0 54 54" fill="none" xmlns="http://www.w3.org/2000/svg">
<path d="M26.9998 0.329102C12.2787 0.329102 0.319824 12.288 0.319824 27.0091C0.319824 41.7302 12.2787 53.6891 26.9998 53.6891C41.721 53.6891 53.6798 41.7302 53.6798 27.0091C53.6798 12.288 41.721 0.329102 26.9998 0.329102ZM26.9998 2.6491C40.4672 2.6491 51.3598 13.5418 51.3598 27.0091C51.3598 33.6592 48.6964 39.6739 44.3862 44.067C42.2638 42.5087 39.6765 41.7271 37.4851 40.9472C36.2508 40.5081 35.1416 40.0731 34.3314 39.5879C33.5556 39.1234 33.1247 38.6458 32.8972 38.0971C32.7908 36.7667 32.8121 35.6955 32.8202 34.4313C32.9607 34.2913 33.141 34.1929 33.2847 34.0235C33.6232 33.6238 33.9684 33.1381 34.2974 32.5916C34.862 31.655 35.2725 30.509 35.5027 29.3472C35.8543 29.1682 36.2295 29.1293 36.5154 28.765C37.0433 28.0921 37.3995 27.1455 37.5576 25.8264C37.6977 24.6619 37.3225 23.8608 36.8394 23.2459C37.3592 21.5467 38.0026 18.8447 37.7842 16.048C37.6641 14.5096 37.2767 12.9609 36.3455 11.6731C35.4565 10.4438 34.0128 9.55971 32.1655 9.23981C30.9919 7.90762 29.1282 7.28004 26.9001 7.28004H26.8797C21.8886 7.37157 18.6682 9.43737 17.2894 12.5884C15.978 15.5845 16.2603 19.3146 17.201 23.1983C16.6953 23.8132 16.2988 24.6293 16.442 25.8264C16.6006 27.145 16.9568 28.0921 17.4842 28.765C17.7697 29.1293 18.1453 29.1678 18.4969 29.3472C18.7271 30.5081 19.1377 31.6523 19.7022 32.5893C20.0312 33.1358 20.376 33.6211 20.715 34.0212C20.8586 34.1907 21.0385 34.2913 21.1794 34.4313C21.1871 35.6951 21.2084 36.7658 21.1024 38.0971C20.8754 38.644 20.4449 39.1216 19.6705 39.5879C18.8617 40.075 17.7534 40.5122 16.5213 40.954C14.3323 41.7384 11.7467 42.5259 9.61795 44.0715C5.30511 39.678 2.63982 33.6614 2.63982 27.0091C2.63982 13.5418 13.5325 2.6491 26.9998 2.6491ZM26.9092 9.60231C29.0484 9.60457 30.3942 10.238 30.763 10.8846L31.0462 11.3808L31.6104 11.4579C33.0676 11.6604 33.8819 12.2259 34.4651 13.0325C35.0482 13.839 35.3722 14.965 35.471 16.2293C35.6686 18.7581 34.9449 21.7438 34.4855 23.1258L34.1932 24.0026L34.9839 24.4829C34.9032 24.434 35.3555 24.7018 35.2535 25.55C35.1298 26.5823 34.8661 27.1079 34.6894 27.3331C34.5126 27.5583 34.437 27.5293 34.456 27.5279L33.4999 27.6072L33.3979 28.5611C33.3105 29.3808 32.8497 30.4982 32.3104 31.3931C32.0408 31.8403 31.754 32.2391 31.513 32.5236C31.2719 32.8082 31.015 32.9845 31.1119 32.9337L30.4912 33.2577V33.96C30.4912 35.4961 30.4286 36.7526 30.5908 38.5411L30.6044 38.6952L30.6588 38.8402C31.1151 40.0686 32.068 40.9354 33.1397 41.5771C34.2113 42.2187 35.4406 42.6827 36.708 43.1336C38.7969 43.8767 40.9751 44.6085 42.6349 45.6892C38.4054 49.2322 32.9571 51.3691 26.9998 51.3691C21.0449 51.3691 15.5983 49.234 11.3693 45.6937C13.0386 44.6194 15.2199 43.8857 17.3052 43.1381C18.5722 42.6841 19.7979 42.2182 20.8668 41.5748C21.9357 40.9314 22.885 40.0645 23.3408 38.8402L23.3952 38.6952L23.4088 38.5411C23.5697 36.754 23.5085 35.4975 23.5085 33.96V33.2577L22.8877 32.9314C22.9847 32.9822 22.7278 32.8059 22.4867 32.5214C22.2456 32.2368 21.9588 31.8408 21.6892 31.3931C21.15 30.4982 20.6892 29.3794 20.6017 28.5611L20.4997 27.6072L19.5437 27.5279C19.5618 27.5293 19.4866 27.5583 19.3103 27.3331C19.134 27.1079 18.8703 26.5827 18.7462 25.55C18.6447 24.7013 19.1019 24.4304 19.0158 24.4829L19.7521 24.0366L19.5369 23.2006C18.5386 19.359 18.3877 15.8636 19.4145 13.5173C20.4404 11.1733 22.4949 9.68613 26.9092 9.60231Z" fill="#3EA3F2"/>
</svg>
