<svg width="54" height="54" viewBox="0 0 54 54" fill="none" xmlns="http://www.w3.org/2000/svg">
<path d="M27.0003 0.320068C12.2792 0.320068 0.320312 12.2789 0.320312 27.0001C0.320312 41.7212 12.2792 53.6801 27.0003 53.6801C41.7214 53.6801 53.6803 41.7212 53.6803 27.0001C53.6803 12.2789 41.7214 0.320068 27.0003 0.320068ZM27.0003 2.64007C40.4676 2.64007 51.3603 13.5327 51.3603 27.0001C51.3603 40.4674 40.4676 51.3601 27.0003 51.3601C13.533 51.3601 2.64031 40.4674 2.64031 27.0001C2.64031 13.5327 13.533 2.64007 27.0003 2.64007ZM27.0003 10.7601C18.0448 10.7601 10.7603 18.0445 10.7603 27.0001C10.7603 35.9556 18.0448 43.2401 27.0003 43.2401C34.2141 43.2401 40.3399 38.523 42.4496 31.998C42.5643 31.6446 42.5026 31.2576 42.2838 30.9572C42.0649 30.6568 41.7155 30.4796 41.344 30.4801H36.3415C35.9015 30.4805 35.4996 30.7297 35.3038 31.1235C33.7836 34.1771 30.6498 36.2801 27.0003 36.2801C21.8605 36.2801 17.7203 32.1399 17.7203 27.0001C17.7203 21.8603 21.8605 17.7201 27.0003 17.7201C30.6511 17.7201 33.785 19.823 35.3038 22.8766C35.4996 23.2704 35.9015 23.5196 36.3415 23.5201H41.344C41.7155 23.5205 42.0649 23.3434 42.2838 23.0429C42.5026 22.7425 42.5643 22.3555 42.4496 22.0021C40.3399 15.4771 34.2141 10.7601 27.0003 10.7601ZM27.0003 13.0801C32.5941 13.0801 37.2582 16.4549 39.4726 21.2001H36.9419C34.93 17.7609 31.2647 15.4001 27.0003 15.4001C20.6072 15.4001 15.4003 20.6069 15.4003 27.0001C15.4003 33.3932 20.6072 38.6001 27.0003 38.6001C31.2633 38.6001 34.9268 36.2388 36.9396 32.8001H39.4726C37.2582 37.5452 32.5941 40.9201 27.0003 40.9201C19.2985 40.9201 13.0803 34.7018 13.0803 27.0001C13.0803 19.2983 19.2985 13.0801 27.0003 13.0801Z" fill="#3EA3F2"/>
</svg>
