<svg width="58" height="58" viewBox="0 0 58 58" fill="none" xmlns="http://www.w3.org/2000/svg">
<path d="M11.5275 0.616211L10.6937 1.41371L1.41371 10.6937L0.616211 11.5275L1.41371 12.3612L19.5387 30.4862L5.00246 45.0225C4.85293 45.1584 4.73965 45.3351 4.67621 45.53L2.35621 54.23C2.25199 54.6287 2.3698 55.0501 2.6598 55.3401C2.9498 55.6301 3.37121 55.7479 3.76996 55.6437L12.47 53.3237C12.6648 53.2603 12.8415 53.147 12.9775 52.9975L53.07 12.905C53.0654 12.9095 54.0125 11.9625 54.0125 11.9625C56.2192 9.75574 56.2146 6.18965 54.0125 3.98746C51.8057 1.78074 48.2442 1.78527 46.0375 3.98746L30.4862 19.5387L12.3612 1.41371L11.5275 0.616211ZM11.5275 3.91496L13.4125 5.79996L11.9262 7.28621L13.5937 8.95371L15.08 7.46746L16.8925 9.27996L14.2462 11.9262L15.9137 13.5937L18.56 10.9475L20.3725 12.76L18.8862 14.2462L20.5537 15.9137L22.04 14.4275L23.8525 16.24L21.2062 18.8862L22.8737 20.5537L25.52 17.9075L27.3325 19.72L25.8462 21.2062L27.3325 22.6925L21.2062 28.8187L3.91496 11.5275L11.5275 3.91496ZM46.7262 6.56121L51.4387 11.2737L11.5637 51.1487L6.85121 46.4362L46.7262 6.56121ZM39.44 28.5287L38.6062 29.3262L36.2862 31.6462L37.9537 33.3137L39.44 31.8275L41.2525 33.64L38.6062 36.2862L40.2737 37.9537L42.92 35.3075L44.7325 37.12L43.2462 38.6062L44.9137 40.2737L46.4 38.7875L48.2125 40.6L45.5662 43.2462L47.2337 44.9137L49.88 42.2675L51.6925 44.08L50.2062 45.5662L51.8737 47.2337L53.36 45.7475L54.085 46.4725L46.4725 54.085L30.16 37.8087L28.5287 39.44L45.6387 56.5862L46.4725 57.3837L47.3062 56.5862L56.5862 47.3062L57.3837 46.4725L56.5862 45.6387L39.44 28.5287Z" fill="#3EA3F2"/>
</svg>
