<svg width="54" height="54" viewBox="0 0 54 54" fill="none" xmlns="http://www.w3.org/2000/svg">
<path d="M27 0.320312C12.2891 0.320312 0.320312 12.2891 0.320312 27C0.320312 41.7109 12.2891 53.6797 27 53.6797C41.7109 53.6797 53.6797 41.7109 53.6797 27C53.6797 21.668 52.1016 16.6992 49.3945 12.5234L48.3594 13.5586L47.6992 14.2227C50.0039 17.9414 51.3594 22.3086 51.3594 27C51.3594 40.4336 40.4336 51.3594 27 51.3594C13.5664 51.3594 2.64062 40.4336 2.64062 27C2.64062 13.5664 13.5664 2.64062 27 2.64062C32.6992 2.64062 37.9258 4.63281 42.0781 7.92578V10.2812L39.2539 13.1055C35.9844 10.2109 31.6992 8.44141 27 8.44141C16.7656 8.44141 8.44141 16.7656 8.44141 27C8.44141 37.2344 16.7656 45.5586 27 45.5586C37.2344 45.5586 45.5586 37.2344 45.5586 27C45.5586 23.1367 44.3711 19.5508 42.3438 16.5742L40.6641 18.2578C42.2852 20.7852 43.2383 23.7812 43.2383 27C43.2383 35.957 35.957 43.2383 27 43.2383C18.043 43.2383 10.7617 35.957 10.7617 27C10.7617 18.043 18.043 10.7617 27 10.7617C31.0625 10.7617 34.7656 12.2695 37.6133 14.7461L33.5 18.8594C31.7148 17.4297 29.4609 16.5586 27 16.5586C21.2422 16.5586 16.5586 21.2422 16.5586 27C16.5586 32.7578 21.2422 37.4414 27 37.4414C32.7578 37.4414 37.4414 32.7578 37.4414 27C37.4414 25.3906 37.0625 23.875 36.4102 22.5117L34.6406 24.2773C34.9453 25.1289 35.1211 26.0469 35.1211 27C35.1211 31.4766 31.4766 35.1211 27 35.1211C22.5234 35.1211 18.8789 31.4766 18.8789 27C18.8789 22.5234 22.5234 18.8789 27 18.8789C28.8203 18.8789 30.4961 19.4883 31.8516 20.5078L27.5977 24.7617C27.4023 24.707 27.2031 24.6797 27 24.6797C25.7188 24.6797 24.6797 25.7188 24.6797 27C24.6797 28.2812 25.7188 29.3203 27 29.3203C28.2812 29.3203 29.3203 28.2812 29.3203 27C29.3203 26.7969 29.293 26.5938 29.2422 26.3984L43.7188 11.9219H46.7188L52.5195 6.12109H47.8789V1.48047L43.3867 5.97266C38.8594 2.4375 33.1758 0.320312 27 0.320312Z" fill="#3EA3F2"/>
</svg>
