<svg width="48" height="58" viewBox="0 0 48 58" fill="none" xmlns="http://www.w3.org/2000/svg">
<path d="M14.5023 0C13.9495 0.104219 13.5507 0.593594 13.5598 1.16V2.32H4.17105C2.31324 2.32 0.799805 3.83344 0.799805 5.69125V54.52C0.799805 56.4277 2.31324 58 4.17105 58H43.7198C45.6275 58 47.0911 56.4095 47.0911 54.6287V5.8C47.0956 5.76375 47.0865 5.7275 47.0911 5.69125C47.2089 3.82891 45.6456 2.32 43.8286 2.32H34.4398V1.16C34.4398 0.521094 33.9187 0 33.2798 0H14.7198C14.6836 0 14.6473 0 14.6111 0C14.5748 0 14.5386 0 14.5023 0ZM15.8798 2.32H32.1198V9.28H15.8798V2.32ZM4.17105 4.64H13.5598V6.96H5.4398V53.36H42.5598V6.96H34.4398V4.64H43.8286C44.2907 4.64 44.8118 5.17469 44.7711 5.5825C44.7711 5.61875 44.7711 5.655 44.7711 5.69125V54.6287C44.7711 55.168 44.3632 55.68 43.7198 55.68H4.17105C3.70887 55.68 3.1198 55.1634 3.1198 54.52V5.69125C3.1198 5.22906 3.70887 4.64 4.17105 4.64ZM7.7598 9.28H13.5598V10.44C13.5598 11.0789 14.0809 11.6 14.7198 11.6H33.2798C33.9187 11.6 34.4398 11.0789 34.4398 10.44V9.28H40.2398V51.04H7.7598V9.28ZM12.3998 19.72V29H21.6798V19.72H12.3998ZM14.7198 22.04H19.3598V26.68H14.7198V22.04ZM25.1598 23.2V25.52H35.5998V23.2H25.1598ZM12.3998 34.8V44.08H21.6798V34.8H12.3998ZM14.7198 37.12H19.3598V41.76H14.7198V37.12ZM15.8798 38.28V40.6H18.1998V38.28H15.8798ZM25.1598 38.28V40.6H35.5998V38.28H25.1598Z" fill="#3EA3F2"/>
</svg>
