<svg width="10" height="14" viewBox="0 0 10 14" fill="none" xmlns="http://www.w3.org/2000/svg">
<path d="M4.99999 0.280762C2.52483 0.280762 0.519989 2.28561 0.519989 4.76076C0.519989 6.80717 1.60061 9.0067 2.66374 10.7108C3.72686 12.4148 4.78999 13.6245 4.78999 13.6245C4.84358 13.6847 4.92015 13.7197 4.99999 13.7197C5.07983 13.7197 5.15639 13.6847 5.20999 13.6245C5.20999 13.6245 6.27421 12.3897 7.33624 10.6758C8.39827 8.96186 9.47999 6.76779 9.47999 4.76076C9.47999 2.28561 7.47514 0.280762 4.99999 0.280762ZM4.99999 0.840762C7.17327 0.840762 8.91999 2.58748 8.91999 4.76076C8.91999 6.56217 7.90171 8.70373 6.86374 10.3783C5.99421 11.7815 5.25811 12.685 4.99999 12.9945C4.73968 12.6872 4.00358 11.8034 3.13624 10.4133C2.09936 8.75076 1.07999 6.60592 1.07999 4.76076C1.07999 2.58748 2.82671 0.840762 4.99999 0.840762ZM4.99999 3.08076C3.92046 3.08076 3.03999 3.96123 3.03999 5.04076C3.03999 6.12029 3.92046 7.00076 4.99999 7.00076C6.07952 7.00076 6.95999 6.12029 6.95999 5.04076C6.95999 3.96123 6.07952 3.08076 4.99999 3.08076ZM4.99999 3.64076C5.77655 3.64076 6.39999 4.2642 6.39999 5.04076C6.39999 5.81732 5.77655 6.44076 4.99999 6.44076C4.22343 6.44076 3.59999 5.81732 3.59999 5.04076C3.59999 4.2642 4.22343 3.64076 4.99999 3.64076Z" fill="#3E3F43"/>
</svg>
