<svg width="22" height="22" viewBox="0 0 22 22" fill="none" xmlns="http://www.w3.org/2000/svg">
<path d="M11 0.879395C5.41613 0.879395 0.880005 5.41552 0.880005 10.9994C0.880005 16.5833 5.41613 21.1194 11 21.1194C16.5839 21.1194 21.12 16.5833 21.12 10.9994C21.12 5.41552 16.5839 0.879395 11 0.879395ZM11 1.75939C16.1083 1.75939 20.24 5.8911 20.24 10.9994C20.24 16.1077 16.1083 20.2394 11 20.2394C5.89171 20.2394 1.76 16.1077 1.76 10.9994C1.76 5.8911 5.89171 1.75939 11 1.75939ZM10.9931 3.07338C10.7504 3.07716 10.5567 3.27671 10.56 3.51939V9.75588C10.0329 9.94219 9.68035 10.4403 9.68001 10.9994C9.68035 11.196 9.72469 11.3901 9.80977 11.5674L7.16891 14.2083C7.05393 14.3186 7.00769 14.4826 7.04791 14.6368C7.08813 14.791 7.20844 14.9113 7.36261 14.9515C7.51679 14.9917 7.68075 14.9455 7.7911 14.8305L10.432 12.1896C10.6093 12.2747 10.8034 12.3191 11 12.3194C11.7291 12.3194 12.32 11.7285 12.32 10.9994C12.3191 10.4406 11.9668 9.94305 11.44 9.75674V3.51939C11.4416 3.40046 11.395 3.28599 11.3109 3.20194C11.2267 3.11789 11.1121 3.07149 10.9931 3.07338Z" fill="#3E3F43"/>
</svg>
