<svg width="25" height="15" viewBox="0 0 25 15" fill="none" xmlns="http://www.w3.org/2000/svg">
<path opacity="0.9" d="M24.307 12.9195C24.2786 12.8582 24.2521 12.8074 24.2275 12.7666C23.8206 12.0327 23.0431 11.1318 21.8954 10.0638L21.8711 10.0393L21.859 10.0274L21.8467 10.0151L21.8344 10.0151C21.3135 9.51773 20.9836 9.18334 20.8455 9.01213C20.5927 8.68601 20.5361 8.35589 20.6743 8.02141C20.7718 7.7687 21.1384 7.235 21.7732 6.4196C22.1071 5.98746 22.3715 5.64111 22.5668 5.38018C23.9751 3.50496 24.5857 2.30667 24.3983 1.78484L24.3256 1.6629C24.2767 1.58948 24.1506 1.52232 23.9473 1.46107C23.7436 1.39995 23.4831 1.38984 23.1656 1.43057L19.6492 1.4549C19.5922 1.43468 19.5109 1.43657 19.4049 1.46107L19.2461 1.49786L19.1849 1.52849L19.1363 1.56528C19.0956 1.58961 19.0508 1.6324 19.002 1.69357C18.9533 1.75452 18.9127 1.82605 18.8802 1.90756C18.4973 2.89404 18.062 3.81121 17.5735 4.65905C17.2723 5.1646 16.9957 5.60274 16.7431 5.97371C16.4908 6.34456 16.2791 6.61779 16.1083 6.79293C15.9373 6.96824 15.7829 7.10869 15.6442 7.21479C15.5058 7.32093 15.4001 7.36577 15.327 7.34937C15.2536 7.33296 15.1845 7.31669 15.1192 7.30041C15.0053 7.22699 14.9137 7.12715 14.8446 7.0008C14.7752 6.87444 14.7285 6.7154 14.7041 6.52381C14.6798 6.33209 14.6654 6.16719 14.6613 6.02854C14.6575 5.89006 14.6593 5.69418 14.6675 5.44147C14.676 5.18863 14.6798 5.01756 14.6798 4.92786C14.6798 4.61801 14.6858 4.28173 14.6979 3.91894C14.7103 3.55615 14.7202 3.2687 14.7286 3.05693C14.7369 2.84495 14.7407 2.62068 14.7407 2.38424C14.7407 2.14781 14.7263 1.96238 14.6979 1.8278C14.6699 1.69339 14.6268 1.56293 14.5701 1.43644C14.513 1.31008 14.4294 1.21234 14.3198 1.14295C14.2099 1.07365 14.0733 1.01865 13.9107 0.977787C13.4793 0.88 12.9299 0.827102 12.2622 0.818878C11.7162 0.813008 11.2406 0.82199 10.8354 0.845817C10.0786 0.890318 9.5348 1.61207 9.8567 2.29845C9.88392 2.35648 9.93005 2.44532 9.93005 2.44532C9.9871 2.55129 10.0441 2.7389 10.1011 3.00789C10.158 3.27688 10.1947 3.57444 10.2109 3.90039C10.2515 4.49564 10.2515 5.00518 10.2109 5.42905C10.1701 5.85309 10.1316 6.18321 10.0949 6.41964C10.0582 6.65608 10.0033 6.84767 9.93005 6.99437C9.8567 7.14112 9.80791 7.23081 9.78345 7.26336C9.75903 7.29591 9.73867 7.31643 9.7225 7.32448C9.6167 7.36509 9.50666 7.38578 9.39277 7.38578C9.27872 7.38578 9.14041 7.32864 8.97764 7.21445C8.81491 7.10025 8.64603 6.9434 8.47099 6.74363C8.29594 6.54381 8.09853 6.26459 7.87867 5.90591C7.65898 5.54723 7.43104 5.12331 7.19497 4.63416L6.99965 4.27942C6.87755 4.05121 6.71076 3.71891 6.49911 3.28283C6.28733 2.84658 6.10015 2.42459 5.93742 2.01695C5.87237 1.84575 5.77465 1.71541 5.64443 1.62572L5.58331 1.58893C5.54269 1.55637 5.47747 1.52181 5.388 1.48497C5.2984 1.44818 5.20492 1.42179 5.10715 1.40556L1.76158 1.42989C1.4197 1.42989 1.18774 1.50746 1.0656 1.66238L1.01672 1.73567C0.992297 1.77649 0.979981 1.84168 0.979981 1.93142C0.979981 2.02111 1.0044 2.13119 1.05328 2.26153C1.54167 3.41116 2.07279 4.51988 2.64663 5.58787C3.22047 6.65586 3.71913 7.51616 4.1423 8.16799C4.56556 8.82029 4.99699 9.43592 5.43658 10.0146C5.87618 10.5935 6.16716 10.9645 6.30953 11.1274C6.45207 11.2907 6.56403 11.4128 6.64542 11.4943L6.95073 11.7877C7.14608 11.9834 7.43296 12.2178 7.81149 12.4909C8.1901 12.7641 8.60925 13.0331 9.06916 13.2983C9.52916 13.563 10.0643 13.7791 10.6749 13.9462C11.2854 14.1134 11.8796 14.1805 12.4575 14.1482L13.8617 14.1482C14.1465 14.1235 14.3623 14.0338 14.5089 13.879L14.5575 13.8178C14.5902 13.7691 14.6208 13.6935 14.649 13.5918C14.6775 13.4899 14.6917 13.3776 14.6917 13.2555C14.6834 12.905 14.71 12.5891 14.7709 12.3079C14.8318 12.0267 14.9012 11.8147 14.9788 11.672C15.0563 11.5293 15.1438 11.409 15.2412 11.3114C15.3388 11.2136 15.4083 11.1544 15.4491 11.134C15.4896 11.1135 15.522 11.0995 15.5464 11.0912C15.7418 11.026 15.9717 11.0891 16.2365 11.2809C16.5011 11.4725 16.7493 11.7091 16.9814 11.9902C17.2134 12.2716 17.4922 12.5873 17.8177 12.9378C18.1435 13.2885 18.4283 13.5491 18.6724 13.7206L18.9165 13.8673C19.0795 13.9652 19.2912 14.0549 19.5517 14.1364C19.8118 14.2179 20.0396 14.2383 20.2353 14.1975L23.361 14.1487C23.6701 14.1487 23.9107 14.0974 24.0813 13.9957C24.2523 13.8938 24.3539 13.7816 24.3866 13.6594C24.4193 13.5372 24.4211 13.3985 24.3928 13.2434C24.3639 13.0888 24.3354 12.9806 24.307 12.9195Z" fill="#3E3F43"/>
</svg>
