<svg width="21" height="20" viewBox="0 0 21 20" fill="none" xmlns="http://www.w3.org/2000/svg">
<path opacity="0.9" d="M10.5523 0.466796C5.17054 0.466797 0.792034 4.84531 0.792035 10.227C0.792035 11.9076 1.22617 13.5599 2.04936 15.018L0.807783 19.4484C0.767005 19.5939 0.806457 19.75 0.911717 19.8583C0.992776 19.9418 1.10301 19.9873 1.21639 19.9873C1.25037 19.9873 1.28469 19.9829 1.31817 19.975L5.94202 18.8296C7.35383 19.5874 8.94401 19.9873 10.5523 19.9873C15.934 19.9873 20.3125 15.6087 20.3125 10.227C20.3125 4.84531 15.934 0.466796 10.5523 0.466796ZM15.4621 13.6711C15.2534 14.2491 14.2518 14.7766 13.7706 14.8474C13.3386 14.9107 12.7921 14.9379 12.192 14.7494C11.8283 14.6349 11.3615 14.4829 10.7636 14.2279C8.25012 13.1559 6.60872 10.6569 6.48307 10.4918C6.35792 10.3268 5.45997 9.15038 5.45997 7.93301C5.45997 6.71547 6.10712 6.11672 6.3372 5.86891C6.56711 5.62109 6.8383 5.55909 7.00556 5.55909C7.17265 5.55909 7.33941 5.56125 7.48578 5.56804C7.63994 5.57567 7.84649 5.50986 8.04988 5.99273C8.25858 6.48837 8.75985 7.70591 8.82168 7.83023C8.8845 7.95423 8.92611 8.09894 8.8429 8.26387C8.75985 8.42898 8.71824 8.53208 8.59259 8.67679C8.46694 8.82151 8.32952 8.99937 8.21664 9.1106C8.09099 9.2341 7.9607 9.3677 8.10674 9.61552C8.25261 9.86334 8.75554 10.6734 9.50065 11.3295C10.4576 12.1723 11.2652 12.4337 11.5155 12.5577C11.766 12.6815 11.9124 12.6608 12.0582 12.4957C12.2043 12.3301 12.6847 11.7729 12.8514 11.5256C13.0182 11.2781 13.1854 11.3189 13.4154 11.4016C13.6454 11.484 14.8774 12.0823 15.1277 12.2063C15.378 12.3301 15.5453 12.3921 15.6081 12.4952C15.6709 12.598 15.6709 13.0936 15.4621 13.6711Z" fill="#3E3F43"/>
</svg>
