<svg width="14" height="21" viewBox="0 0 14 21" fill="none" xmlns="http://www.w3.org/2000/svg">
<g opacity="0.9">
<path d="M6.13308 14.625C4.54717 14.4625 3.11724 14.0787 1.89299 13.1379C1.74109 13.0208 1.58425 12.908 1.44563 12.7773C0.909782 12.2716 0.85579 11.6925 1.2798 11.0956C1.64253 10.5849 2.25144 10.4483 2.88435 10.7415C3.0069 10.7984 3.12367 10.8693 3.23551 10.9455C5.5171 12.4859 8.65142 12.5284 10.9416 11.0148C11.1685 10.8438 11.411 10.7045 11.6921 10.6333C12.2387 10.4954 12.7484 10.6927 13.0417 11.1626C13.3768 11.6992 13.3725 12.223 12.9596 12.6396C12.3263 13.2783 11.5646 13.7404 10.7183 14.0629C9.91809 14.3678 9.04158 14.5212 8.17406 14.6231C8.30497 14.7631 8.36668 14.832 8.44852 14.9128C9.62649 16.0757 10.8096 17.2338 11.9837 18.4003C12.3837 18.7978 12.4673 19.2906 12.247 19.7529C12.0062 20.2582 11.4671 20.5906 10.9386 20.555C10.6037 20.5323 10.3425 20.3685 10.1105 20.1388C9.22155 19.2599 8.3159 18.3971 7.44496 17.5016C7.19149 17.2412 7.06958 17.2904 6.8459 17.5165C5.95161 18.4211 5.04274 19.3119 4.12852 20.1975C3.71801 20.5952 3.22951 20.6668 2.75344 20.4396C2.24737 20.1986 1.92535 19.691 1.9502 19.1809C1.96734 18.8359 2.14003 18.5723 2.38106 18.3359C3.54682 17.1921 4.70936 16.0454 5.87233 14.8997C5.94925 14.8235 6.02102 14.7427 6.13308 14.625Z" fill="#3E3F43"/>
<path d="M7.0992 10.6409C4.26998 10.6314 1.95004 8.32683 1.96654 5.54246C1.98282 2.72737 4.30426 0.458783 7.16134 0.466572C10.0242 0.474151 12.3221 2.77537 12.3077 5.61973C12.2931 8.3984 9.95714 10.6506 7.0992 10.6409ZM9.67046 5.5492C9.66554 4.1667 8.54499 3.0661 7.14077 3.06483C5.72477 3.06336 4.59415 4.18397 4.60508 5.5791C4.61557 6.95633 5.74576 8.04915 7.15384 8.04409C8.55763 8.03925 9.67518 6.93149 9.67046 5.5492Z" fill="#3E3F43"/>
</g>
</svg>
